<?xml version="1.0" standalone="no"?>
<!DOCTYPE svg PUBLIC "-//W3C//DTD SVG 20010904//EN"
 "http://www.w3.org/TR/2001/REC-SVG-20010904/DTD/svg10.dtd">
<svg version="1.0" xmlns="http://www.w3.org/2000/svg"
 width="183.000000pt" height="275.000000pt" viewBox="0 0 183.000000 275.000000"
 preserveAspectRatio="xMidYMid meet">
<metadata>
Created by potrace 1.16, written by Peter Selinger 2001-2019
</metadata>
<g transform="translate(0.000000,275.000000) scale(0.100000,-0.100000)"
fill="#000000" stroke="none">
<path d="M1 2553 c1 -109 3 -187 6 -173 10 63 14 75 23 60 9 -18 -12 -155 -22
-144 -4 4 -8 -511 -8 -1144 l0 -1152 915 0 915 0 0 444 0 444 -31 6 c-17 3
-52 7 -78 7 -44 2 -45 2 -11 8 29 5 35 10 33 29 -2 12 2 22 7 22 6 0 10 -9 10
-20 0 -20 27 -40 54 -40 15 0 16 90 16 925 l0 925 -54 0 c-44 0 -55 -4 -59
-17 -4 -17 -5 -17 -6 0 -1 16 -44 17 -750 17 l-750 0 -4 -27 -4 -28 -2 28 c-1
26 -3 27 -60 27 -38 0 -61 -4 -64 -12 -4 -10 -6 -10 -6 0 -1 7 -15 12 -36 12
l-35 0 1 -197z m1788 103 c2 -45 -6 -27 -12 29 -4 34 -3 42 3 25 4 -14 8 -38
9 -54z m-1643 48 c-3 -9 -6 -34 -6 -57 0 -29 -3 -38 -11 -30 -13 13 -2 103 13
103 6 0 7 -7 4 -16z m1637 -364 c3 -11 1 -23 -4 -26 -5 -3 -9 -2 -9 3 0 4 -11
85 -25 178 -13 94 -24 181 -24 195 1 14 14 -55 29 -153 15 -98 30 -186 33
-197z m-1728 221 c-5 -43 -9 -51 -17 -37 -9 16 -4 77 10 121 6 18 7 18 10 -4
2 -14 1 -49 -3 -80z m289 57 c7 -5 4 -8 -6 -8 -12 0 -18 7 -17 23 0 15 2 17 6
7 3 -8 11 -18 17 -22z m68 25 c-10 -4 -10 -8 -1 -19 9 -11 8 -14 -5 -14 -9 0
-16 8 -16 20 0 13 6 20 18 19 11 0 12 -2 4 -6z m86 -16 c2 -10 -3 -17 -12 -17
-18 0 -29 16 -21 31 9 14 29 6 33 -14z m73 14 c6 10 9 8 9 -8 0 -13 -5 -22
-12 -20 -18 3 -28 19 -21 31 4 6 8 5 11 -3 4 -11 6 -11 13 0z m89 -21 c0 -3
-9 -6 -19 -6 -16 0 -18 4 -9 19 8 16 12 17 19 6 5 -8 9 -16 9 -19z m74 22 c6
-10 -5 -26 -21 -29 -7 -2 -13 6 -13 17 0 19 24 28 34 12z m76 -12 c0 -11 -7
-20 -15 -20 -8 0 -15 9 -15 20 0 11 7 20 15 20 8 0 15 -9 15 -20z m83 6 c7
-16 -1 -26 -20 -26 -7 0 -13 9 -13 20 0 23 25 27 33 6z m132 -6 c0 -8 -8 -16
-17 -18 -13 -2 -18 3 -18 18 0 15 5 20 18 18 9 -2 17 -10 17 -18z m115 10
c-13 -9 -13 -11 0 -20 13 -8 12 -10 -2 -10 -11 0 -18 8 -18 20 0 12 7 20 18
20 14 0 15 -2 2 -10z m84 -6 c8 -21 9 -20 -13 -20 -12 0 -17 6 -13 18 5 22 18
23 26 2z m76 2 c0 -8 -7 -16 -15 -20 -10 -4 -15 1 -15 14 0 11 7 20 15 20 8 0
15 -6 15 -14z m76 2 c5 -7 3 -8 -7 -3 -12 8 -12 6 0 -8 11 -15 11 -17 -2 -17
-8 0 -17 6 -20 14 -9 24 15 36 29 14z m51 -20 c-3 -7 -5 -2 -5 12 0 14 2 19 5
13 2 -7 2 -19 0 -25z m86 18 c7 -16 -1 -26 -20 -26 -7 0 -13 9 -13 20 0 23 25
27 33 6z m-436 -18 c-3 -8 -6 -5 -6 6 -1 11 2 17 5 13 3 -3 4 -12 1 -19z
m-884 -56 c-3 -28 -10 -49 -15 -46 -8 5 -3 57 8 93 9 29 13 3 7 -47z m1625
-117 c0 -16 -6 6 -13 50 -8 44 -13 91 -13 105 0 14 6 -9 14 -50 7 -41 12 -88
12 -105z m-1352 122 c4 -4 -27 -7 -69 -7 -43 0 -77 3 -77 8 0 9 136 9 146 -1z
m140 1 c4 -5 -22 -8 -57 -8 -36 0 -58 4 -51 8 15 10 98 10 108 0z m94 2 c-8
-6 -31 -10 -50 -10 -45 0 -23 14 26 17 27 1 34 -1 24 -7z m95 0 c4 -6 -5 -10
-19 -10 -14 0 -26 5 -26 10 0 6 9 10 19 10 11 0 23 -4 26 -10z m81 -3 c4 -4
-10 -7 -32 -6 -30 0 -34 2 -19 8 22 9 41 8 51 -2z m80 0 c4 -4 -7 -7 -24 -7
-18 0 -32 4 -32 8 0 10 46 9 56 -1z m114 3 c11 -7 1 -9 -35 -9 -40 1 -45 3
-25 9 35 11 43 11 60 0z m60 0 c0 -5 -8 -10 -17 -10 -15 0 -16 2 -3 10 19 12
20 12 20 0z m79 -6 c2 -2 -12 -4 -32 -4 -20 0 -37 5 -37 10 0 10 59 5 69 -6z
m91 4 c0 -4 -13 -8 -30 -8 -16 0 -30 4 -30 8 0 5 14 8 30 8 17 0 30 -3 30 -8z
m80 -4 c0 -2 -16 -3 -35 -2 -20 1 -31 4 -25 8 11 7 60 2 60 -6z m130 4 c0 -5
-13 -8 -30 -8 -16 0 -30 4 -30 8 0 4 14 8 30 7 17 0 30 -3 30 -7z m-1391 -86
c-4 -26 -8 -53 -8 -61 -1 -8 -4 -11 -8 -7 -8 7 -6 65 3 110 10 47 21 10 13
-42z m1441 13 c0 -5 -5 -3 -10 5 -5 8 -10 20 -10 25 0 6 5 3 10 -5 5 -8 10
-19 10 -25z m15 -90 c1 -16 7 -73 14 -125 6 -52 18 -165 26 -250 8 -85 22
-227 30 -315 15 -162 16 -227 3 -218 -5 2 -8 -5 -8 -15 0 -11 -9 -22 -20 -25
-21 -5 -29 16 -10 28 16 10 12 35 -6 35 -11 0 -14 5 -10 17 6 14 3 14 -16 -3
l-23 -19 18 21 c16 19 16 30 3 175 -28 299 -48 557 -44 575 2 11 16 -127 32
-306 34 -385 38 -426 51 -423 16 4 17 -16 -34 540 -17 182 -31 344 -30 360 l0
28 11 -25 c5 -14 11 -38 13 -55z m-1035 55 c0 -5 -2 -10 -4 -10 -3 0 -8 5 -11
10 -3 6 -1 10 4 10 6 0 11 -4 11 -10z m953 -195 c17 -155 60 -736 55 -740 -3
-3 -12 -3 -21 0 -19 8 -31 117 -24 207 5 52 4 56 -3 23 -5 -22 -10 -65 -11
-95 l-2 -55 -7 60 c-3 33 -3 62 0 65 4 3 9 50 12 105 4 64 3 87 -3 65 -5 -24
-7 -3 -5 65 3 67 1 90 -5 70 -5 -20 -7 -1 -4 60 2 50 0 77 -3 61 -4 -16 -7 40
-6 125 0 179 5 212 14 114 4 -38 10 -97 13 -130z m24 173 c-3 -8 -6 -5 -6 6
-1 11 2 17 5 13 3 -3 4 -12 1 -19z m-1345 -73 c-5 -37 -10 -55 -15 -47 -10 16
3 126 13 115 5 -4 5 -35 2 -68z m338 48 c0 -5 -11 -9 -25 -9 -14 -1 -25 2 -25
7 0 5 11 9 25 9 14 0 25 -3 25 -7z m1127 -35 c-3 -8 -6 -5 -6 6 -1 11 2 17 5
13 3 -3 4 -12 1 -19z m-947 1 c0 -6 -14 -9 -36 -6 -49 7 -51 13 -4 15 23 1 40
-3 40 -9z m85 2 c-3 -6 -19 -8 -36 -6 -48 6 -47 15 0 15 24 0 40 -4 36 -9z
m35 -1 c0 -5 -2 -10 -4 -10 -3 0 -8 5 -11 10 -3 6 -1 10 4 10 6 0 11 -4 11
-10z m70 0 c0 -5 -7 -7 -15 -4 -8 4 -15 8 -15 10 0 2 7 4 15 4 8 0 15 -4 15
-10z m110 3 c0 -5 -20 -8 -45 -8 -59 -1 -59 11 0 13 25 1 45 -1 45 -5z m50 3
c0 -2 -7 -7 -16 -10 -8 -3 -12 -2 -9 4 6 10 25 14 25 6z m70 -6 c0 -5 -7 -7
-15 -4 -8 4 -15 8 -15 10 0 2 7 4 15 4 8 0 15 -4 15 -10z m100 1 c0 -4 -13 -8
-30 -7 -39 1 -39 16 0 16 17 0 30 -4 30 -9z m317 -53 c-2 -13 -4 -5 -4 17 -1
22 1 32 4 23 2 -10 2 -28 0 -40z m192 -64 c9 -62 9 -89 1 -99 -8 -10 -8 -15 0
-20 6 -4 9 -13 6 -21 -3 -8 -2 -14 3 -14 9 0 8 -57 -2 -66 -9 -9 -15 26 -27
151 -6 61 -13 128 -15 150 -4 35 -3 38 8 23 8 -10 19 -56 26 -104z m-1079 76
c0 -11 -6 -20 -14 -20 -9 0 -12 7 -9 20 3 11 9 20 14 20 5 0 9 -9 9 -20z
m-353 -10 c-3 -11 -1 -20 3 -20 5 0 15 -3 24 -6 12 -5 16 0 16 20 0 14 5 26
10 26 6 0 10 -25 10 -55 l0 -55 -40 0 c-22 0 -40 5 -40 10 0 6 -4 10 -10 10
-5 0 -10 -6 -10 -14 0 -11 -9 -13 -37 -9 -21 3 -39 7 -41 8 -2 2 0 26 4 54 l7
51 54 0 c50 0 55 -2 50 -20z m303 0 c0 -11 3 -19 8 -19 37 6 52 -2 52 -30 0
-32 -17 -40 -85 -37 l-40 1 -3 53 -3 52 35 0 c29 0 36 -4 36 -20z m-496 -53
c-8 -61 -23 -97 -24 -56 0 50 13 119 22 113 4 -3 6 -29 2 -57z m1576 -153 c21
-186 24 -231 15 -222 -6 6 -45 360 -44 398 1 48 8 4 29 -176z m120 172 c0 -3
-4 -8 -10 -11 -5 -3 -10 -1 -10 4 0 6 5 11 10 11 6 0 10 -2 10 -4z m-1384 -31
c-3 -10 1 -15 11 -15 9 0 14 -3 10 -6 -12 -12 -37 5 -31 21 3 8 8 15 11 15 3
0 3 -7 -1 -15z m-265 -120 l-9 -40 -1 50 c0 28 3 61 7 75 6 23 7 22 10 -10 2
-19 -1 -53 -7 -75z m149 5 c0 -49 0 -50 -31 -50 -37 0 -68 33 -69 73 0 26 2
27 50 27 l50 0 0 -50z m219 34 c-9 -11 -9 -18 1 -30 11 -12 11 -15 -1 -12 -8
2 -17 14 -20 28 l-7 25 -1 -27 c-1 -25 -5 -28 -35 -28 -19 0 -37 6 -40 13 -5
10 -7 10 -12 0 -10 -23 -24 -14 -24 17 l0 29 76 0 c64 0 73 -3 63 -15z m541
-73 c0 -27 -3 -32 -12 -23 -8 8 -17 8 -31 0 -18 -9 -19 -8 -14 13 4 13 7 37 7
52 0 28 0 28 25 10 18 -13 24 -28 25 -52z m-346 17 c9 -36 8 -37 -24 -28 -19
5 -30 5 -30 -1 0 -6 -6 -7 -12 -3 -9 5 -10 4 -3 -4 6 -5 19 -12 30 -15 12 -3
5 -5 -16 -6 -34 -1 -35 0 -31 29 2 16 8 27 13 24 5 -3 9 1 10 8 0 10 2 10 6 1
5 -14 24 -18 22 -5 -3 16 2 22 15 22 7 0 16 -10 20 -22z m58 3 c-10 -6 -7 -10
11 -15 18 -4 25 -12 24 -26 -1 -17 -8 -20 -47 -20 -32 0 -41 3 -30 10 8 5 12
12 8 15 -8 8 23 45 37 45 5 0 4 -4 -3 -9z m575 -13 c-3 -8 -6 -5 -6 6 -1 11 2
17 5 13 3 -3 4 -12 1 -19z m-1272 -65 c-7 -69 -11 -81 -20 -71 -10 9 7 138 18
138 6 0 7 -25 2 -67z m1392 15 c-2 -13 -4 -5 -4 17 -1 22 1 32 4 23 2 -10 2
-28 0 -40z m-27 0 c-1 -35 -3 -40 -11 -25 -10 17 -5 67 6 67 3 0 5 -19 5 -42z
m-997 15 c-7 -2 -19 -2 -25 0 -7 3 -2 5 12 5 14 0 19 -2 13 -5z m-126 -19 c-3
-3 -12 -4 -19 -1 -8 3 -5 6 6 6 11 1 17 -2 13 -5z m1071 -45 c-1 -17 -7 -33
-15 -36 -7 -3 -13 -12 -13 -20 0 -8 4 -12 9 -9 5 3 12 -6 16 -21 3 -15 14 -33
23 -40 14 -11 14 -13 2 -11 -10 2 -16 -7 -18 -25 -2 -15 -7 -25 -12 -22 -5 3
-12 -7 -15 -22 -4 -15 -11 -38 -16 -51 -11 -29 -12 -89 0 -96 4 -3 11 24 14
60 6 78 21 102 33 52 l8 -33 7 30 c7 30 7 30 8 3 0 -15 -3 -29 -8 -32 -16 -10
-19 -58 -6 -89 l12 -29 8 33 8 34 7 -30 c7 -28 8 -27 9 13 2 69 21 48 21 -23
0 -37 -4 -65 -10 -65 -5 0 -10 8 -11 18 0 12 -2 13 -6 3 -3 -8 -20 -28 -37
-45 -26 -25 -31 -27 -34 -13 -5 24 -29 21 -37 -4 -4 -11 -12 -18 -18 -16 -7 2
-19 1 -28 -4 -13 -6 -16 -3 -14 15 3 22 -1 23 -61 25 -59 2 -64 0 -64 -18 0
-16 6 -21 25 -21 29 0 34 16 8 23 -14 4 -12 5 5 6 13 1 22 -5 22 -14 0 -8 5
-15 11 -15 6 0 9 7 5 15 -4 11 1 15 17 15 18 0 19 -2 7 -11 -11 -8 -12 -12 -2
-16 6 -2 12 -10 12 -15 0 -6 -3 -9 -6 -5 -3 3 -16 -5 -28 -17 -12 -13 -31 -22
-44 -21 -13 1 -25 -2 -28 -7 -3 -4 6 -8 20 -8 25 0 33 -10 19 -24 -10 -10 -16
-37 -15 -74 0 -22 -3 -32 -11 -29 -7 3 -11 10 -9 16 1 7 -2 10 -7 7 -5 -4 -11
-1 -13 6 -2 6 -9 8 -16 5 -11 -7 -10 -73 2 -84 5 -6 10 29 7 49 -2 14 30 -5
40 -24 8 -14 8 -23 0 -31 -8 -8 -11 -8 -11 1 0 23 -18 12 -25 -15 -13 -54 -13
-62 0 -73 11 -9 12 -17 4 -32 -9 -16 -7 -24 5 -36 10 -10 16 -12 16 -5 0 12
30 10 50 -2 16 -10 12 -35 -5 -29 -11 5 -15 -1 -15 -20 0 -14 -6 -26 -12 -27
-10 0 -10 -2 0 -6 6 -2 12 -11 12 -19 0 -8 4 -13 9 -11 5 1 9 -2 9 -8 0 -5 -4
-9 -9 -8 -4 2 -6 -3 -3 -11 4 -10 18 -13 49 -9 26 2 46 0 50 -7 10 -17 2 -21
-46 -22 -24 0 -38 -3 -31 -5 6 -3 9 -10 6 -15 -4 -6 -2 -8 4 -5 5 4 21 3 34
-2 19 -7 16 -9 -20 -9 -24 0 -40 3 -37 9 4 5 1 9 -4 9 -14 0 -14 -17 -1 -25 5
-3 10 -11 10 -16 0 -6 -4 -7 -10 -4 -6 3 -7 -1 -4 -9 9 -22 -22 -21 -31 2 -12
29 -13 96 -1 111 8 11 8 13 -1 7 -7 -4 -13 -4 -13 1 0 4 -9 19 -19 32 l-19 25
-16 -37 c-13 -31 -20 -37 -45 -37 -17 0 -31 -5 -31 -11 0 -6 6 -9 14 -6 8 3
22 -2 33 -12 10 -10 24 -16 31 -15 7 1 8 0 2 -3 -5 -2 -10 -16 -10 -29 0 -26
-11 -30 -40 -14 -16 8 -19 5 -25 -20 -7 -33 -20 -46 -30 -30 -3 5 -3 10 2 10
9 0 8 90 -2 128 -4 17 0 28 12 38 17 13 17 14 1 8 -12 -4 -18 -1 -18 10 0 9 5
16 12 16 6 0 8 3 5 6 -4 4 -14 1 -22 -6 -13 -11 -19 -10 -33 4 -9 9 -17 29
-17 44 0 20 -5 28 -22 30 -13 2 -23 -2 -23 -8 0 -6 4 -9 9 -5 5 3 12 1 16 -5
3 -5 -2 -10 -12 -10 -14 0 -15 -2 -5 -9 11 -7 11 -16 1 -50 -7 -22 -15 -41
-19 -41 -4 0 -5 -11 -3 -24 3 -13 -2 -37 -11 -53 -8 -17 -12 -33 -9 -37 4 -3
-6 -6 -20 -6 -15 0 -27 4 -27 10 0 5 -17 3 -39 -5 -30 -10 -41 -11 -44 -2 -3
9 -8 8 -20 -2 -15 -12 -17 -11 -17 2 0 11 -6 15 -17 11 -14 -5 -15 -4 -4 4 9
6 11 19 7 36 -9 38 10 69 40 63 13 -2 24 -1 24 4 0 4 13 3 29 -2 17 -6 40 -9
53 -6 20 4 20 4 -4 6 -29 1 -40 21 -12 21 8 0 12 5 9 10 -4 6 -11 8 -16 5 -5
-4 -9 -1 -9 4 0 6 4 11 10 11 5 0 6 7 3 17 -4 11 -3 14 5 9 7 -4 12 -3 12 2 0
6 -7 12 -15 16 -8 3 -15 12 -15 21 0 9 -9 15 -23 15 -13 0 -28 5 -34 11 -8 8
-11 6 -10 -6 1 -10 -4 -20 -12 -23 -10 -3 -12 0 -8 11 3 9 2 19 -4 22 -5 4 -7
11 -4 16 4 5 0 9 -7 9 -11 0 -11 2 0 9 20 12 -36 32 -99 34 l-54 2 -6 90 c-4
50 -3 92 1 95 7 5 9 17 9 55 0 11 0 41 0 68 1 27 -3 47 -9 47 -6 0 -8 5 -5 10
3 6 16 8 29 6 15 -3 23 1 23 10 0 11 -3 11 -16 1 -12 -10 -14 -9 -8 5 3 9 1
19 -6 21 -9 3 -9 9 -1 24 8 13 9 25 2 37 -7 13 -7 21 1 26 8 5 9 14 2 33 -9
22 -7 27 9 32 11 4 24 3 30 0 5 -3 10 -1 10 4 0 10 -26 15 -60 12 -10 -1 -11
1 -4 6 29 22 26 83 -4 83 -13 0 -14 2 -4 9 8 4 13 12 13 17 -1 5 10 10 24 12
27 4 33 17 13 25 -7 3 -3 6 10 6 12 1 22 -3 22 -8 0 -4 41 -9 91 -10 57 0 98
-6 107 -13 13 -10 14 -10 8 0 -4 6 -2 12 3 12 23 0 11 -38 -14 -44 -31 -8 -33
-34 -2 -46 17 -7 10 -9 -34 -9 l-56 -1 5 -30 c4 -28 7 -30 49 -30 l44 0 -3
-41 c-3 -39 -5 -42 -37 -46 -21 -2 -38 2 -43 9 -5 8 -8 0 -8 -20 0 -35 17 -61
41 -60 48 3 59 -2 59 -28 0 -18 5 -24 18 -22 9 1 22 -1 28 -4 7 -5 12 11 13
50 1 50 0 54 -12 38 -12 -16 -13 -14 -9 20 4 32 6 35 13 19 6 -15 8 -11 9 20
l2 40 9 -30 c5 -16 7 -43 5 -60 -3 -16 -1 -48 3 -70 l9 -40 2 40 c7 157 9 187
14 193 3 3 7 -66 7 -154 l2 -159 11 85 c7 59 12 74 14 50 5 -46 22 -64 24 -25
0 17 0 43 -1 59 -2 18 1 26 8 21 7 -4 11 4 11 19 0 22 4 26 32 26 41 0 67 -23
60 -55 -4 -24 -22 -36 -22 -15 0 6 -7 10 -16 10 -8 0 -12 -4 -9 -10 4 -6 -5
-10 -19 -10 -23 0 -26 -4 -26 -32 0 -18 4 -28 8 -22 4 6 23 11 44 11 28 1 37
-4 41 -18 3 -11 14 -19 25 -19 17 0 21 7 24 38 3 41 -7 37 111 41 22 1 27 6
27 26 0 24 -2 25 -70 25 -68 0 -70 -1 -70 -25 0 -22 -2 -24 -20 -13 -10 7 -15
15 -10 18 5 3 12 24 16 47 l6 41 71 1 c39 1 72 3 75 6 2 2 2 16 -2 30 -6 25
-7 25 -115 25 -96 0 -109 -2 -113 -18 -7 -27 -45 -25 -52 3 -7 29 2 55 19 55
8 0 15 12 17 28 l3 27 109 3 c81 2 112 -1 118 -10 6 -10 8 -8 8 5 0 14 -9 17
-50 17 -43 0 -50 3 -50 20 0 11 5 20 10 20 6 0 10 5 10 11 0 5 -5 7 -11 4 -6
-4 -13 3 -16 15 -4 13 -11 19 -20 16 -10 -4 -13 0 -11 12 3 13 15 18 63 20 73
4 84 -8 86 -87 l2 -56 9 45 c5 25 11 60 14 78 8 41 22 42 16 1 -3 -21 -1 -30
6 -25 6 4 8 14 5 23 -5 12 -3 14 7 8 10 -6 12 -4 7 9 -5 13 -3 17 7 13 8 -3
17 1 20 9 9 23 15 16 14 -17z m-1253 -36 c-4 -32 -12 -62 -17 -68 -8 -9 -3 80
7 113 11 32 16 6 10 -45z m664 51 c29 -6 31 -9 31 -50 l0 -44 -105 0 -105 0 0
44 c0 41 2 45 28 49 46 7 118 7 151 1z m321 -54 l0 -60 -49 0 c-39 0 -51 -4
-54 -17 -4 -14 -5 -12 -6 5 0 12 -5 22 -11 22 -5 0 -10 9 -10 20 0 11 5 20 10
20 6 0 10 16 10 35 l0 35 55 0 55 0 0 -60z m-570 29 c0 -5 -6 -9 -12 -10 -10
0 -10 -2 0 -6 12 -5 17 -55 6 -66 -4 -4 -11 -4 -17 0 -22 13 -75 12 -81 -3 -4
-10 3 -14 29 -14 18 0 37 -5 41 -12 5 -7 3 -8 -6 -3 -10 6 -12 4 -7 -9 10 -25
-2 -40 -19 -25 -21 17 -17 2 6 -21 21 -21 28 -46 9 -35 -6 4 -13 -3 -16 -15
-4 -16 -11 -20 -27 -16 -11 3 -30 6 -41 6 -15 0 -17 2 -6 9 10 6 10 13 2 29
-6 11 -8 28 -4 38 5 13 3 16 -10 11 -10 -4 -21 3 -31 18 -18 27 -6 36 37 28
27 -5 27 -5 27 50 0 30 4 57 10 59 20 6 110 -4 110 -13z m-149 -16 c12 -15 12
-16 -3 -10 -15 5 -18 1 -18 -23 0 -39 -31 -41 -55 -4 -9 15 -12 23 -5 19 9 -5
10 -1 5 14 -6 19 -2 21 28 21 20 0 40 -7 48 -17z m1049 -48 c0 -52 -11 -72
-23 -41 -8 19 4 96 14 96 5 0 9 -25 9 -55z m27 -17 c-2 -13 -4 -5 -4 17 -1 22
1 32 4 23 2 -10 2 -28 0 -40z m-867 32 c0 -5 -7 -7 -15 -4 -8 4 -15 8 -15 10
0 2 7 4 15 4 8 0 15 -4 15 -10z m531 -33 c-10 -9 -11 -8 -5 6 3 10 9 15 12 12
3 -3 0 -11 -7 -18z m266 -9 c-3 -7 -5 -2 -5 12 0 14 2 19 5 13 2 -7 2 -19 0
-25z m353 22 c0 -5 -5 -10 -11 -10 -5 0 -7 5 -4 10 3 6 8 10 11 10 2 0 4 -4 4
-10z m-833 -32 c-3 -7 -5 -2 -5 12 0 14 2 19 5 13 2 -7 2 -19 0 -25z m30 0
c-3 -8 -6 -5 -6 6 -1 11 2 17 5 13 3 -3 4 -12 1 -19z m818 -38 c-3 -5 -10 -10
-16 -10 -5 0 -9 5 -9 10 0 6 7 10 16 10 8 0 12 -4 9 -10z m-288 -77 c-2 -16
-4 -5 -4 22 0 28 2 40 4 28 2 -13 2 -35 0 -50z m-27 7 c0 -27 -4 -50 -9 -50
-12 0 -17 27 -13 68 6 50 22 38 22 -18z m-533 -2 c-3 -8 -6 -5 -6 6 -1 11 2
17 5 13 3 -3 4 -12 1 -19z m-448 -54 c7 -6 -8 -34 -19 -34 -6 0 -15 10 -20 23
-5 12 -9 16 -9 10 -1 -19 -21 -16 -21 3 0 12 7 14 33 9 17 -4 34 -9 36 -11z
m478 -6 c-3 -8 -6 -5 -6 6 -1 11 2 17 5 13 3 -3 4 -12 1 -19z m-517 -29 c0 -4
-4 -19 -10 -33 -6 -17 -6 -26 0 -26 6 0 10 8 10 19 0 12 9 20 25 23 19 4 23 2
15 -7 -5 -6 -7 -14 -4 -17 3 -3 -9 -12 -25 -19 -30 -13 -43 -39 -20 -39 5 0 7
5 4 10 -3 6 3 10 14 10 14 0 21 -6 21 -18 0 -28 -10 -33 -35 -16 -20 13 -24
24 -24 68 0 39 4 53 15 53 8 0 14 -4 14 -8z m410 -30 c0 -5 -4 -9 -10 -9 -5 0
-10 7 -10 16 0 8 5 12 10 9 6 -3 10 -10 10 -16z m110 -20 c0 -16 -4 -28 -9
-25 -8 5 -3 56 5 56 2 0 4 -14 4 -31z m-223 -21 c-3 -8 -6 -5 -6 6 -1 11 2 17
5 13 3 -3 4 -12 1 -19z m998 -7 c2 -13 7 -31 10 -42 4 -11 2 -19 -5 -19 -7 0
-8 -6 -1 -19 10 -18 6 -31 -11 -31 -4 0 -8 7 -8 16 0 11 -5 14 -17 10 -10 -4
-5 4 10 16 29 23 29 23 8 42 -16 15 -18 21 -8 37 13 21 16 20 22 -10z m-1315
-72 c0 -10 -4 -19 -9 -19 -15 0 -23 18 -11 25 6 4 7 11 4 17 -4 7 -2 8 4 4 7
-4 12 -16 12 -27z m1087 -11 c-3 -7 -5 -2 -5 12 0 14 2 19 5 13 2 -7 2 -19 0
-25z m-1034 8 c7 -18 -1 -26 -25 -26 -11 0 -18 7 -18 20 0 23 35 28 43 6z
m1007 4 c0 -5 -4 -10 -10 -10 -5 0 -10 5 -10 10 0 6 5 10 10 10 6 0 10 -4 10
-10z m-1065 -48 c-3 -10 0 -12 10 -8 17 6 18 -8 5 -39 -8 -19 -9 -19 -9 3 -1
13 -5 20 -11 17 -5 -3 -10 4 -10 15 0 16 -5 20 -15 16 -8 -3 -15 -1 -15 4 0 5
11 9 25 8 17 -2 24 -7 20 -16z m1065 -37 c0 -8 -4 -15 -10 -15 -5 0 -7 7 -4
15 4 8 8 15 10 15 2 0 4 -7 4 -15z m-143 -1 c-3 -4 -2 -16 4 -26 7 -13 7 -24
1 -30 -6 -6 -13 1 -20 21 -8 22 -7 31 1 35 18 7 21 7 14 0z m-937 -14 c0 -5
-7 -7 -15 -4 -8 4 -15 8 -15 10 0 2 7 4 15 4 8 0 15 -4 15 -10z m1015 -15 c-1
-14 -5 -29 -9 -33 -4 -3 -5 7 -2 23 5 36 5 35 10 35 2 0 3 -11 1 -25z m-938
-20 c-7 -7 -13 -9 -15 -4 -6 15 -32 10 -32 -5 0 -8 -4 -17 -9 -20 -5 -4 -7 3
-4 14 3 11 0 20 -6 20 -6 0 -11 -9 -11 -20 0 -32 2 -35 22 -32 19 3 25 -23 10
-43 -16 -23 -60 5 -45 29 3 5 -3 16 -13 24 -16 13 -17 14 -1 9 13 -5 17 -1 17
18 0 20 5 24 38 27 51 4 64 0 49 -17z m53 15 c0 -5 -8 -10 -17 -10 -15 0 -16
2 -3 10 19 12 20 12 20 0z m1148 -20 c-1 -14 1 -41 5 -60 3 -19 8 -64 11 -99
6 -59 5 -62 -11 -50 -15 12 -16 12 -10 -3 3 -10 2 -18 -3 -18 -6 0 -10 18 -10
40 0 29 -4 38 -14 34 -20 -8 -38 45 -27 81 l9 30 1 -34 c1 -25 4 -32 12 -24 6
6 9 36 7 70 -3 50 -1 59 14 59 13 0 17 -8 16 -26z m119 -27 c-3 -10 -5 -2 -5
17 0 19 2 27 5 18 2 -10 2 -26 0 -35z m-180 15 c-3 -8 -6 -5 -6 6 -1 11 2 17
5 13 3 -3 4 -12 1 -19z m-136 -5 c0 -5 2 -16 4 -25 2 -9 -3 -19 -11 -22 -15
-6 -15 15 1 26 6 5 3 8 -7 8 -9 0 -19 -6 -21 -12 -3 -7 -6 -3 -6 10 -1 16 5
22 19 22 11 0 20 -3 21 -7z m304 -64 c5 0 12 8 16 18 5 11 8 -1 8 -32 0 -41
-16 -111 -18 -81 -1 5 -7 3 -15 -3 -18 -15 -22 -6 -21 52 1 34 -2 46 -11 43
-7 -3 -15 1 -18 9 -3 8 3 17 15 20 10 4 20 14 20 23 1 9 4 2 8 -16 3 -18 10
-33 16 -33z m-1305 37 c-7 -7 -13 -7 -20 0 -6 6 -3 10 10 10 13 0 16 -4 10
-10z m863 -47 c-6 -6 -7 3 -4 23 4 28 6 29 9 9 2 -13 0 -27 -5 -32z m70 1 c3
-11 1 -20 -4 -20 -5 0 -9 9 -9 20 0 11 2 20 4 20 2 0 6 -9 9 -20z m-1006 -22
c27 -25 29 -38 8 -38 -8 0 -15 8 -16 18 0 11 -2 12 -6 4 -7 -18 6 -64 16 -57
5 3 7 -4 4 -15 -3 -11 -9 -23 -14 -26 -5 -3 -6 3 -2 12 4 12 3 15 -6 10 -6 -4
-11 -4 -10 1 1 4 1 15 0 23 -1 13 -2 13 -11 0 -8 -13 -10 -12 -10 3 0 9 6 17
13 17 9 0 9 2 1 8 -11 6 -18 34 -15 55 2 14 25 7 48 -15z m1083 12 c0 -5 -4
-10 -9 -10 -6 0 -13 5 -16 10 -3 6 1 10 9 10 9 0 16 -4 16 -10z m70 3 c-8 -3
-18 -11 -22 -17 -5 -7 -8 -4 -8 7 0 11 7 17 23 16 15 0 17 -2 7 -6z m-70 -32
c0 -5 -6 -14 -14 -20 -12 -10 -13 -8 -9 8 5 21 23 30 23 12z m-160 -17 c0 -8
-5 -12 -10 -9 -6 4 -8 11 -5 16 9 14 15 11 15 -7z m250 -4 c0 -5 -4 -10 -9
-10 -6 0 -13 5 -16 10 -3 6 1 10 9 10 9 0 16 -4 16 -10z m-22 -28 c2 -7 -3
-12 -12 -12 -9 0 -16 7 -16 16 0 17 22 14 28 -4z m259 -4 c-3 -8 -6 -5 -6 6
-1 11 2 17 5 13 3 -3 4 -12 1 -19z m-1369 -43 c-3 -3 -9 2 -12 12 -6 14 -5 15
5 6 7 -7 10 -15 7 -18z m1009 -37 c-2 -13 -4 -5 -4 17 -1 22 1 32 4 23 2 -10
2 -28 0 -40z m190 37 c0 -8 -4 -15 -9 -15 -4 0 -8 7 -8 15 0 8 4 15 8 15 5 0
9 -7 9 -15z m-85 -35 c-3 -26 -9 -40 -18 -40 -18 0 -19 66 -1 73 22 9 23 8 19
-33z m-1002 15 c0 -8 -4 -15 -10 -15 -5 0 -7 7 -4 15 4 8 8 15 10 15 2 0 4 -7
4 -15z m111 -12 c6 -15 16 -31 22 -35 9 -6 8 -8 -2 -8 -11 0 -11 -3 -1 -15 10
-12 10 -15 -1 -15 -11 0 -11 -2 0 -9 11 -7 20 -4 32 10 11 13 20 16 24 9 8
-13 -4 -32 -16 -25 -5 4 -9 -1 -9 -9 0 -10 -9 -16 -25 -16 -16 0 -25 6 -25 15
0 8 -4 15 -10 15 -5 0 -10 -11 -10 -25 0 -15 -6 -25 -14 -25 -9 0 -12 7 -9 20
3 11 1 20 -5 20 -19 0 -22 43 -4 56 16 12 16 13 0 19 -10 4 -18 16 -18 26 0
14 7 19 30 19 24 0 33 -6 41 -27z m675 0 c-4 -8 -1 -11 5 -8 7 5 8 -8 5 -39
-5 -41 -3 -46 14 -46 11 0 20 -5 20 -12 0 -6 -3 -8 -7 -5 -3 4 -12 2 -20 -5
-10 -8 -17 -8 -25 0 -9 9 -9 12 0 12 10 0 10 5 2 21 -7 11 -13 40 -14 64 -3
34 0 42 11 38 8 -3 12 -12 9 -20z m131 5 c-3 -8 -6 -5 -6 6 -1 11 2 17 5 13 3
-3 4 -12 1 -19z m186 -25 c-7 -2 -19 -2 -25 0 -7 3 -2 5 12 5 14 0 19 -2 13
-5z m-176 -18 c0 -8 -4 -15 -9 -15 -10 0 -11 14 -1 23 9 10 10 9 10 -8z m-180
-27 c-3 -8 -6 -5 -6 6 -1 11 2 17 5 13 3 -3 4 -12 1 -19z m128 -8 c-3 -5 -10
-10 -16 -10 -5 0 -9 5 -9 10 0 6 7 10 16 10 8 0 12 -4 9 -10z m125 0 c-8 -5
-22 -9 -30 -9 -10 0 -8 3 5 9 27 12 43 12 25 0z m-767 -13 c-2 -4 -3 -11 -3
-17 0 -5 -10 -10 -22 -10 -20 0 -20 -1 -4 -19 16 -17 16 -18 -5 -17 -27 1 -34
34 -13 57 14 16 52 20 47 6z m709 6 c-6 -2 -10 -9 -6 -14 3 -5 -2 -9 -10 -9
-10 0 -13 6 -10 15 4 8 14 15 23 14 10 0 11 -2 3 -6z m-1165 -29 c-3 -3 -12
-4 -19 -1 -8 3 -5 6 6 6 11 1 17 -2 13 -5z m958 -4 c3 -5 -1 -10 -10 -10 -9 0
-13 5 -10 10 3 6 8 10 10 10 2 0 7 -4 10 -10z m158 -20 c-3 -12 -8 -19 -11
-16 -5 6 5 36 12 36 2 0 2 -9 -1 -20z m-1084 -69 c-2 -26 -2 -26 -6 2 -5 30
-27 36 -37 11 -4 -9 -9 -14 -13 -11 -3 4 2 19 12 33 17 26 18 27 31 9 8 -10
13 -30 13 -44z m577 37 c5 -7 3 -8 -6 -3 -9 6 -12 4 -8 -7 4 -9 0 -15 -8 -15
-16 0 -16 0 -8 21 7 19 20 21 30 4z m-429 -24 c-3 -3 -12 -4 -19 -1 -8 3 -5 6
6 6 11 1 17 -2 13 -5z m883 -24 c0 -5 -9 -10 -20 -10 -11 0 -20 5 -20 10 0 6
9 10 20 10 11 0 20 -4 20 -10z m-830 -40 c0 -5 -2 -10 -4 -10 -3 0 -8 5 -11
10 -3 6 -1 10 4 10 6 0 11 -4 11 -10z m970 0 c0 -5 -4 -10 -10 -10 -5 0 -10 5
-10 10 0 6 5 10 10 10 6 0 10 -4 10 -10z m130 -10 c-20 -13 -33 -13 -25 0 3 6
14 10 23 10 15 0 15 -2 2 -10z m-840 -50 c0 -5 -5 -10 -11 -10 -5 0 -7 5 -4
10 3 6 8 10 11 10 2 0 4 -4 4 -10z m40 -25 c10 -12 10 -15 -4 -15 -9 0 -16 7
-16 15 0 8 2 15 4 15 2 0 9 -7 16 -15z m435 -33 c-3 -3 -11 0 -18 7 -9 10 -8
11 6 5 10 -3 15 -9 12 -12z m-785 -26 c0 -2 -7 -7 -16 -10 -8 -3 -12 -2 -9 4
6 10 25 14 25 6z m530 -376 c0 -5 -5 -10 -11 -10 -5 0 -7 5 -4 10 3 6 8 10 11
10 2 0 4 -4 4 -10z m70 0 c0 -5 -5 -10 -11 -10 -5 0 -7 5 -4 10 3 6 8 10 11
10 2 0 4 -4 4 -10z m30 0 c0 -5 -5 -10 -11 -10 -5 0 -7 5 -4 10 3 6 8 10 11
10 2 0 4 -4 4 -10z m30 0 c0 -5 -4 -10 -10 -10 -5 0 -10 5 -10 10 0 6 5 10 10
10 6 0 10 -4 10 -10z m25 0 c3 -5 1 -10 -4 -10 -6 0 -11 5 -11 10 0 6 2 10 4
10 3 0 8 -4 11 -10z"/>
<path d="M470 2630 c0 -5 5 -10 10 -10 6 0 10 5 10 10 0 6 -4 10 -10 10 -5 0
-10 -4 -10 -10z"/>
<path d="M1000 2630 c0 -5 5 -10 10 -10 6 0 10 5 10 10 0 6 -4 10 -10 10 -5 0
-10 -4 -10 -10z"/>
<path d="M1512 1640 c0 -19 2 -27 5 -17 2 9 2 25 0 35 -3 9 -5 1 -5 -18z"/>
<path d="M192 2298 c2 -6 14 -15 26 -19 20 -7 21 -6 9 11 -13 21 -41 28 -35 8z"/>
<path d="M612 2270 c0 -14 2 -19 5 -12 2 6 2 18 0 25 -3 6 -5 1 -5 -13z"/>
<path d="M242 2144 c-11 -12 -9 -14 8 -14 11 0 20 4 20 9 0 17 -15 19 -28 5z"/>
<path d="M437 2173 c3 -7 11 -13 19 -13 8 0 14 6 14 13 0 7 -8 13 -19 13 -11
0 -17 -5 -14 -13z"/>
<path d="M756 2095 c4 -8 7 -15 9 -15 2 0 5 7 9 15 3 9 0 15 -9 15 -9 0 -12
-6 -9 -15z"/>
<path d="M1328 1877 c-5 -10 -8 -33 -8 -50 1 -27 2 -29 11 -14 6 9 9 32 7 50
-2 25 -5 28 -10 14z"/>
<path d="M1201 1854 c0 -11 3 -14 6 -6 3 7 2 16 -1 19 -3 4 -6 -2 -5 -13z"/>
<path d="M1221 1854 c0 -11 3 -14 6 -6 3 7 2 16 -1 19 -3 4 -6 -2 -5 -13z"/>
<path d="M1126 1825 c4 -8 8 -15 10 -15 2 0 4 7 4 15 0 8 -4 15 -10 15 -5 0
-7 -7 -4 -15z"/>
<path d="M1161 1824 c0 -11 3 -14 6 -6 3 7 2 16 -1 19 -3 4 -6 -2 -5 -13z"/>
<path d="M1070 1813 c-24 -12 -24 -13 -3 -13 12 0 25 5 28 11 11 16 2 17 -25
2z"/>
<path d="M996 1794 c-6 -15 20 -32 31 -20 4 3 0 6 -8 6 -11 0 -12 2 -1 9 11 7
11 9 -1 14 -9 3 -18 -1 -21 -9z"/>
<path d="M626 1773 c6 -4 14 -15 17 -23 5 -11 6 -9 4 4 -1 11 -9 21 -17 23
-10 3 -11 2 -4 -4z"/>
<path d="M1227 1700 c3 -11 12 -20 19 -20 17 0 18 12 2 28 -18 18 -27 15 -21
-8z"/>
<path d="M588 1693 c6 -2 18 -2 25 0 6 3 1 5 -13 5 -14 0 -19 -2 -12 -5z"/>
<path d="M1010 1665 c0 -8 4 -15 9 -15 5 0 16 -3 25 -6 26 -10 18 12 -9 24
-21 10 -25 9 -25 -3z"/>
<path d="M656 1653 c-6 -14 -5 -15 5 -6 7 7 10 15 7 18 -3 3 -9 -2 -12 -12z"/>
<path d="M588 1633 c7 -3 16 -2 19 1 4 3 -2 6 -13 5 -11 0 -14 -3 -6 -6z"/>
<path d="M636 1613 c5 -5 12 -12 16 -18 4 -6 8 -2 8 8 0 9 -7 17 -17 17 -9 0
-12 -3 -7 -7z"/>
<path d="M596 1583 c-6 -14 -5 -15 5 -6 7 7 10 15 7 18 -3 3 -9 -2 -12 -12z"/>
<path d="M705 1580 c-3 -5 -1 -10 4 -10 6 0 11 5 11 10 0 6 -2 10 -4 10 -3 0
-8 -4 -11 -10z"/>
<path d="M708 1544 c-3 -10 -2 -28 2 -39 7 -19 7 -19 12 1 3 10 2 28 -2 39 -7
19 -7 19 -12 -1z"/>
<path d="M630 1546 c0 -2 7 -6 15 -10 8 -3 15 -1 15 4 0 6 -7 10 -15 10 -8 0
-15 -2 -15 -4z"/>
<path d="M781 1533 c-1 -18 13 -23 29 -11 12 8 12 9 -2 5 -9 -3 -19 -1 -22 6
-3 9 -5 9 -5 0z"/>
<path d="M832 1483 c-1 -23 -7 -43 -13 -45 -6 -2 -10 -11 -8 -21 3 -11 8 -14
17 -8 9 5 12 25 9 62 -3 47 -4 48 -5 12z"/>
<path d="M893 1485 c0 -22 2 -30 4 -17 2 12 2 30 0 40 -3 9 -5 -1 -4 -23z"/>
<path d="M850 1490 c0 -11 2 -20 4 -20 2 0 6 9 9 20 3 11 1 20 -4 20 -5 0 -9
-9 -9 -20z"/>
<path d="M1090 1495 c0 -11 -12 -15 -45 -15 -38 0 -45 -3 -45 -20 0 -16 7 -20
34 -20 24 0 36 5 39 18 4 16 5 16 6 0 0 -10 6 -18 11 -18 6 0 10 -7 10 -15 0
-9 9 -15 21 -15 19 0 21 4 15 31 -3 17 -6 40 -6 50 0 12 -7 19 -20 19 -11 0
-20 -7 -20 -15z m-60 -35 c0 -5 -5 -10 -11 -10 -5 0 -7 5 -4 10 3 6 8 10 11
10 2 0 4 -4 4 -10z m25 0 c3 -5 1 -10 -4 -10 -6 0 -11 5 -11 10 0 6 2 10 4 10
3 0 8 -4 11 -10z"/>
<path d="M699 1473 c0 -5 0 -35 1 -68 2 -83 19 -94 19 -11 0 36 3 70 6 76 3 5
-1 10 -9 10 -9 0 -16 -3 -17 -7z"/>
<path d="M851 1444 c0 -11 3 -14 6 -6 3 7 2 16 -1 19 -3 4 -6 -2 -5 -13z"/>
<path d="M977 1424 c-8 -8 3 -34 14 -34 5 0 9 9 9 20 0 19 -11 26 -23 14z"/>
<path d="M739 1408 c-6 -12 -5 -98 1 -98 4 0 8 23 8 50 0 42 -4 59 -9 48z"/>
<path d="M833 1355 c0 -27 2 -38 4 -22 2 15 2 37 0 50 -2 12 -4 0 -4 -28z"/>
<path d="M851 1384 c0 -11 3 -14 6 -6 3 7 2 16 -1 19 -3 4 -6 -2 -5 -13z"/>
<path d="M523 1363 c10 -15 43 -22 58 -12 12 7 11 9 -1 9 -8 0 -26 3 -39 7
-16 4 -22 2 -18 -4z"/>
<path d="M1011 1344 c0 -11 3 -14 6 -6 3 7 2 16 -1 19 -3 4 -6 -2 -5 -13z"/>
<path d="M1058 1353 c7 -3 16 -2 19 1 4 3 -2 6 -13 5 -11 0 -14 -3 -6 -6z"/>
<path d="M703 1290 c-6 -19 -14 -48 -18 -64 -5 -25 -4 -28 14 -23 25 6 39 -12
20 -24 -12 -7 -12 -10 0 -21 10 -10 12 -10 7 0 -4 6 -3 12 2 12 13 0 23 73 12
84 -7 7 -10 4 -10 -7 0 -9 -7 -17 -15 -17 -17 0 -21 36 -4 42 6 2 9 15 7 28
-3 23 -4 22 -15 -10z"/>
<path d="M806 1285 c3 -16 11 -34 17 -40 6 -7 7 0 3 20 -4 17 -12 35 -17 40
-7 7 -8 0 -3 -20z"/>
<path d="M988 1293 c-18 -22 6 -40 26 -20 9 9 16 20 16 25 0 14 -29 10 -42 -5z"/>
<path d="M560 1285 c0 -8 5 -15 10 -15 6 0 10 7 10 15 0 8 -4 15 -10 15 -5 0
-10 -7 -10 -15z"/>
<path d="M555 1220 c-3 -6 1 -7 9 -4 18 7 21 14 7 14 -6 0 -13 -4 -16 -10z"/>
<path d="M821 1204 c0 -11 3 -14 6 -6 3 7 2 16 -1 19 -3 4 -6 -2 -5 -13z"/>
<path d="M1058 1203 c7 -3 16 -2 19 1 4 3 -2 6 -13 5 -11 0 -14 -3 -6 -6z"/>
<path d="M1031 1151 c-1 -8 -8 -19 -18 -26 -18 -14 -6 -26 18 -16 11 4 13 13
8 31 -4 14 -7 19 -8 11z"/>
<path d="M1168 1103 c7 -3 16 -2 19 1 4 3 -2 6 -13 5 -11 0 -14 -3 -6 -6z"/>
<path d="M1141 1084 c0 -11 3 -14 6 -6 3 7 2 16 -1 19 -3 4 -6 -2 -5 -13z"/>
<path d="M1048 1083 c6 -2 18 -2 25 0 6 3 1 5 -13 5 -14 0 -19 -2 -12 -5z"/>
<path d="M738 2013 c7 -3 16 -2 19 1 4 3 -2 6 -13 5 -11 0 -14 -3 -6 -6z"/>
<path d="M645 2000 c-3 -6 1 -7 10 -4 10 4 14 2 10 -8 -4 -9 0 -15 10 -15 18
0 19 9 3 25 -15 15 -25 15 -33 2z"/>
<path d="M780 1984 c0 -8 5 -12 10 -9 6 3 10 10 10 16 0 5 -4 9 -10 9 -5 0
-10 -7 -10 -16z"/>
<path d="M1013 2004 c-3 -8 -1 -20 6 -27 8 -8 11 -4 11 16 0 30 -7 35 -17 11z"/>
<path d="M470 1975 c0 -9 12 -20 26 -25 39 -15 41 -12 12 15 -31 29 -38 31
-38 10z"/>
<path d="M440 1820 c0 -6 7 -10 15 -10 8 0 15 2 15 4 0 2 -7 6 -15 10 -8 3
-15 1 -15 -4z"/>
<path d="M333 1970 c-1 -12 4 -20 13 -20 9 0 14 7 12 17 -4 24 -23 27 -25 3z"/>
<path d="M1765 1270 c4 -6 11 -8 16 -5 14 9 11 15 -7 15 -8 0 -12 -5 -9 -10z"/>
</g>
</svg>
