<?xml version="1.0" standalone="no"?>
<!DOCTYPE svg PUBLIC "-//W3C//DTD SVG 20010904//EN"
 "http://www.w3.org/TR/2001/REC-SVG-20010904/DTD/svg10.dtd">
<svg version="1.0" xmlns="http://www.w3.org/2000/svg"
 width="188.000000pt" height="268.000000pt" viewBox="0 0 188.000000 268.000000"
 preserveAspectRatio="xMidYMid meet">
<metadata>
Created by potrace 1.16, written by Peter Selinger 2001-2019
</metadata>
<g transform="translate(0.000000,268.000000) scale(0.100000,-0.100000)"
fill="#000000" stroke="none">
<path d="M710 2666 c0 -7 -7 -19 -16 -27 -8 -7 -13 -21 -11 -30 3 -12 -2 -21
-15 -25 -11 -3 -17 -8 -15 -11 10 -9 47 18 47 35 0 15 2 15 10 2 8 -12 10 -11
10 7 0 12 4 25 10 28 6 4 7 -1 3 -12 -5 -16 -4 -17 11 -2 10 9 14 22 10 32 -7
20 -44 23 -44 3z"/>
<path d="M921 2649 c-13 -17 -20 -34 -16 -37 4 -4 13 1 20 11 14 20 29 8 19
-16 -3 -8 2 -17 10 -20 9 -4 16 -16 16 -27 0 -11 5 -20 11 -20 5 0 7 5 4 10
-3 6 -1 10 5 10 6 0 8 5 5 10 -10 16 12 12 29 -6 15 -14 16 -14 16 3 0 11 -7
28 -16 39 -15 18 -15 18 -9 -4 6 -21 5 -22 -14 -11 -16 11 -18 16 -8 28 8 9 8
12 1 8 -6 -4 -19 2 -29 13 -10 12 -13 20 -7 20 7 0 12 5 12 10 0 20 -27 9 -49
-21z"/>
<path d="M1047 2666 c-6 -16 2 -28 14 -20 12 7 11 34 0 34 -5 0 -11 -6 -14
-14z"/>
<path d="M1203 2656 c7 -14 13 -23 15 -21 7 6 -9 45 -18 45 -4 0 -3 -11 3 -24z"/>
<path d="M1531 2640 c12 -22 25 -40 30 -40 6 0 5 9 -1 20 -16 30 -2 45 21 24
18 -16 19 -16 19 9 0 25 -3 27 -45 27 l-45 0 21 -40z"/>
<path d="M1648 2673 c6 -2 12 -11 12 -19 0 -8 6 -14 13 -14 7 0 13 8 13 18 0
12 -8 18 -26 19 -14 1 -19 -1 -12 -4z"/>
<path d="M1711 2654 c-13 -30 -12 -33 19 -39 15 -3 20 0 17 9 -3 8 0 22 8 33
13 17 14 17 35 -4 21 -24 40 -30 40 -14 0 5 3 16 6 24 4 11 -7 15 -54 16 -54
1 -60 -1 -71 -25z"/>
<path d="M1861 2664 c0 -11 3 -14 6 -6 3 7 2 16 -1 19 -3 4 -6 -2 -5 -13z"/>
<path d="M292 2639 c1 -12 8 -24 15 -26 7 -3 9 3 6 17 -8 29 -25 37 -21 9z"/>
<path d="M1000 2656 c0 -2 8 -10 18 -17 15 -13 16 -12 3 4 -13 16 -21 21 -21
13z"/>
<path d="M638 2615 c-3 -14 -1 -25 3 -25 5 0 9 11 9 25 0 14 -2 25 -4 25 -2 0
-6 -11 -8 -25z"/>
<path d="M1445 2611 c-3 -5 -2 -12 3 -15 5 -3 9 1 9 9 0 17 -3 19 -12 6z"/>
<path d="M1400 2592 c-1 -17 -30 -63 -30 -46 0 5 -11 10 -25 10 -14 1 -25 -2
-25 -7 0 -4 -6 -6 -14 -3 -8 3 -17 1 -21 -5 -3 -6 1 -11 10 -11 9 0 14 -4 11
-9 -3 -4 -17 -6 -31 -3 -20 3 -25 0 -25 -17 0 -23 15 -29 23 -8 3 6 5 -1 5
-18 0 -16 -2 -24 -5 -17 -8 21 -23 13 -23 -13 0 -20 5 -25 25 -25 14 0 25 5
25 12 0 9 3 9 11 1 14 -14 3 -34 -15 -27 -8 3 -17 0 -22 -7 -4 -7 -3 -10 3 -6
6 4 23 3 39 -2 33 -9 89 2 64 13 -21 9 -15 126 6 126 10 0 14 -14 14 -55 0
-59 10 -68 42 -38 17 15 18 15 18 -9 0 -15 6 -25 15 -25 8 0 15 4 15 9 0 4 8
8 18 7 10 0 12 -3 5 -6 -16 -6 -17 -43 -2 -43 5 0 8 4 4 9 -3 6 4 15 16 21 15
9 19 9 15 1 -5 -7 4 -11 26 -11 102 1 218 -30 218 -57 0 -7 5 -13 11 -13 6 0
8 9 3 22 -6 19 -4 21 7 11 12 -10 14 8 14 112 0 68 -3 118 -7 112 -5 -9 -10
-9 -19 0 -10 10 -17 9 -31 -4 -11 -10 -18 -11 -18 -5 0 7 -9 12 -20 12 -11 0
-20 -4 -20 -8 0 -8 -51 -16 -80 -12 -8 1 -46 2 -85 3 -38 1 -73 6 -77 12 -5 6
-8 5 -8 -2 0 -7 -11 -13 -25 -13 -22 0 -24 3 -16 19 8 14 7 20 -4 25 -10 3
-15 -1 -15 -12z m192 -117 c25 -61 26 -65 8 -65 -10 0 -22 9 -25 20 -3 11 -14
20 -23 20 -14 0 -14 2 -3 9 8 5 10 14 6 21 -6 9 -14 3 -27 -21 -21 -38 -19
-26 7 39 9 23 20 42 24 42 3 0 18 -29 33 -65z m118 30 c0 -14 5 -25 11 -25 7
0 9 10 6 25 -3 20 -1 25 12 23 9 -2 16 -14 17 -28 0 -14 3 -30 6 -35 3 -6 8
-22 12 -37 5 -22 3 -25 -13 -21 -12 3 -21 15 -23 31 -2 14 -9 28 -17 30 -10 3
-12 -3 -9 -27 4 -27 1 -31 -17 -31 -20 0 -22 6 -24 60 -2 55 0 60 18 60 16 0
21 -6 21 -25z"/>
<path d="M860 2573 c0 -13 5 -23 10 -23 6 0 10 -12 10 -27 0 -21 -3 -24 -12
-15 -18 18 -38 14 -38 -8 0 -22 15 -27 23 -7 3 6 6 -1 6 -17 1 -23 -2 -26 -12
-17 -18 14 -26 5 -20 -20 6 -20 20 -24 41 -10 17 10 72 -36 72 -61 0 -10 4
-18 9 -18 6 0 6 12 0 32 -5 18 -9 42 -9 52 0 19 1 19 13 2 14 -20 48 -19 54 1
3 7 -8 18 -23 24 -35 13 -45 28 -38 53 5 15 2 18 -14 14 -25 -7 -35 0 -55 37
-15 27 -16 28 -17 8z"/>
<path d="M1220 2540 c-12 -22 -36 -27 -43 -7 -3 6 -6 1 -7 -13 -1 -14 -4 -19
-7 -12 -2 6 -11 12 -19 12 -10 0 -14 -13 -14 -47 0 -54 10 -76 31 -69 8 2 27
7 42 11 28 6 29 8 25 60 -3 53 -2 55 22 56 24 2 24 2 2 6 -12 2 -20 9 -17 14
4 5 4 9 1 9 -3 0 -10 -9 -16 -20z"/>
<path d="M100 2470 c0 -47 3 -60 15 -60 12 0 15 13 15 60 0 47 -3 60 -15 60
-12 0 -15 -13 -15 -60z"/>
<path d="M200 2525 c0 -6 81 -115 85 -115 1 0 2 14 3 30 0 17 -3 28 -8 25 -4
-3 -18 11 -30 30 -12 19 -28 35 -36 35 -8 0 -14 -2 -14 -5z"/>
<path d="M380 2470 c0 -33 4 -60 10 -60 6 0 10 27 10 60 0 33 -4 60 -10 60 -6
0 -10 -27 -10 -60z"/>
<path d="M425 2520 c3 -5 8 -10 11 -10 2 0 4 5 4 10 0 6 -5 10 -11 10 -5 0 -7
-4 -4 -10z"/>
<path d="M500 2470 c0 -33 4 -60 10 -60 6 0 10 27 10 60 0 33 -4 60 -10 60 -6
0 -10 -27 -10 -60z"/>
<path d="M651 2468 c1 -68 6 -61 11 15 2 26 0 47 -4 47 -5 0 -7 -28 -7 -62z"/>
<path d="M697 2482 c2 -25 10 -53 18 -62 15 -14 15 -12 10 15 -4 17 -6 42 -6
56 1 15 -5 29 -12 32 -9 3 -12 -7 -10 -41z"/>
<path d="M964 2518 c-7 -12 21 -38 42 -38 13 0 24 -22 24 -51 0 -12 5 -16 15
-13 8 4 15 1 15 -5 0 -6 7 -11 16 -11 8 0 12 5 9 10 -3 6 1 10 9 10 12 0 16
11 16 50 0 38 -4 50 -15 50 -8 0 -15 -6 -15 -12 -1 -8 -6 -6 -14 5 -17 22 -46
22 -46 0 0 -15 -1 -15 -18 0 -22 20 -28 21 -38 5z"/>
<path d="M281 2494 c0 -11 3 -14 6 -6 3 7 2 16 -1 19 -3 4 -6 -2 -5 -13z"/>
<path d="M785 2441 c-3 -5 -1 -12 5 -16 5 -3 10 1 10 9 0 18 -6 21 -15 7z"/>
<path d="M565 2420 c-3 -5 -1 -10 4 -10 6 0 11 5 11 10 0 6 -2 10 -4 10 -3 0
-8 -4 -11 -10z"/>
<path d="M1420 2395 c0 -8 5 -15 11 -15 5 0 7 -6 3 -12 -4 -7 -3 -10 1 -5 16
14 16 47 0 47 -8 0 -15 -7 -15 -15z"/>
<path d="M902 2380 c0 -14 2 -19 5 -12 2 6 2 18 0 25 -3 6 -5 1 -5 -13z"/>
<path d="M1536 2368 c3 -5 10 -6 15 -3 13 9 11 12 -6 12 -8 0 -12 -4 -9 -9z"/>
<path d="M1371 2293 c-10 -26 -10 -27 4 -9 8 11 15 23 15 28 0 15 -7 8 -19
-19z"/>
<path d="M1096 2295 c-3 -8 -1 -15 3 -15 5 0 11 7 15 15 3 8 1 15 -3 15 -5 0
-11 -7 -15 -15z"/>
<path d="M1530 2298 c0 -7 5 -20 10 -28 8 -12 10 -11 10 7 0 12 -4 25 -10 28
-5 3 -10 0 -10 -7z"/>
<path d="M1730 2223 c0 -4 11 -13 25 -20 14 -6 23 -7 19 -2 -8 13 -44 31 -44
22z"/>
<path d="M1736 2175 c4 -8 9 -15 13 -16 3 0 15 -2 26 -4 17 -3 17 -1 -5 15
-30 24 -41 25 -34 5z"/>
<path d="M1710 2171 c0 -6 4 -13 10 -16 6 -3 7 1 4 9 -7 18 -14 21 -14 7z"/>
<path d="M940 2161 c-48 -4 -71 -12 -86 -27 -12 -12 -27 -23 -33 -25 -6 -2
-13 -22 -16 -44 -5 -37 -2 -43 35 -79 22 -21 40 -43 40 -47 0 -5 -13 5 -28 22
-31 35 -52 33 -48 -6 2 -13 -2 -23 -8 -22 -6 1 -9 -10 -8 -27 3 -21 0 -26 -9
-20 -9 5 -10 2 -6 -10 4 -10 7 -21 7 -26 0 -5 9 -12 20 -15 11 -4 18 -11 14
-16 -3 -5 -10 -7 -15 -4 -13 9 -11 -9 3 -23 10 -10 10 -17 -1 -35 -13 -20 -13
-21 3 -8 11 10 15 22 11 38 -6 27 -5 27 82 11 l64 -12 -31 -12 c-39 -17 -42
-59 -5 -76 37 -17 59 5 51 54 -6 36 -5 38 35 57 37 18 40 18 35 3 -6 -16 -5
-16 7 0 12 16 15 16 29 1 9 -8 20 -13 25 -10 14 9 56 98 49 104 -11 12 -48
-37 -41 -55 3 -9 3 -13 -1 -9 -4 4 -14 1 -22 -6 -13 -10 -15 -9 -8 8 17 42 24
75 16 70 -4 -3 -15 -2 -24 1 -14 5 -14 9 -4 22 11 13 10 14 -9 4 -28 -15 -42
-15 -23 1 22 17 52 67 41 67 -5 0 -12 7 -15 16 -3 8 -2 13 3 10 5 -3 11 11 13
32 3 20 1 38 -3 40 -4 2 -6 9 -3 16 6 16 -22 40 -50 42 -11 0 -50 -2 -86 -5z
m45 -31 c-44 -4 -89 -10 -100 -14 -11 -3 -6 0 10 8 19 10 57 15 100 14 l70 -1
-80 -7z m35 -29 c0 -5 -9 -13 -20 -16 -30 -10 -24 -25 10 -25 35 0 36 -5 10
-47 -13 -22 -27 -33 -42 -32 -13 0 -17 3 -10 6 6 2 12 9 12 14 0 15 -27 10
-33 -5 -8 -20 -41 -13 -46 10 -2 10 -7 24 -13 31 -10 12 25 29 40 19 5 -3 17
1 27 8 17 12 16 14 -9 20 -15 4 -24 11 -21 16 8 13 95 13 95 1z m-176 -18
c-10 -7 -23 -13 -28 -12 -6 0 -5 3 2 6 6 2 10 8 8 12 -3 4 4 7 15 7 19 0 19
-1 3 -13z m216 -84 c0 -5 -4 -9 -10 -9 -5 0 -10 7 -10 16 0 8 5 12 10 9 6 -3
10 -10 10 -16z m-220 -49 c8 -5 12 -11 9 -14 -3 -3 -14 1 -25 9 -21 16 -8 20
16 5z"/>
<path d="M990 2010 c0 -5 5 -10 11 -10 5 0 7 5 4 10 -3 6 -8 10 -11 10 -2 0
-4 -4 -4 -10z"/>
<path d="M1281 2160 c0 -8 4 -22 9 -30 12 -18 12 -2 0 25 -6 13 -9 15 -9 5z"/>
<path d="M1491 2144 c0 -11 3 -14 6 -6 3 7 2 16 -1 19 -3 4 -6 -2 -5 -13z"/>
<path d="M727 1874 c-13 -14 22 -84 42 -84 14 0 14 -2 1 -10 -8 -5 -10 -10 -4
-10 23 0 22 14 -2 61 -25 51 -27 53 -37 43z"/>
<path d="M1155 1839 c-4 -6 -5 -12 -2 -15 2 -3 7 2 10 11 7 17 1 20 -8 4z"/>
<path d="M1290 1766 c0 -9 5 -16 10 -16 6 0 10 4 10 9 0 6 -4 13 -10 16 -5 3
-10 -1 -10 -9z"/>
<path d="M1182 1734 c-19 -66 -22 -93 -12 -99 5 -3 10 -15 10 -26 0 -10 5 -19
10 -19 6 0 10 -15 11 -32 0 -27 2 -29 9 -13 6 16 9 12 12 -20 3 -29 6 -35 12
-23 5 11 2 30 -8 49 -16 32 -13 56 3 30 11 -17 23 1 15 22 -3 10 2 18 15 22
12 3 21 12 21 20 0 7 3 22 6 32 5 16 4 16 -8 3 -20 -23 -46 -14 -41 14 3 14
-4 33 -19 51 l-24 27 -12 -38z m80 -88 c7 4 8 2 4 -4 -11 -18 -26 -14 -25 6 0
10 3 12 6 4 2 -6 10 -9 15 -6z"/>
<path d="M680 1685 c-7 -14 -11 -28 -7 -31 3 -4 2 -15 -4 -25 -10 -20 0 -49
17 -52 5 -1 8 -5 7 -9 -2 -5 2 -8 9 -8 6 0 4 -8 -6 -19 -10 -10 -14 -21 -9
-22 13 -6 40 -63 36 -76 -3 -7 -12 -9 -21 -6 -13 4 -14 3 -3 -5 11 -8 11 -11
-2 -18 -13 -8 -13 -11 -1 -22 12 -11 14 -10 14 5 0 15 2 16 11 3 8 -12 10 -12
8 5 -1 11 1 32 6 48 5 18 3 33 -5 42 -11 13 -10 14 5 9 16 -6 17 -3 12 23 -8
38 2 75 17 66 6 -4 -1 8 -16 26 -16 18 -28 41 -28 51 0 9 -6 23 -13 29 -11 8
-17 5 -27 -14z m20 -75 c0 -5 -4 -10 -9 -10 -6 0 -13 5 -16 10 -3 6 1 10 9 10
9 0 16 -4 16 -10z"/>
<path d="M1030 1675 c0 -11 12 -14 50 -12 69 3 69 27 0 27 -37 0 -50 -4 -50
-15z"/>
<path d="M1330 1680 c0 -5 5 -10 11 -10 5 0 7 5 4 10 -3 6 -8 10 -11 10 -2 0
-4 -4 -4 -10z"/>
<path d="M910 1643 c-8 -2 -22 -7 -30 -10 -8 -4 -18 -5 -22 -5 -5 1 -8 -5 -8
-13 0 -14 3 -14 23 -1 12 8 42 17 67 21 36 5 56 1 103 -20 31 -15 63 -25 70
-22 6 2 -6 10 -28 17 -22 7 -49 19 -60 26 -19 14 -85 18 -115 7z"/>
<path d="M824 1591 c-5 -5 -18 -11 -29 -13 -16 -3 -17 -5 -5 -10 16 -6 58 17
49 27 -3 2 -10 1 -15 -4z"/>
<path d="M1320 1589 c0 -5 5 -7 10 -4 6 3 10 8 10 11 0 2 -4 4 -10 4 -5 0 -10
-5 -10 -11z"/>
<path d="M1275 1541 c5 -9 2 -19 -10 -27 -10 -8 -15 -17 -11 -21 4 -4 12 0 17
10 6 9 14 15 20 12 16 -11 10 12 -8 26 -14 12 -16 12 -8 0z"/>
<path d="M960 1514 c0 -25 23 -33 36 -12 4 7 3 8 -4 4 -7 -4 -12 -2 -12 3 0 6
5 11 10 11 19 0 10 16 -10 17 -15 1 -20 -4 -20 -23z"/>
<path d="M1315 1530 c-3 -5 -1 -10 4 -10 6 0 11 5 11 10 0 6 -2 10 -4 10 -3 0
-8 -4 -11 -10z"/>
<path d="M1350 1530 c0 -5 5 -10 10 -10 6 0 10 5 10 10 0 6 -4 10 -10 10 -5 0
-10 -4 -10 -10z"/>
<path d="M930 1508 c0 -15 5 -30 10 -33 13 -8 13 25 0 45 -8 12 -10 9 -10 -12z"/>
<path d="M1016 1505 c-3 -8 -1 -15 4 -15 6 0 10 7 10 15 0 8 -2 15 -4 15 -2 0
-6 -7 -10 -15z"/>
<path d="M1330 1500 c-13 -8 -13 -10 2 -10 9 0 20 5 23 10 8 13 -5 13 -25 0z"/>
<path d="M1040 1471 c0 -17 5 -31 10 -31 6 0 10 6 10 13 0 8 4 7 11 -3 7 -12
9 -8 7 15 -4 43 -38 48 -38 6z"/>
<path d="M976 1470 c-13 -4 -16 -9 -8 -14 7 -4 19 -3 28 2 21 12 5 22 -20 12z"/>
<path d="M1266 1465 c-3 -8 -1 -15 4 -15 6 0 10 7 10 15 0 8 -2 15 -4 15 -2 0
-6 -7 -10 -15z"/>
<path d="M648 1463 c7 -3 16 -2 19 1 4 3 -2 6 -13 5 -11 0 -14 -3 -6 -6z"/>
<path d="M1235 1461 c-8 -13 15 -59 33 -66 28 -10 26 6 -3 29 -16 13 -25 28
-21 34 4 7 5 12 2 12 -3 0 -7 -4 -11 -9z"/>
<path d="M1195 1420 c-3 -5 -1 -10 4 -10 6 0 11 5 11 10 0 6 -2 10 -4 10 -3 0
-8 -4 -11 -10z"/>
<path d="M646 1368 c3 -4 9 -8 15 -8 5 0 9 4 9 8 0 5 -7 9 -15 9 -8 0 -12 -4
-9 -9z"/>
<path d="M1090 1369 c0 -5 9 -9 20 -9 11 0 20 2 20 4 0 2 -9 6 -20 9 -11 3
-20 1 -20 -4z"/>
<path d="M1193 1367 c4 -10 2 -17 -5 -17 -6 0 -9 -3 -5 -6 3 -3 12 -2 20 3 13
7 13 10 -1 23 -14 13 -15 12 -9 -3z"/>
<path d="M851 1352 c-1 -8 -6 -10 -13 -6 -10 5 -10 4 -1 -6 15 -16 28 -8 20
12 -4 11 -6 11 -6 0z"/>
<path d="M943 1343 c-40 -2 -73 -7 -73 -12 0 -4 24 -6 53 -5 28 2 81 4 116 5
35 0 73 5 85 9 22 9 -32 10 -181 3z"/>
<path d="M1226 1331 c-4 -7 -5 -15 -2 -18 9 -9 19 4 14 18 -4 11 -6 11 -12 0z"/>
<path d="M637 1304 c-4 -4 -7 -14 -7 -23 0 -11 3 -12 11 -4 6 6 10 16 7 23 -2
6 -7 8 -11 4z"/>
<path d="M691 1284 c0 -11 3 -14 6 -6 3 7 2 16 -1 19 -3 4 -6 -2 -5 -13z"/>
<path d="M831 1284 c0 -11 3 -14 6 -6 3 7 2 16 -1 19 -3 4 -6 -2 -5 -13z"/>
<path d="M908 1293 c12 -2 30 -2 40 0 9 3 -1 5 -23 4 -22 0 -30 -2 -17 -4z"/>
<path d="M1169 1272 c-1 -4 -1 -10 0 -14 0 -5 -2 -7 -6 -6 -20 4 -113 -16
-113 -24 0 -10 66 -5 77 5 3 4 19 7 33 7 36 0 59 25 30 33 -11 3 -21 2 -21 -1z"/>
<path d="M958 1263 c7 -3 16 -2 19 1 4 3 -2 6 -13 5 -11 0 -14 -3 -6 -6z"/>
<path d="M820 1249 c0 -5 5 -7 10 -4 6 3 10 8 10 11 0 2 -4 4 -10 4 -5 0 -10
-5 -10 -11z"/>
<path d="M930 1229 c-53 -6 -53 -6 22 -7 42 -1 79 2 82 7 6 9 -20 9 -104 0z"/>
<path d="M1389 1219 c13 -10 27 -16 32 -13 15 9 2 21 -28 27 l-28 5 24 -19z"/>
<path d="M640 1200 c0 -5 5 -10 10 -10 6 0 10 5 10 10 0 6 -4 10 -10 10 -5 0
-10 -4 -10 -10z"/>
<path d="M615 1189 c-4 -6 -5 -12 -2 -15 2 -3 7 2 10 11 7 17 1 20 -8 4z"/>
<path d="M939 1185 c42 -19 52 -19 27 0 -11 8 -29 15 -40 15 -16 -1 -12 -5 13
-15z"/>
<path d="M1410 1183 c5 -2 8 -9 4 -14 -3 -5 0 -9 6 -9 15 0 7 23 -8 26 -7 1
-8 0 -2 -3z"/>
<path d="M1400 1146 c0 -2 7 -7 16 -10 8 -3 12 -2 9 4 -6 10 -25 14 -25 6z"/>
<path d="M640 1130 c0 -7 24 -20 36 -20 13 0 1 19 -16 23 -11 3 -20 2 -20 -3z"/>
<path d="M1830 1101 c0 -5 5 -13 10 -16 6 -3 10 -2 10 4 0 5 -4 13 -10 16 -5
3 -10 2 -10 -4z"/>
<path d="M600 1096 c0 -2 16 -6 35 -8 19 -2 35 0 35 4 0 4 -16 8 -35 8 -19 0
-35 -2 -35 -4z"/>
<path d="M900 1060 c40 -31 44 -35 68 -66 12 -15 22 -35 22 -44 2 -63 37 -217
52 -226 4 -3 8 -16 8 -28 0 -26 22 -50 35 -38 5 4 5 1 1 -6 -4 -7 -12 -10 -17
-7 -13 9 -11 0 10 -37 17 -29 24 -63 46 -200 4 -25 1 -38 -7 -41 -10 -3 -11
-9 0 -26 6 -11 12 -28 12 -36 0 -8 5 -16 10 -16 38 -5 49 -16 42 -42 -3 -12
-12 -27 -20 -33 -13 -9 -11 -12 11 -18 25 -6 39 -36 18 -36 -5 0 -18 -3 -28
-6 -10 -3 -7 2 7 10 28 17 19 22 -11 6 -28 -16 -23 -28 14 -33 l32 -4 -34 -1
c-24 -2 -32 -6 -28 -16 6 -14 -25 -30 -52 -26 -8 1 -17 -4 -22 -11 -6 -10 -18
-10 -56 -2 -32 8 -54 8 -66 1 -17 -9 -17 -7 -7 12 9 17 9 25 -1 34 -9 8 -11 7
-6 -6 3 -9 -1 -22 -11 -30 -10 -8 -13 -8 -9 -1 4 6 3 14 -2 18 -5 3 -14 -3
-20 -12 -9 -17 -10 -17 -16 0 -4 9 -11 17 -16 17 -4 0 -6 -7 -2 -16 5 -14 3
-15 -13 -6 -14 8 -27 6 -56 -9 -21 -11 -38 -23 -38 -28 0 -15 29 -33 45 -27 8
3 15 1 15 -4 0 -5 -8 -11 -17 -13 -16 -4 -16 -5 -1 -6 9 0 23 6 31 14 12 12
16 12 20 1 3 -8 25 -13 59 -14 42 -1 48 1 30 9 -13 5 -28 7 -33 3 -5 -3 -15
-2 -21 2 -9 6 -5 10 12 14 14 4 33 2 42 -4 14 -8 21 -6 32 9 11 14 15 16 16 6
0 -11 4 -11 18 2 11 10 35 17 58 17 33 0 40 -3 40 -20 0 -11 -6 -20 -13 -20
-7 0 -10 7 -7 15 5 11 -1 15 -18 15 -30 0 -37 -6 -31 -29 3 -13 15 -17 49 -17
24 0 44 4 44 10 0 6 5 4 10 -4 9 -13 11 -13 20 0 6 10 10 11 10 3 0 -8 15 -12
45 -11 24 1 42 4 39 7 -2 2 3 13 13 23 14 16 14 18 1 18 -9 0 -18 9 -21 19 -4
15 -1 18 12 13 9 -3 21 -12 27 -20 6 -8 17 -12 25 -9 10 4 9 6 -3 6 -27 1 -22
24 10 43 l27 17 -33 1 c-27 0 -32 3 -28 18 5 13 0 18 -16 19 -13 1 -28 10 -36
20 -11 15 -10 18 8 25 18 7 30 41 12 35 -7 -2 -12 6 -12 18 0 3 9 1 20 -5 16
-9 19 -8 13 6 -4 12 -3 15 5 10 15 -9 16 6 1 21 -8 8 -3 13 19 18 22 4 33 15
41 37 14 38 14 41 0 32 -7 -4 -10 7 -9 32 3 63 2 67 -23 62 -17 -3 -23 0 -23
14 0 10 4 18 8 18 5 0 -5 13 -22 30 -33 32 -38 45 -15 36 9 -3 15 0 15 8 0 8
-12 17 -27 21 -27 6 -27 7 -8 21 12 9 21 11 23 4 2 -5 8 -10 13 -10 4 0 6 7 3
15 -4 9 -13 13 -24 10 -9 -3 -23 1 -30 10 -16 19 -30 11 -25 -15 2 -11 0 -20
-6 -20 -5 0 -9 4 -9 10 0 5 -12 13 -27 17 l-28 7 25 7 c23 6 23 7 3 8 -12 1
-25 6 -29 13 -4 6 -3 8 2 5 6 -3 16 -1 24 4 11 6 5 8 -17 4 -25 -4 -35 -1 -43
14 -7 14 -7 20 1 23 17 6 20 58 3 65 -12 4 -11 8 1 26 22 31 19 37 -17 38 -31
0 -32 1 -11 11 21 10 21 12 6 23 -15 11 -15 13 5 24 26 14 20 31 -9 31 -21 0
-26 16 -6 23 6 2 8 8 4 13 -5 5 -15 0 -24 -11 -9 -12 -13 -14 -11 -5 3 8 15
21 29 27 l24 13 -28 0 c-16 0 -26 4 -23 9 3 4 -6 6 -19 3 -18 -3 -25 0 -25 12
0 9 -5 16 -11 16 -6 0 -22 9 -36 20 -14 11 -33 20 -42 20 -12 -1 -10 -6 9 -20z
m133 -150 c3 -11 1 -20 -4 -20 -5 0 -9 9 -9 20 0 11 2 20 4 20 2 0 6 -9 9 -20z
m40 13 c-7 -2 -19 -2 -25 0 -7 3 -2 5 12 5 14 0 19 -2 13 -5z m-3 -113 c0 -5
-4 -10 -10 -10 -5 0 -10 5 -10 10 0 6 5 10 10 10 6 0 10 -4 10 -10z m0 -30 c0
-5 -4 -10 -10 -10 -5 0 -10 5 -10 10 0 6 5 10 10 10 6 0 10 -4 10 -10z m47
-175 c0 -17 -13 -20 -21 -6 -4 5 0 12 6 14 7 3 13 6 14 6 0 1 1 -6 1 -14z
m103 -25 c0 -5 -4 -10 -10 -10 -5 0 -10 5 -10 10 0 6 5 10 10 10 6 0 10 -4 10
-10z m0 -40 c0 -5 -9 -8 -19 -7 -15 1 -17 4 -9 14 11 13 28 9 28 -7z m80 -104
c0 -2 -7 -7 -16 -10 -8 -3 -12 -2 -9 4 6 10 25 14 25 6z m-84 -85 c-4 -2 -12
3 -17 10 -7 11 -9 11 -9 1 0 -10 -3 -10 -13 0 -10 8 -11 16 -4 23 7 8 16 5 31
-10 12 -11 17 -22 12 -24z m4 -85 c0 -3 -4 -8 -10 -11 -5 -3 -10 -1 -10 4 0 6
5 11 10 11 6 0 10 -2 10 -4z m-15 -176 c-3 -5 -19 -10 -34 -10 -15 0 -32 -5
-39 -12 -9 -9 -12 -8 -12 4 0 12 11 18 43 21 23 2 43 4 45 5 2 1 0 -2 -3 -8z
m2 -36 c-3 -3 -12 -4 -19 -1 -8 3 -5 6 6 6 11 1 17 -2 13 -5z m-147 -24 c0 -5
-2 -10 -4 -10 -3 0 -8 5 -11 10 -3 6 -1 10 4 10 6 0 11 -4 11 -10z m170 6 c0
-3 -4 -8 -10 -11 -5 -3 -10 -1 -10 4 0 6 5 11 10 11 6 0 10 -2 10 -4z"/>
<path d="M1340 1061 c-12 -24 -13 -31 -1 -31 5 0 11 11 13 25 6 30 2 32 -12 6z"/>
<path d="M1180 1043 c0 -7 11 -25 25 -40 24 -27 24 -27 25 -5 0 12 -5 22 -11
22 -7 0 -18 8 -25 18 -7 9 -14 12 -14 5z"/>
<path d="M1374 1015 c-3 -13 -13 -30 -22 -37 -13 -11 -15 -10 -10 10 4 12 2
20 -3 17 -5 -4 -8 -20 -6 -37 2 -25 7 -31 30 -34 22 -2 28 2 33 23 5 18 9 21
15 11 7 -10 9 -9 9 5 0 9 -4 17 -10 17 -5 0 -7 8 -4 18 3 9 -2 6 -10 -8 l-16
-25 6 33 c7 37 -3 44 -12 7z"/>
<path d="M602 1010 c0 -14 2 -19 5 -12 2 6 2 18 0 25 -3 6 -5 1 -5 -13z"/>
<path d="M1040 1020 c0 -5 5 -10 11 -10 5 0 7 5 4 10 -3 6 -8 10 -11 10 -2 0
-4 -4 -4 -10z"/>
<path d="M655 970 c-3 -5 -1 -10 4 -10 6 0 11 5 11 10 0 6 -2 10 -4 10 -3 0
-8 -4 -11 -10z"/>
<path d="M580 962 c0 -12 19 -26 26 -19 2 2 -2 10 -11 17 -9 8 -15 8 -15 2z"/>
<path d="M635 940 c-8 -13 3 -30 18 -29 9 0 9 2 0 6 -7 2 -13 9 -13 14 0 6 5
7 12 3 7 -4 8 -3 4 4 -9 15 -13 15 -21 2z"/>
<path d="M1757 934 c-8 -8 1 -24 12 -24 4 0 8 7 8 15 0 16 -9 20 -20 9z"/>
<path d="M1858 913 c7 -3 16 -2 19 1 4 3 -2 6 -13 5 -11 0 -14 -3 -6 -6z"/>
<path d="M0 890 c0 -5 5 -10 11 -10 5 0 7 5 4 10 -3 6 -8 10 -11 10 -2 0 -4
-4 -4 -10z"/>
<path d="M1116 835 c-3 -9 0 -15 9 -15 9 0 12 6 9 15 -4 8 -7 15 -9 15 -2 0
-5 -7 -9 -15z"/>
<path d="M1220 806 c0 -10 -4 -15 -8 -12 -4 2 -14 1 -22 -4 -11 -7 -4 -9 23
-8 40 1 46 8 22 28 -12 10 -15 9 -15 -4z"/>
<path d="M1769 799 c-11 -7 -11 -9 4 -9 9 0 17 -3 17 -7 0 -12 -16 -35 -24
-34 -17 3 -20 0 -7 -8 8 -5 30 -8 48 -5 25 3 33 0 33 -12 0 -11 5 -14 16 -10
9 3 18 6 20 6 2 0 4 11 4 25 0 20 -5 25 -26 25 -14 0 -23 -4 -19 -10 3 -5 -1
-10 -11 -10 -11 0 -15 6 -11 20 6 24 -22 43 -44 29z"/>
<path d="M1188 723 c7 -3 16 -2 19 1 4 3 -2 6 -13 5 -11 0 -14 -3 -6 -6z"/>
<path d="M1165 680 c-3 -5 1 -10 9 -10 9 0 16 5 16 10 0 6 -4 10 -9 10 -6 0
-13 -4 -16 -10z"/>
<path d="M150 672 c0 -4 16 -6 35 -4 19 2 35 6 35 8 0 2 -16 4 -35 4 -19 0
-35 -4 -35 -8z"/>
<path d="M870 650 c-8 -5 -12 -12 -9 -15 4 -3 12 1 19 10 14 17 11 19 -10 5z"/>
<path d="M830 630 c0 -5 5 -10 10 -10 6 0 10 5 10 10 0 6 -4 10 -10 10 -5 0
-10 -4 -10 -10z"/>
<path d="M1740 630 c-9 -6 -10 -10 -3 -10 6 0 15 5 18 10 8 12 4 12 -15 0z"/>
<path d="M1673 575 c0 -8 4 -15 9 -15 4 0 8 7 8 15 0 8 -4 15 -8 15 -5 0 -9
-7 -9 -15z"/>
<path d="M95 560 c3 -5 13 -10 21 -10 8 0 12 -4 9 -10 -10 -16 -45 -12 -45 5
0 8 -4 15 -9 15 -11 0 -23 -29 -16 -40 6 -9 51 -1 82 15 l24 13 -32 11 c-39
14 -42 14 -34 1z"/>
<path d="M935 560 c3 -5 10 -10 16 -10 5 0 9 5 9 10 0 6 -7 10 -16 10 -8 0
-12 -4 -9 -10z"/>
<path d="M6 513 c-6 -14 -5 -15 5 -6 7 7 10 15 7 18 -3 3 -9 -2 -12 -12z"/>
<path d="M779 502 c6 -11 7 -23 3 -28 -4 -5 -1 -4 7 3 7 6 20 9 27 6 26 -10
14 7 -17 22 -29 16 -30 15 -20 -3z"/>
<path d="M68 499 c-10 -5 -18 -16 -18 -24 0 -7 -6 -16 -12 -19 -7 -3 -2 -3 11
0 17 5 21 3 16 -6 -5 -9 -4 -11 4 -6 8 5 9 12 2 19 -7 9 3 11 40 9 30 -3 49 0
49 7 0 6 -7 8 -15 5 -9 -4 -15 0 -15 10 0 18 -35 21 -62 5z"/>
<path d="M25 480 c3 -5 8 -10 11 -10 2 0 4 5 4 10 0 6 -5 10 -11 10 -5 0 -7
-4 -4 -10z"/>
<path d="M847 453 c-4 -6 -21 -14 -37 -18 -50 -11 -34 -26 20 -19 34 5 50 3
50 -5 0 -10 -17 -15 -49 -13 -42 2 -81 -39 -62 -65 3 -4 34 -7 69 -5 45 3 62
8 62 18 0 17 20 19 21 2 0 -7 4 -4 9 7 13 30 12 38 -5 31 -9 -3 -15 0 -15 9 0
8 4 15 10 15 11 0 1 32 -14 42 -5 4 -18 2 -27 -3 -12 -6 -19 -5 -21 3 -3 9 -6
9 -11 1z"/>
<path d="M1150 260 c-8 -5 -10 -10 -5 -10 6 0 17 5 25 10 8 5 11 10 5 10 -5 0
-17 -5 -25 -10z"/>
<path d="M820 245 c-34 -9 -40 -13 -25 -17 18 -5 18 -6 -2 -7 -27 -1 -28 -4
-7 -36 19 -29 40 -34 25 -7 -9 16 -5 18 53 14 50 -3 64 -1 69 11 3 9 -1 21 -9
28 -13 10 -17 10 -25 -2 -7 -11 -9 -9 -9 9 0 24 -5 25 -70 7z"/>
<path d="M1833 204 c4 -4 2 -13 -4 -21 -9 -9 -8 -13 0 -13 6 0 11 5 11 11 0 5
5 7 10 4 6 -3 10 -2 10 3 0 6 -8 13 -17 16 -10 4 -14 4 -10 0z"/>
<path d="M1768 173 c-16 -2 -28 -9 -28 -14 0 -11 29 -7 55 9 21 12 19 12 -27
5z"/>
<path d="M1713 163 c-7 -3 -13 -12 -13 -21 -1 -15 -2 -15 -11 1 -10 18 -11 18
-25 0 -11 -14 -13 -14 -9 -2 5 12 0 16 -22 15 -17 -1 -27 -6 -25 -13 1 -7 3
-18 5 -24 4 -18 -37 -20 -50 -2 -10 13 -9 19 5 29 9 8 12 14 5 14 -6 0 -15 -4
-18 -10 -3 -5 -11 -10 -16 -10 -6 0 -7 5 -3 12 4 7 3 8 -5 4 -6 -4 -8 -12 -5
-18 4 -6 1 -9 -7 -6 -14 5 -49 -32 -49 -51 0 -6 -4 -11 -10 -11 -12 0 -9 22 5
32 6 5 5 8 -2 8 -7 0 -13 7 -13 16 0 9 -5 14 -12 12 -17 -6 -18 -36 -1 -42 8
-3 12 -10 8 -15 -3 -5 0 -13 6 -16 7 -5 2 -12 -13 -19 -25 -14 -51 -10 -42 6
4 6 9 6 14 -2 5 -8 9 -7 13 4 4 9 3 15 -1 15 -18 -3 -32 2 -32 12 0 6 9 8 23
4 19 -5 20 -5 4 5 -19 12 -52 6 -43 -8 3 -5 -1 -9 -9 -9 -8 0 -15 8 -15 18 0
19 -21 17 -48 -4 -11 -9 -10 -12 2 -19 9 -5 21 -6 26 -3 6 3 7 -1 4 -9 -3 -9
-17 -16 -30 -16 -13 0 -24 -5 -24 -10 0 -6 -3 -9 -7 -8 -5 2 -10 -1 -13 -7 -3
-6 17 -11 50 -11 30 -1 45 0 33 3 -13 2 -23 8 -23 12 0 11 77 8 87 -3 4 -5 3
-6 -4 -2 -7 4 -13 2 -13 -4 0 -13 70 -11 88 3 8 6 12 6 12 -2 0 -12 64 -10 77
2 10 11 25 8 18 -4 -5 -7 27 -10 102 -8 89 1 109 4 115 18 6 14 7 14 7 0 1
-11 10 -16 29 -15 23 1 28 5 24 20 -3 13 -1 17 6 12 8 -5 12 1 12 17 0 20 -4
24 -25 22 -16 -2 -25 2 -25 11 0 16 -16 19 -25 4 -9 -15 -32 -12 -32 5 0 14
10 19 30 16 4 0 7 6 7 14 0 18 -12 19 -28 3 -7 -7 -12 -8 -12 -2 0 6 -7 11
-15 11 -8 0 -15 -5 -15 -10 0 -5 -7 -4 -15 3 -13 10 -13 15 -3 21 15 9 8 18
-9 12z m-161 -51 c4 -15 1 -18 -19 -14 -13 2 -26 9 -30 15 -4 6 2 8 15 5 12
-4 20 -2 16 3 -3 5 -1 9 4 9 5 0 12 -8 14 -18z m198 -12 c11 -7 6 -9 -18 -6
-22 2 -35 -1 -39 -10 -3 -8 -9 -11 -15 -8 -14 9 12 34 36 34 11 0 28 -5 36
-10z m-223 -57 c-2 -38 -7 -41 -25 -13 -7 11 -9 20 -5 19 24 -4 25 3 3 16 -14
8 -19 14 -12 15 7 0 10 5 7 11 -4 6 2 5 14 -3 15 -9 20 -21 18 -45z m123 32
c0 -1 -9 -5 -20 -8 -12 -3 -17 -1 -14 5 3 5 -3 4 -14 -3 -11 -7 -28 -9 -38 -5
-18 7 -17 8 5 21 18 9 33 10 53 3 15 -6 28 -11 28 -13z m118 -13 c2 -7 -2 -10
-12 -6 -9 3 -16 11 -16 16 0 13 23 5 28 -10z m-51 -17 c-9 -8 -17 -20 -20 -27
-4 -10 -7 -10 -18 1 -8 8 -9 11 -3 8 7 -4 14 2 17 13 3 11 13 20 22 20 14 0
15 -2 2 -15z m-157 -9 c0 -3 -4 -8 -10 -11 -5 -3 -10 -1 -10 4 0 6 5 11 10 11
6 0 10 -2 10 -4z m167 -18 c-3 -8 -6 -5 -6 6 -1 11 2 17 5 13 3 -3 4 -12 1
-19z"/>
<path d="M1864 133 c2 -12 -1 -24 -8 -26 -6 -2 -9 -7 -6 -10 3 -3 12 -2 20 3
11 7 11 13 2 32 -12 22 -12 22 -8 1z"/>
<path d="M1382 133 c-12 -2 -20 -8 -17 -13 6 -10 45 -1 45 11 0 5 -1 8 -2 8
-2 -1 -13 -4 -26 -6z"/>
<path d="M1470 119 c0 -5 5 -7 10 -4 6 3 10 8 10 11 0 2 -4 4 -10 4 -5 0 -10
-5 -10 -11z"/>
<path d="M1830 119 c0 -5 5 -7 10 -4 6 3 10 8 10 11 0 2 -4 4 -10 4 -5 0 -10
-5 -10 -11z"/>
<path d="M995 30 c-4 -6 -10 -8 -15 -5 -5 3 -11 1 -15 -5 -3 -6 1 -13 10 -16
19 -8 53 20 37 30 -6 3 -13 2 -17 -4z"/>
<path d="M715 20 c-11 -5 -15 -9 -10 -10 54 -8 65 -7 65 1 0 6 -4 7 -10 4 -5
-3 -10 -1 -10 4 0 13 -7 13 -35 1z"/>
<path d="M645 10 c3 -5 11 -10 16 -10 6 0 7 5 4 10 -3 6 -11 10 -16 10 -6 0
-7 -4 -4 -10z"/>
</g>
</svg>
