<?xml version="1.0" standalone="no"?>
<!DOCTYPE svg PUBLIC "-//W3C//DTD SVG 20010904//EN"
 "http://www.w3.org/TR/2001/REC-SVG-20010904/DTD/svg10.dtd">
<svg version="1.0" xmlns="http://www.w3.org/2000/svg"
 width="391.000000pt" height="580.000000pt" viewBox="0 0 391.000000 580.000000"
 preserveAspectRatio="xMidYMid meet">
<metadata>
Created by potrace 1.16, written by Peter Selinger 2001-2019
</metadata>
<g transform="translate(0.000000,580.000000) scale(0.100000,-0.100000)"
fill="#000000" stroke="none">
<path d="M0 3950 c0 -1109 4 -1850 9 -1850 5 0 11 5 13 10 2 6 18 -4 36 -23
l33 -34 -33 -34 c-18 -19 -35 -39 -38 -45 -3 -5 -8 -8 -12 -7 -5 2 -8 -440 -8
-982 l0 -985 1955 0 1955 0 0 1173 c0 1144 0 1173 -19 1189 -11 9 -29 22 -40
28 -12 6 -19 15 -16 20 3 6 0 7 -7 5 -8 -3 -23 2 -33 12 -29 26 -159 111 -218
143 -51 27 -71 50 -45 50 19 0 180 -102 288 -182 l90 -68 0 1715 0 1715 -616
0 -615 -1 7 -137 c6 -121 9 -138 28 -154 l21 -17 -23 6 c-21 5 -23 3 -20 -23
2 -21 8 -29 23 -29 19 0 20 -7 20 -90 0 -83 -6 -197 -22 -412 -4 -56 -2 -83 5
-83 6 0 12 9 14 20 5 31 23 29 26 -3 2 -15 7 -25 12 -22 5 3 11 1 14 -4 7 -10
-41 -24 -54 -16 -6 4 -10 -6 -9 -22 0 -15 3 -22 6 -15 7 17 33 15 33 -2 0 -10
9 -14 27 -13 19 1 28 -3 31 -15 3 -14 -3 -18 -23 -18 -17 0 -24 4 -19 12 4 7
3 8 -4 4 -7 -4 -12 -17 -13 -29 0 -12 -3 -16 -6 -9 -6 14 -33 16 -33 2 0 -5 9
-19 20 -30 11 -11 17 -26 14 -35 -4 -8 -1 -15 4 -15 6 0 12 -10 14 -22 4 -28
48 -53 60 -35 5 8 11 8 16 2 4 -5 21 -10 37 -10 23 -1 31 -6 33 -23 3 -20 0
-22 -40 -19 -49 4 -100 -13 -90 -30 4 -6 34 -13 66 -15 33 -1 61 -8 63 -14 8
-24 -28 -44 -78 -44 -40 0 -49 -3 -50 -17 0 -15 -2 -15 -9 2 -7 17 -9 15 -9
-11 -1 -17 -4 -46 -8 -64 -4 -22 -3 -31 4 -27 16 10 25 -114 13 -168 -9 -40
-8 -49 6 -59 18 -14 15 -52 -4 -48 -7 1 -12 -5 -12 -13 0 -8 4 -15 9 -15 14 0
26 -63 12 -68 -13 -4 -15 -32 -2 -32 11 0 19 -30 14 -47 -3 -7 -16 -13 -30
-13 -33 0 -27 -32 7 -40 23 -5 26 -11 22 -40 -1 -5 -13 -10 -27 -10 -16 0 -25
-6 -25 -15 0 -9 9 -15 24 -15 19 0 24 -6 29 -37 8 -47 3 -53 -39 -53 -19 0
-34 -4 -34 -10 0 -5 17 -10 39 -10 l38 0 6 -82 c10 -120 8 -268 -2 -268 -5 0
-9 -43 -9 -95 -1 -53 -4 -105 -8 -117 -3 -11 -3 -87 2 -167 5 -88 10 -131 14
-108 3 21 8 38 13 37 4 0 12 0 17 0 6 0 9 -12 9 -27 -1 -18 -3 -21 -6 -10 -9
36 -20 6 -12 -35 11 -57 11 -60 -1 -53 -6 3 -10 2 -10 -4 0 -6 -7 -8 -15 -5
-10 4 -15 0 -15 -15 0 -16 8 -23 29 -27 28 -6 28 -8 36 -92 4 -48 7 -105 6
-127 -1 -22 3 -101 8 -175 7 -98 7 -136 -1 -142 -9 -5 -9 -10 -1 -20 6 -7 13
-35 16 -62 4 -44 3 -47 -9 -31 -8 10 -15 24 -15 29 -1 6 -5 -5 -10 -24 -5 -24
-6 -14 -3 33 3 38 2 67 -4 67 -5 0 -14 10 -20 23 -10 17 -11 4 -6 -65 3 -59 2
-88 -5 -88 -6 0 -11 19 -11 44 0 23 -3 71 -7 106 -4 47 -3 61 5 56 7 -4 12 -3
12 3 0 5 8 12 18 15 9 3 4 4 -11 2 -19 -2 -32 3 -42 18 -8 11 -15 16 -15 11
-1 -6 -1 -59 -1 -120 0 -111 -4 -145 -18 -145 -4 0 -13 19 -20 43 -7 23 -18
56 -26 72 -7 17 -18 43 -24 58 -11 27 -20 257 -25 579 -1 75 -5 140 -9 144
-12 12 -8 21 13 27 29 8 26 45 -6 59 -18 8 -30 9 -42 1 -23 -14 -28 -53 -8
-53 13 0 16 -10 15 -42 -2 -61 20 -773 25 -830 3 -27 2 -48 -2 -49 -4 0 -52
-3 -106 -5 l-99 -5 7 129 7 130 -88 103 c-112 133 -113 134 -158 168 -32 24
-43 43 -71 122 -18 52 -33 97 -34 102 0 4 33 7 74 7 82 0 106 6 106 25 0 7 11
20 24 29 14 8 26 26 28 38 2 19 11 24 47 29 47 6 83 37 78 67 -2 14 -23 59
-32 70 -6 7 -60 -21 -86 -46 -27 -25 -40 -50 -20 -38 11 7 33 -18 24 -27 -3
-4 -15 0 -25 9 -16 15 -26 16 -105 4 -49 -8 -106 -14 -127 -14 -37 -1 -40 1
-52 39 -7 22 -15 52 -18 67 -7 29 -90 118 -111 118 -8 0 -17 10 -20 22 -9 27
-53 68 -74 68 -12 -1 -9 -7 10 -23 15 -12 34 -34 44 -49 16 -26 16 -28 1 -28
-10 0 -15 4 -11 9 9 15 -47 53 -72 48 -17 -3 -37 9 -75 44 -52 48 -50 63 6 34
35 -18 42 -19 27 -2 -7 9 -7 17 -1 23 7 7 4 16 -9 28 -17 16 -25 16 -57 6 -30
-10 -38 -10 -45 1 -4 8 -23 15 -41 16 -54 3 -98 15 -92 24 3 5 1 9 -4 9 -5 0
-14 11 -20 24 -6 15 -23 27 -41 31 -17 4 -35 13 -39 22 -7 12 -13 13 -30 4
-30 -16 -33 -14 -22 15 13 32 12 37 0 29 -5 -3 -10 1 -10 9 0 9 -4 16 -10 16
-6 0 -10 27 -10 60 0 33 -4 60 -10 60 -5 0 -7 7 -4 15 4 8 1 15 -5 15 -6 0
-10 16 -10 38 l2 37 7 -35 c5 -25 7 -12 6 45 l-1 80 28 -3 c18 -2 27 2 27 12
0 9 -12 16 -32 18 l-33 3 -10 108 c-6 59 -15 111 -20 115 -6 4 -11 30 -12 57
-2 37 0 45 6 30 5 -11 10 -29 10 -40 1 -18 6 -20 36 -17 20 2 35 10 35 17 0
14 -30 28 -50 23 -7 -2 -15 3 -18 11 -3 10 0 12 12 8 14 -6 16 -3 10 16 -4 12
-11 25 -17 28 -5 4 -10 79 -11 180 l-1 174 -77 0 c-69 0 -78 -2 -78 -18 0 -10
-4 -15 -10 -12 -14 9 -13 52 2 61 6 4 13 3 15 -2 2 -5 37 -8 78 -6 72 3 75 4
75 28 0 21 3 24 21 19 21 -7 22 -6 15 66 -4 41 -9 92 -12 114 -4 31 -3 37 6
25 8 -11 10 5 8 70 l-3 85 28 3 c18 2 27 9 27 21 0 14 -6 17 -30 13 -34 -5
-35 0 -24 81 5 35 11 47 26 49 25 4 24 22 -2 26 -19 3 -29 22 -12 22 5 0 7 32
5 70 -3 47 -1 70 6 70 6 0 12 -19 12 -42 1 -24 5 -56 9 -73 14 -55 11 82 -5
199 -8 60 -17 167 -21 238 -4 70 -7 131 -7 135 -1 5 12 11 29 14 16 4 -80 7
-214 8 l-243 1 5 -32 c15 -94 26 -185 36 -293 6 -66 13 -136 16 -155 2 -19 8
-116 13 -215 5 -99 12 -196 16 -215 5 -29 4 -32 -5 -17 -14 21 -41 255 -39
337 1 30 -7 127 -16 215 -10 88 -23 207 -29 265 l-11 105 -427 3 -427 2 -1
-1850z m1037 1798 c-3 -7 -5 -2 -5 12 0 14 2 19 5 13 2 -7 2 -19 0 -25z m190
16 c-3 -3 -12 -4 -19 -1 -8 3 -5 6 6 6 11 1 17 -2 13 -5z m1503 -34 c0 -5 -4
-10 -10 -10 -5 0 -10 5 -10 10 0 6 5 10 10 10 6 0 10 -4 10 -10z m-1560 -65
c0 -8 -7 -15 -15 -15 -16 0 -20 12 -8 23 11 12 23 8 23 -8z m27 -7 c-3 -8 -6
-5 -6 6 -1 11 2 17 5 13 3 -3 4 -12 1 -19z m30 0 c-3 -8 -6 -5 -6 6 -1 11 2
17 5 13 3 -3 4 -12 1 -19z m1503 -23 c0 -8 -4 -15 -10 -15 -5 0 -10 7 -10 15
0 8 5 15 10 15 6 0 10 -7 10 -15z m-1524 -74 c-4 -6 -18 -11 -32 -11 -31 0
-32 27 -1 32 26 5 42 -6 33 -21z m34 9 c0 -11 -4 -20 -10 -20 -5 0 -10 9 -10
20 0 11 5 20 10 20 6 0 10 -9 10 -20z m-110 -106 c0 -8 -4 -14 -9 -14 -6 0 -9
9 -8 19 1 22 17 18 17 -5z m41 -4 c5 0 9 7 9 15 0 8 7 15 15 15 8 0 15 -9 15
-20 0 -16 -7 -20 -35 -20 -22 0 -35 5 -35 13 0 21 15 31 18 13 2 -9 8 -16 13
-16z m79 10 c0 -11 -4 -20 -10 -20 -5 0 -10 9 -10 20 0 11 5 20 10 20 6 0 10
-9 10 -20z m-636 -5 c3 -8 1 -15 -4 -15 -6 0 -10 7 -10 15 0 8 2 15 4 15 2 0
6 -7 10 -15z m513 -87 c-3 -8 -6 -5 -6 6 -1 11 2 17 5 13 3 -3 4 -12 1 -19z
m30 0 c-3 -8 -6 -5 -6 6 -1 11 2 17 5 13 3 -3 4 -12 1 -19z m53 7 c0 -8 -7
-15 -15 -15 -8 0 -15 7 -15 15 0 8 7 15 15 15 8 0 15 -7 15 -15z m53 0 c4 -8
2 -17 -3 -20 -6 -4 -10 3 -10 14 0 25 6 27 13 6z m57 -15 c0 -5 -2 -10 -4 -10
-3 0 -8 5 -11 10 -3 6 -1 10 4 10 6 0 11 -4 11 -10z m-661 -88 c6 -12 6 -63 0
-143 -9 -123 -15 -212 -24 -363 -3 -51 -1 -84 7 -93 6 -7 9 -16 6 -18 -6 -7
-58 18 -58 28 0 5 4 6 9 3 11 -7 16 56 30 339 6 110 13 209 16 220 6 19 2 20
-47 16 -29 -1 -49 1 -45 5 4 5 26 7 47 5 24 -1 40 2 40 8 0 16 8 13 19 -7z
m-291 1 c-21 -2 -55 -2 -75 0 -21 2 -4 4 37 4 41 0 58 -2 38 -4z m132 -9 c0
-2 -9 -4 -20 -4 -11 0 -20 4 -20 9 0 5 9 7 20 4 11 -3 20 -7 20 -9z m40 6 c0
-5 -7 -10 -16 -10 -8 0 -12 5 -9 10 3 6 10 10 16 10 5 0 9 -4 9 -10z m727 -22
c-3 -7 -5 -2 -5 12 0 14 2 19 5 13 2 -7 2 -19 0 -25z m-1021 -60 c-21 -234
-22 -307 -6 -339 6 -10 9 -35 8 -56 l-1 -38 -6 45 c-10 73 -26 47 -25 -40 1
-64 -2 -80 -14 -80 -12 0 -13 11 -8 63 3 34 8 100 11 147 3 47 7 99 10 115 2
17 7 75 11 130 3 55 8 103 11 108 11 19 14 2 9 -55z m501 20 c-3 -7 -5 -2 -5
12 0 14 2 19 5 13 2 -7 2 -19 0 -25z m-240 -30 c-3 -7 -5 -2 -5 12 0 14 2 19
5 13 2 -7 2 -19 0 -25z m243 -28 c0 -11 5 -20 10 -20 6 0 10 -12 10 -26 0 -14
-4 -23 -10 -19 -5 3 -10 -3 -10 -14 0 -15 4 -19 17 -14 12 5 15 2 10 -10 -3
-9 -3 -18 1 -21 4 -3 9 -20 11 -38 5 -62 7 -73 13 -83 3 -6 9 -39 12 -75 4
-36 14 -92 21 -125 l14 -60 -5 75 c-5 80 9 128 22 74 4 -16 9 -33 12 -39 4 -5
7 -16 7 -25 5 -47 19 -108 31 -132 8 -15 14 -37 13 -50 0 -20 -2 -18 -12 9
-17 46 -25 49 -21 9 3 -47 9 -54 39 -51 21 3 25 -1 25 -23 0 -19 -3 -23 -11
-15 -6 6 -19 9 -28 6 -14 -3 -18 -16 -20 -54 -1 -44 1 -51 24 -61 30 -13 34
-33 5 -25 -18 5 -20 1 -16 -31 3 -21 5 -58 5 -84 1 -31 5 -47 13 -45 15 3 29
-61 15 -70 -5 -3 -8 -2 -5 3 3 5 2 18 -3 29 -5 14 -8 0 -8 -41 -1 -68 3 -78
30 -63 17 9 19 6 19 -30 0 -25 -5 -41 -15 -45 -9 -3 -15 -18 -15 -37 0 -64
-10 -20 -25 111 -9 74 -19 137 -22 140 -3 3 -3 -17 1 -45 16 -132 26 -331 21
-419 -4 -68 -2 -102 6 -112 9 -11 9 -17 -1 -28 -6 -8 -11 -32 -10 -53 3 -55 0
-62 -12 -28 -5 17 -11 118 -13 226 -4 195 -21 370 -51 524 -9 44 -19 83 -22
87 -4 4 -4 42 -1 85 4 54 2 83 -7 93 -7 8 -19 67 -28 130 -9 63 -21 137 -26
163 -6 27 -10 68 -10 93 l0 44 -46 0 c-38 0 -45 3 -42 18 2 11 15 19 37 22
l34 5 -2 93 c-1 59 2 92 8 92 6 0 11 -9 11 -20z m47 -32 c-3 -7 -5 -2 -5 12 0
14 2 19 5 13 2 -7 2 -19 0 -25z m-77 -107 c0 -6 -4 -13 -10 -16 -5 -3 -10 1
-10 9 0 9 5 16 10 16 6 0 10 -4 10 -9z m-540 -53 c0 -5 -9 -8 -20 -8 -20 0
-23 19 -5 32 9 7 25 -9 25 -24z m428 18 c2 -3 2 -12 -1 -21 -7 -17 -67 -19
-252 -9 -97 6 -111 9 -112 25 -2 17 10 18 179 14 100 -3 183 -7 186 -9z m2152
-33 c0 -14 -6 -23 -15 -23 -15 0 -22 50 -8 63 9 10 23 -14 23 -40z m78 9 c3
-19 -1 -22 -32 -22 -26 0 -36 4 -36 16 0 10 6 14 14 11 8 -3 17 1 20 9 8 22
30 12 34 -14z m-1748 -22 c0 -11 -4 -20 -10 -20 -5 0 -10 9 -10 20 0 11 5 20
10 20 6 0 10 -9 10 -20z m-240 -74 c0 -39 -6 -31 -14 19 -5 29 -4 36 3 25 6
-8 11 -28 11 -44z m-362 -11 c0 -16 -2 -15 -8 5 -11 34 -11 60 0 35 5 -11 8
-29 8 -40z m-208 17 c0 -15 -2 -15 -10 -2 -13 20 -13 33 0 25 6 -3 10 -14 10
-23z m2550 8 c0 -5 -4 -10 -9 -10 -6 0 -13 5 -16 10 -3 6 1 10 9 10 9 0 16 -4
16 -10z m-2683 -42 c-3 -7 -5 -2 -5 12 0 14 2 19 5 13 2 -7 2 -19 0 -25z
m1046 -5 c-7 -2 -21 -2 -30 0 -10 3 -4 5 12 5 17 0 24 -2 18 -5z m44 1 c-3 -3
-12 -4 -19 -1 -8 3 -5 6 6 6 11 1 17 -2 13 -5z m-684 -19 c4 -8 2 -17 -3 -20
-6 -4 -10 3 -10 14 0 25 6 27 13 6z m117 -10 c0 -8 -2 -15 -4 -15 -2 0 -6 7
-10 15 -3 8 -1 15 4 15 6 0 10 -7 10 -15z m-213 -32 c-3 -10 -5 -4 -5 12 0 17
2 24 5 18 2 -7 2 -21 0 -30z m2451 -7 c3 -14 -2 -17 -29 -14 -18 2 -35 10 -37
18 -4 12 -3 13 10 2 13 -10 17 -10 22 4 8 20 30 13 34 -10z m-1780 -8 c9 -9
12 -9 12 1 0 19 104 10 108 -10 2 -13 -10 -15 -78 -15 -61 1 -83 -3 -90 -14
-13 -21 -19 -10 -13 23 6 29 38 38 61 15z m-699 -40 c-1 -31 -1 -31 -8 -8 -5
14 -6 28 -4 33 9 15 13 6 12 -25z m-262 -15 c-3 -10 -5 -4 -5 12 0 17 2 24 5
18 2 -7 2 -21 0 -30z m103 5 c0 -25 -3 -29 -10 -18 -13 20 -13 50 0 50 6 0 10
-15 10 -32z m197 -15 c-3 -10 -5 -2 -5 17 0 19 2 27 5 18 2 -10 2 -26 0 -35z
m64 -33 c5 0 9 -8 9 -17 0 -32 -28 19 -34 63 l-5 39 11 -42 c6 -24 15 -43 19
-43z m29 48 c0 -25 -3 -29 -10 -18 -13 20 -13 50 0 50 6 0 10 -15 10 -32z
m130 2 c0 -11 -2 -20 -4 -20 -2 0 -6 9 -9 20 -3 11 -1 20 4 20 5 0 9 -9 9 -20z
m267 -2 c-3 -8 -6 -5 -6 6 -1 11 2 17 5 13 3 -3 4 -12 1 -19z m-934 -36 c3
-24 1 -40 -4 -36 -5 3 -9 24 -9 46 0 51 5 47 13 -10z m704 26 c-3 -8 -6 -5 -6
6 -1 11 2 17 5 13 3 -3 4 -12 1 -19z m547 -30 c3 -13 6 -25 6 -28 0 -3 -22 -6
-50 -6 -42 0 -50 3 -50 18 0 15 5 17 28 12 44 -11 47 -10 44 9 -4 25 15 21 22
-5z m-587 -10 c-3 -8 -6 -5 -6 6 -1 11 2 17 5 13 3 -3 4 -12 1 -19z m330 0
c-3 -8 -6 -5 -6 6 -1 11 2 17 5 13 3 -3 4 -12 1 -19z m1799 5 c-4 -25 -26 -28
-26 -4 0 12 6 21 14 21 8 0 13 -8 12 -17z m-1656 -15 c0 -17 -39 -22 -51 -6
-3 5 -11 -3 -19 -17 -7 -14 -16 -25 -19 -25 -5 0 -6 63 -2 65 1 1 21 1 46 1
36 0 45 -4 45 -18z m1720 12 c0 -5 -5 -10 -11 -10 -5 0 -7 5 -4 10 3 6 8 10
11 10 2 0 4 -4 4 -10z m-2679 -112 c-6 -10 -11 -31 -11 -47 0 -23 4 -28 18
-24 15 4 20 -4 29 -44 l10 -48 8 45 9 45 13 -50 c15 -60 17 -98 3 -90 -5 3
-10 15 -10 26 0 10 -5 19 -11 19 -5 0 -8 -4 -4 -9 12 -20 17 -181 6 -181 -6 0
-11 -17 -12 -37 0 -21 -4 -56 -9 -78 -7 -33 -8 -26 -7 42 1 46 5 83 8 83 4 0
9 7 12 14 4 10 1 13 -9 9 -10 -4 -14 2 -14 22 0 17 4 24 12 19 7 -5 8 -3 3 7
-5 7 -9 35 -10 61 -1 31 -8 54 -21 69 -13 16 -15 23 -6 26 19 7 14 23 -6 23
-17 0 -19 -10 -20 -82 -1 -46 -4 -94 -7 -108 -12 -58 -14 -241 -4 -264 10 -20
8 -28 -6 -42 -15 -16 -17 -30 -12 -101 4 -50 2 -83 -3 -83 -6 0 -10 -21 -11
-47 0 -27 -4 -70 -9 -98 l-7 -50 -2 54 c0 29 6 160 15 290 8 130 13 255 10
279 -3 24 -2 41 2 38 7 -4 32 251 33 324 0 8 3 35 6 60 l6 45 9 -50 c6 -34 6
-56 -1 -67z m38 80 c0 -28 -2 -30 -9 -13 -12 28 -12 45 0 45 6 0 10 -15 9 -32z
m51 -9 c0 -10 -4 -19 -10 -19 -5 0 -10 12 -10 26 0 14 4 23 10 19 6 -3 10 -15
10 -26z m336 4 c-2 -16 -5 -31 -5 -35 -1 -5 -5 -8 -9 -8 -5 0 -8 10 -6 23 1
12 3 28 3 35 1 6 6 12 11 12 6 0 9 -12 6 -27z m-309 -15 c-3 -7 -5 -2 -5 12 0
14 2 19 5 13 2 -7 2 -19 0 -25z m136 12 c3 -11 1 -20 -4 -20 -5 0 -9 9 -9 20
0 11 2 20 4 20 2 0 6 -9 9 -20z m494 -32 c-3 -8 -6 -5 -6 6 -1 11 2 17 5 13 3
-3 4 -12 1 -19z m50 0 c-3 -8 -6 -5 -6 6 -1 11 2 17 5 13 3 -3 4 -12 1 -19z
m2205 4 c3 -9 3 -47 0 -84 -4 -56 -7 -68 -22 -68 -14 0 -18 13 -24 72 -4 47
-3 74 4 76 5 2 8 7 6 11 -3 4 4 7 14 8 10 1 20 -6 22 -15z m33 -71 c-4 -45
-12 -81 -17 -81 -6 0 -7 16 -4 38 3 20 8 59 12 85 10 77 17 46 9 -42z m-2947
46 c3 -12 -4 -17 -22 -17 -29 0 -32 5 -13 25 15 18 31 14 35 -8z m502 2 c0 -5
-4 -9 -10 -9 -5 0 -10 7 -10 16 0 8 5 12 10 9 6 -3 10 -10 10 -16z m2195 -32
c16 -65 14 -88 -11 -97 -39 -15 -47 1 -39 79 9 87 31 95 50 18z m84 6 c-1 -41
-2 -44 -8 -18 -7 28 -4 65 5 65 2 0 3 -21 3 -47z m61 19 c0 -15 -2 -15 -10 -2
-13 20 -13 33 0 25 6 -3 10 -14 10 -23z m-2706 3 c-4 -8 -10 -15 -15 -15 -5 0
-9 7 -9 15 0 8 7 15 15 15 9 0 12 -6 9 -15z m116 0 c0 -8 -4 -15 -10 -15 -5 0
-10 7 -10 15 0 8 5 15 10 15 6 0 10 -7 10 -15z m2774 -72 c5 -14 3 -23 -3 -23
-6 0 -11 7 -11 15 0 8 -5 15 -11 15 -5 0 -9 -8 -8 -17 3 -37 -1 -53 -16 -53
-11 0 -15 13 -15 54 0 30 5 58 10 61 6 3 10 -1 10 -9 0 -9 5 -16 11 -16 6 0
10 10 9 23 -4 39 2 43 9 7 4 -19 11 -45 15 -57z m-2601 48 c10 -10 1 -8 -78
13 -11 3 0 4 24 1 24 -2 48 -8 54 -14z m297 9 c0 -5 -5 -10 -11 -10 -5 0 -7 5
-4 10 3 6 8 10 11 10 2 0 4 -4 4 -10z m29 -72 c1 -19 6 -28 18 -28 19 0 9 -13
-12 -16 -10 -2 -15 7 -15 26 0 15 -2 43 -5 61 -4 29 -3 30 4 9 5 -14 9 -37 10
-52z m-369 22 c11 -7 6 -10 -20 -10 -26 0 -31 3 -20 10 8 5 17 10 20 10 3 0
12 -5 20 -10z m2469 -47 c1 -7 -6 -13 -14 -13 -16 0 -22 50 -8 64 7 7 20 -23
22 -51z m-2825 -33 c4 -34 3 -49 -2 -40 -13 21 -25 117 -13 105 5 -6 12 -35
15 -65z m103 38 c-3 -7 -5 -2 -5 12 0 14 2 19 5 13 2 -7 2 -19 0 -25z m63 2
c0 -18 -5 -30 -13 -30 -9 0 -12 10 -9 30 2 17 8 30 13 30 5 0 9 -13 9 -30z
m519 -17 c1 -7 -3 -13 -9 -13 -5 0 -10 15 -9 33 0 27 2 29 9 12 5 -11 9 -26 9
-32z m-605 0 c14 -92 17 -128 8 -113 -5 8 -12 39 -16 68 -4 29 -9 59 -12 67
-4 8 -2 15 4 15 5 0 13 -17 16 -37z m273 31 c-3 -3 -12 -4 -19 -1 -8 3 -5 6 6
6 11 1 17 -2 13 -5z m116 -1 c4 -3 3 -11 -2 -17 -4 -6 -11 -30 -15 -53 -7 -49
-24 -98 -32 -91 -3 3 0 25 5 49 5 24 13 61 16 82 6 35 14 45 28 30z m-713 -28
c0 -14 -4 -25 -10 -25 -5 0 -10 11 -10 25 0 14 5 25 10 25 6 0 10 -11 10 -25z
m3672 -5 c-2 -17 -9 -33 -15 -37 -6 -4 -8 2 -4 18 4 13 7 30 7 37 0 6 4 12 8
12 5 0 7 -14 4 -30z m-2802 4 c0 -14 -3 -14 -15 -4 -8 7 -15 14 -15 16 0 2 7
4 15 4 8 0 15 -7 15 -16z m180 5 c0 -5 -5 -7 -11 -3 -6 3 -15 0 -20 -7 -7 -11
-9 -10 -9 4 0 10 8 17 20 17 11 0 20 -5 20 -11z m40 7 c0 -2 -7 -6 -15 -10 -8
-3 -15 -1 -15 4 0 6 7 10 15 10 8 0 15 -2 15 -4z m56 -3 c-10 -11 -36 -12 -36
-2 0 5 10 9 22 9 12 0 18 -3 14 -7z m-1069 -65 c-2 -13 -4 -3 -4 22 0 25 2 35
4 23 2 -13 2 -33 0 -45z m222 -38 c1 -53 -17 -16 -23 51 l-6 54 14 -35 c8 -19
15 -51 15 -70z m317 14 c-8 -20 -36 -6 -36 18 0 13 -6 18 -17 16 -10 -2 -18
-12 -18 -22 0 -10 -8 -24 -18 -30 -21 -13 -37 5 -37 44 0 24 3 25 40 22 26 -3
40 0 40 8 0 6 4 9 8 6 4 -2 14 -1 22 4 12 7 16 3 18 -21 2 -17 1 -37 -2 -45z
m34 -9 c-16 -42 -24 -22 -9 22 7 21 14 31 16 22 2 -8 -1 -28 -7 -44z m2130 40
c0 -8 -9 -15 -20 -15 -22 0 -27 15 -7 23 21 9 27 7 27 -8z m-2818 -47 c3 -27
2 -48 -3 -48 -5 0 -9 23 -9 52 0 62 5 60 12 -4z m55 20 c-3 -7 -5 -2 -5 12 0
14 2 19 5 13 2 -7 2 -19 0 -25z m350 10 c-3 -8 -6 -5 -6 6 -1 11 2 17 5 13 3
-3 4 -12 1 -19z m108 -16 c3 -14 4 -27 0 -30 -3 -3 -5 2 -5 11 0 9 -5 19 -12
23 -6 4 -8 3 -5 -3 11 -17 -4 -104 -17 -100 -6 2 -10 16 -9 31 1 15 -2 24 -7
21 -6 -4 -10 -17 -10 -31 0 -13 -4 -24 -10 -24 -5 0 -10 9 -10 21 0 11 -5 29
-10 40 -8 15 -6 24 9 41 16 16 21 18 25 7 13 -41 15 -43 16 -19 1 14 2 28 1
32 0 4 8 6 19 5 11 -1 21 -11 25 -25z m502 6 c-3 -8 -6 -5 -6 6 -1 11 2 17 5
13 3 -3 4 -12 1 -19z m-720 -40 c-3 -8 -6 -5 -6 6 -1 11 2 17 5 13 3 -3 4 -12
1 -19z m773 11 c0 -5 -4 -8 -9 -4 -5 3 -12 -7 -14 -22 -4 -26 -4 -26 -6 5 -1
22 3 32 14 32 8 0 15 -5 15 -11z m47 -36 c-3 -10 -5 -2 -5 17 0 19 2 27 5 18
2 -10 2 -26 0 -35z m83 17 c0 -16 -4 -30 -10 -30 -5 0 -10 14 -10 30 0 17 5
30 10 30 6 0 10 -13 10 -30z m-238 -21 c2 -22 0 -43 -4 -45 -4 -3 -8 5 -9 18
0 13 -2 33 -3 46 -2 12 1 22 5 22 4 0 9 -18 11 -41z m185 4 c-3 -10 -5 -4 -5
12 0 17 2 24 5 18 2 -7 2 -21 0 -30z m-218 1 c3 -16 1 -17 -13 -5 -19 16 -21
34 -3 29 6 -3 14 -13 16 -24z m171 16 c0 -5 -4 -10 -10 -10 -5 0 -10 5 -10 10
0 6 5 10 10 10 6 0 10 -4 10 -10z m2046 -16 c-4 -9 -9 -15 -11 -12 -3 3 -3 13
1 22 4 9 9 15 11 12 3 -3 3 -13 -1 -22z m73 -1 c0 -25 -1 -25 -8 -8 -5 11 -7
23 -4 28 8 14 13 7 12 -20z m-2214 7 c3 -5 1 -10 -4 -10 -6 0 -11 5 -11 10 0
6 2 10 4 10 3 0 8 -4 11 -10z m2245 0 c0 -5 -2 -10 -4 -10 -3 0 -8 5 -11 10
-3 6 -1 10 4 10 6 0 11 -4 11 -10z m-2900 -22 c0 -18 -2 -20 -9 -8 -6 8 -7 18
-5 22 9 14 14 9 14 -14z m2480 11 c0 -4 -9 -9 -20 -12 -12 -3 -20 0 -20 7 0 6
9 12 20 12 11 0 20 -3 20 -7z m-2563 -21 c-3 -8 -6 -5 -6 6 -1 11 2 17 5 13 3
-3 4 -12 1 -19z m43 7 c0 -8 -2 -15 -4 -15 -2 0 -6 7 -10 15 -3 8 -1 15 4 15
6 0 10 -7 10 -15z m84 0 c3 -8 1 -15 -4 -15 -6 0 -10 7 -10 15 0 8 2 15 4 15
2 0 6 -7 10 -15z m2856 -16 c0 -11 -4 -17 -10 -14 -5 3 -10 13 -10 21 0 8 5
14 10 14 6 0 10 -9 10 -21z m-2315 1 c3 -5 -3 -10 -14 -10 -12 0 -21 5 -21 10
0 6 6 10 14 10 8 0 18 -4 21 -10z m-938 -22 c-3 -8 -6 -5 -6 6 -1 11 2 17 5
13 3 -3 4 -12 1 -19z m776 -3 c-7 -21 -13 -19 -13 6 0 11 4 18 10 14 5 -3 7
-12 3 -20z m-413 5 c0 -5 -5 -10 -11 -10 -5 0 -7 5 -4 10 3 6 8 10 11 10 2 0
4 -4 4 -10z m45 -69 c-7 -6 -22 64 -16 74 3 6 9 -8 12 -30 4 -22 5 -42 4 -44z
m-375 20 c0 -28 -4 -53 -10 -56 -6 -3 -9 16 -8 50 2 68 18 74 18 6z m127 27
c-3 -8 -6 -5 -6 6 -1 11 2 17 5 13 3 -3 4 -12 1 -19z m123 8 c0 -8 3 -21 6
-30 3 -9 2 -16 -4 -16 -5 0 -12 14 -14 30 -3 17 -1 30 4 30 4 0 8 -6 8 -14z
m40 -16 c0 -16 -2 -30 -4 -30 -2 0 -6 14 -8 30 -3 17 -1 30 4 30 4 0 8 -13 8
-30z m2630 5 c0 -8 -4 -15 -10 -15 -5 0 -7 7 -4 15 4 8 8 15 10 15 2 0 4 -7 4
-15z m159 -2 c-1 -10 -5 -29 -9 -43 -7 -21 -8 -19 -9 18 -1 23 4 42 9 42 6 0
10 -8 9 -17z m-2739 -26 c0 -5 -4 -5 -10 -2 -5 3 -10 14 -10 23 0 15 2 15 10
2 5 -8 10 -19 10 -23z m295 -4 c-6 -41 -15 -57 -15 -27 0 24 11 64 17 64 2 0
2 -17 -2 -37z m98 -257 c-2 -276 -2 -285 17 -291 23 -7 27 -25 6 -25 -35 0
-38 24 -37 296 0 226 4 304 14 304 1 0 1 -128 0 -284z m344 262 c-3 -8 -6 -5
-6 6 -1 11 2 17 5 13 3 -3 4 -12 1 -19z m83 7 c5 3 11 2 14 -3 2 -4 -4 -9 -15
-9 -12 -1 -19 4 -18 15 0 11 2 12 6 4 2 -6 9 -10 13 -7z m1807 -7 c-3 -8 -6
-5 -6 6 -1 11 2 17 5 13 3 -3 4 -12 1 -19z m-2549 -43 c-3 -68 -18 -73 -18 -7
0 43 5 62 17 62 2 0 2 -25 1 -55z m550 -5 c0 -9 -3 -7 -8 5 -5 11 -8 29 -8 40
0 16 2 15 8 -5 4 -14 8 -32 8 -40z m92 50 c0 -5 -9 -10 -21 -10 -11 0 -17 5
-14 10 3 6 13 10 21 10 8 0 14 -4 14 -10z m2159 -12 c10 -27 2 -46 -10 -27 -6
9 -9 1 -9 -24 0 -23 -4 -36 -10 -32 -14 8 -13 46 3 78 15 33 15 33 26 5z
m-2759 -13 c0 -8 -4 -17 -10 -20 -6 -4 -10 5 -10 20 0 15 4 24 10 20 6 -3 10
-12 10 -20z m50 4 c0 -11 -4 -17 -10 -14 -5 3 -10 13 -10 21 0 8 5 14 10 14 6
0 10 -9 10 -21z m2507 -11 c-3 -8 -6 -5 -6 6 -1 11 2 17 5 13 3 -3 4 -12 1
-19z m-234 -15 c-7 -2 -21 -2 -30 0 -10 3 -4 5 12 5 17 0 24 -2 18 -5z m145
-18 c-1 -14 -8 -25 -15 -25 -7 0 -13 11 -13 25 0 15 6 25 15 25 10 0 14 -9 13
-25z m-2481 -17 c-3 -8 -6 -5 -6 6 -1 11 2 17 5 13 3 -3 4 -12 1 -19z m470 0
c-3 -8 -6 -5 -6 6 -1 11 2 17 5 13 3 -3 4 -12 1 -19z m-705 -10 c-7 -7 -12 -8
-12 -2 0 14 12 26 19 19 2 -3 -1 -11 -7 -17z m135 0 c-3 -8 -6 -5 -6 6 -1 11
2 17 5 13 3 -3 4 -12 1 -19z m277 -134 c-5 -109 -4 -145 5 -140 7 5 11 -1 11
-16 0 -19 -2 -20 -11 -8 -12 17 -6 -202 6 -232 4 -10 3 -18 -2 -18 -11 0 -13
-16 -17 -155 -1 -55 1 -102 5 -105 10 -8 17 -137 8 -151 -6 -10 -9 -5 -9 16 0
17 -4 41 -8 55 -4 16 -9 -16 -13 -90 -3 -63 -4 99 -1 360 2 261 6 486 8 500 1
14 3 49 3 78 1 30 6 52 12 52 7 0 8 -44 3 -146z m143 124 c-3 -8 -6 -5 -6 6
-1 11 2 17 5 13 3 -3 4 -12 1 -19z m2460 -10 c-3 -8 -6 -5 -6 6 -1 11 2 17 5
13 3 -3 4 -12 1 -19z m-2655 -15 c3 -15 2 -85 -2 -196 -1 -10 -7 -16 -13 -14
-7 2 -11 13 -9 23 1 10 2 61 2 112 0 50 4 92 9 92 5 0 10 -8 13 -17z m396 -48
c0 -25 -5 -45 -10 -45 -4 0 -8 20 -8 45 0 25 5 45 10 45 6 0 9 -20 8 -45z
m2232 35 c0 -5 -4 -10 -10 -10 -5 0 -10 5 -10 10 0 6 5 10 10 10 6 0 10 -4 10
-10z m-2072 -23 c7 -5 12 -4 12 2 0 6 5 11 10 11 6 0 10 -15 10 -33 0 -31 -3
-34 -30 -34 -25 0 -30 4 -31 26 l-1 26 -7 -25 c-7 -24 -15 -26 -73 -21 -17 1
-26 40 -12 54 8 8 106 3 122 -6z m1795 -2 c-3 -9 -8 -14 -10 -11 -3 3 -2 9 2
15 9 16 15 13 8 -4z m-2503 -50 c0 -30 -4 -55 -10 -55 -11 0 -14 93 -3 103 12
12 13 8 13 -48z m95 46 c3 -5 1 -12 -5 -16 -5 -3 -10 1 -10 9 0 18 6 21 15 7z
m-333 -83 c-3 -10 -9 -18 -14 -18 -6 0 -8 10 -4 23 3 12 6 36 7 52 2 29 2 29
8 -5 4 -19 5 -43 3 -52z m45 45 c-3 -10 -5 -4 -5 12 0 17 2 24 5 18 2 -7 2
-21 0 -30z m217 -15 c-9 -71 -14 -73 -14 -5 0 33 4 57 10 57 7 0 8 -19 4 -52z
m-184 -18 c0 -5 -5 -10 -11 -10 -5 0 -7 5 -4 10 3 6 8 10 11 10 2 0 4 -4 4
-10z m-123 -67 c-3 -10 -5 -4 -5 12 0 17 2 24 5 18 2 -7 2 -21 0 -30z m30 -5
c-3 -7 -5 -2 -5 12 0 14 2 19 5 13 2 -7 2 -19 0 -25z m950 10 c-3 -8 -6 -5 -6
6 -1 11 2 17 5 13 3 -3 4 -12 1 -19z m30 -10 c-3 -7 -5 -2 -5 12 0 14 2 19 5
13 2 -7 2 -19 0 -25z m-877 -4 c0 -31 -23 -28 -28 4 -2 15 2 22 12 22 11 0 16
-9 16 -26z m-61 -21 c-1 -34 -2 -35 -9 -13 -11 36 -11 50 0 50 6 0 10 -17 9
-37z m990 5 c0 -31 -1 -31 -10 -10 -5 13 -7 28 -3 33 10 16 14 9 13 -23z
m-774 -17 c-3 -10 -1 -30 4 -44 6 -15 6 -37 1 -54 -8 -27 -8 -26 -10 12 -1 32
-3 36 -10 20 -6 -15 -9 -9 -9 27 -1 41 4 52 27 57 2 1 1 -7 -3 -18z m142 -36
c0 -8 -6 -15 -14 -15 -14 0 -17 12 -6 23 11 11 20 8 20 -8z m641 -80 c-1 -31
-16 35 -16 70 0 25 2 24 9 -10 4 -22 8 -49 7 -60z m-561 23 c-3 -8 -6 -5 -6 6
-1 11 2 17 5 13 3 -3 4 -12 1 -19z m-490 -35 c-3 -10 -5 -2 -5 17 0 19 2 27 5
18 2 -10 2 -26 0 -35z m413 10 c0 -36 -14 -73 -24 -63 -8 8 6 100 15 100 5 0
9 -17 9 -37z m-443 -55 c-3 -8 -6 -5 -6 6 -1 11 2 17 5 13 3 -3 4 -12 1 -19z
m292 -73 c-5 -13 -8 0 -7 40 0 56 1 58 8 20 4 -22 4 -49 -1 -60z m2477 58
c-11 -11 -19 6 -11 24 8 17 8 17 12 0 3 -10 2 -21 -1 -24z m109 18 c3 -5 1
-12 -4 -15 -5 -3 -11 1 -15 9 -6 16 9 21 19 6z m-1805 -77 c0 -21 -4 -33 -10
-29 -5 3 -10 19 -10 36 0 16 5 29 10 29 6 0 10 -16 10 -36z m1605 17 c3 -5 1
-12 -5 -16 -5 -3 -10 1 -10 9 0 18 6 21 15 7z m-2075 -13 c0 -7 2 -94 5 -193
3 -139 2 -170 -6 -135 -6 25 -14 52 -19 61 -5 10 -4 21 2 27 6 6 8 58 6 131
-1 67 0 121 5 121 4 0 7 -6 7 -12z m2180 -9 c0 -5 -4 -9 -10 -9 -5 0 -10 7
-10 16 0 8 5 12 10 9 6 -3 10 -10 10 -16z m-2100 2 c0 -6 -4 -13 -10 -16 -5
-3 -10 1 -10 9 0 9 5 16 10 16 6 0 10 -4 10 -9z m-40 -5 c0 -3 -4 -8 -10 -11
-5 -3 -10 -1 -10 4 0 6 5 11 10 11 6 0 10 -2 10 -4z m2223 -19 c-4 -7 -9 -20
-10 -31 -4 -25 -22 -56 -23 -37 0 27 23 90 32 85 4 -3 5 -11 1 -17z m-45 -19
c-2 -13 -9 -22 -17 -20 -9 2 -11 -3 -7 -14 5 -14 4 -15 -8 -5 -8 7 -12 19 -9
27 3 8 0 14 -6 14 -6 0 -11 -9 -11 -19 0 -24 -26 -35 -34 -15 -12 32 -6 43 24
42 17 -1 33 2 37 5 15 16 34 6 31 -15z m-2388 2 c0 -5 -4 -10 -10 -10 -5 0
-10 5 -10 10 0 6 5 10 10 10 6 0 10 -4 10 -10z m-499 -58 c-9 -25 -9 -24 -10
18 0 36 2 41 10 27 7 -12 7 -27 0 -45z m86 26 c-3 -7 -5 -2 -5 12 0 14 2 19 5
13 2 -7 2 -19 0 -25z m264 -91 c-13 -13 -15 63 -3 103 5 19 8 10 10 -34 2 -32
-2 -64 -7 -69z m799 75 c0 -15 -2 -15 -10 -2 -13 20 -13 33 0 25 6 -3 10 -14
10 -23z m-654 -9 c-10 -10 -19 5 -10 18 6 11 8 11 12 0 2 -7 1 -15 -2 -18z
m96 -78 c-9 -14 -19 45 -13 70 4 14 7 8 12 -20 4 -22 4 -44 1 -50z m-595 -17
c-2 -13 -4 -3 -4 22 0 25 2 35 4 23 2 -13 2 -33 0 -45z m1165 25 c4 -33 -24
-153 -34 -153 -5 0 -8 39 -8 86 0 54 4 83 10 79 6 -3 10 -1 10 4 0 24 19 9 22
-16z m-668 -28 c4 -26 3 -52 -3 -62 -11 -20 -12 -20 -15 55 -3 64 9 69 18 7z
m583 23 c-3 -8 -6 -5 -6 6 -1 11 2 17 5 13 3 -3 4 -12 1 -19z m32 -37 c1 -35
-5 -22 -12 24 -5 28 -4 34 3 20 5 -11 9 -31 9 -44z m1682 18 c-9 -23 -10 -22
-10 11 -1 23 2 31 9 24 7 -7 7 -19 1 -35z m-1801 -11 c0 -25 -3 -29 -10 -18
-13 20 -13 50 0 50 6 0 10 -15 10 -32z m-632 -41 c2 -10 -3 -17 -12 -17 -10 0
-16 9 -16 21 0 24 23 21 28 -4z m-365 -42 c-3 -9 -8 -14 -10 -11 -3 3 -2 9 2
15 9 16 15 13 8 -4z m177 5 c0 -5 -2 -10 -4 -10 -3 0 -8 5 -11 10 -3 6 -1 10
4 10 6 0 11 -4 11 -10z m95 0 c-3 -5 -11 -10 -16 -10 -6 0 -7 5 -4 10 3 6 11
10 16 10 6 0 7 -4 4 -10z m50 0 c-3 -5 -14 -10 -23 -9 -14 0 -13 2 3 9 27 11
27 11 20 0z m47 -15 c-2 -14 -6 -25 -8 -25 -2 0 -4 11 -4 25 0 14 4 25 9 25 4
0 6 -11 3 -25z m648 15 c0 -5 -6 -10 -12 -10 -7 0 -26 -7 -41 -15 -15 -8 -25
-9 -21 -4 3 6 20 17 38 25 38 16 36 16 36 4z m324 4 c9 -3 13 -10 10 -15 -8
-14 -21 -11 -28 6 -6 17 -4 18 18 9z m-1199 -32 c-12 -12 -33 -10 -28 3 2 8
11 11 19 8 8 -3 12 -8 9 -11z m885 0 c0 -9 -61 -34 -68 -28 -4 4 46 33 61 35
4 1 7 -3 7 -7z m275 -2 c3 -5 1 -10 -4 -10 -6 0 -11 5 -11 10 0 6 2 10 4 10 3
0 8 -4 11 -10z m-1308 -97 c-2 -21 -4 -6 -4 32 0 39 2 55 4 38 2 -18 2 -50 0
-70z m629 72 c-3 -8 0 -15 7 -16 9 0 9 -2 0 -5 -8 -4 -10 -16 -6 -36 4 -22 3
-29 -5 -24 -13 8 -17 78 -5 89 11 12 15 8 9 -8z m424 7 c0 -8 -43 -32 -57 -32
-8 0 41 39 50 40 4 0 7 -4 7 -8z m99 -89 c1 -23 7 -44 14 -46 6 -3 7 -6 1 -6
-6 -1 -21 10 -34 24 -19 20 -21 27 -10 40 7 8 10 25 6 38 -3 13 -2 27 2 31 9
10 20 -29 21 -81z m-89 57 c0 -5 -5 -10 -11 -10 -5 0 -7 5 -4 10 3 6 8 10 11
10 2 0 4 -4 4 -10z m-368 -69 c-4 -11 -8 -9 -15 7 -5 11 -6 29 -2 39 7 16 9
15 15 -7 4 -14 4 -31 2 -39z m-325 2 c-3 -10 -5 -2 -5 17 0 19 2 27 5 18 2
-10 2 -26 0 -35z m689 10 c-10 -10 -19 5 -10 18 6 11 8 11 12 0 2 -7 1 -15 -2
-18z m1821 -15 c-3 -8 -6 -5 -6 6 -1 11 2 17 5 13 3 -3 4 -12 1 -19z m-2720
-40 c-3 -7 -5 -2 -5 12 0 14 2 19 5 13 2 -7 2 -19 0 -25z m550 10 c-3 -8 -6
-5 -6 6 -1 11 2 17 5 13 3 -3 4 -12 1 -19z m-712 3 c3 -5 1 -12 -5 -16 -5 -3
-10 1 -10 9 0 18 6 21 15 7z m2735 2 c0 -5 -4 -14 -9 -21 -7 -11 -9 -11 -14 1
-3 8 -3 18 0 21 9 8 23 7 23 -1z m-1045 -13 c3 -5 -3 -10 -14 -10 -12 0 -21 5
-21 10 0 6 6 10 14 10 8 0 18 -4 21 -10z m-1338 -6 c-3 -3 -12 -4 -19 -1 -8 3
-5 6 6 6 11 1 17 -2 13 -5z m240 -41 c-3 -10 -5 -2 -5 17 0 19 2 27 5 18 2
-10 2 -26 0 -35z m63 11 c0 -8 -4 -14 -10 -14 -5 0 -10 9 -10 21 0 11 5 17 10
14 6 -3 10 -13 10 -21z m1029 -7 c-2 -2 -12 -9 -21 -16 -15 -11 -18 -11 -18 1
0 7 10 14 21 15 12 1 20 1 18 0z m112 -41 c12 -15 19 -30 15 -33 -3 -3 4 -17
14 -31 11 -13 20 -29 20 -35 0 -6 -6 -3 -13 6 -11 15 -17 16 -47 6 -19 -7 -45
-19 -57 -27 -21 -13 -23 -13 -23 2 0 9 6 16 14 16 8 0 18 5 21 10 4 6 3 10 -2
9 -25 -4 -42 4 -57 26 -17 25 -17 26 21 43 l38 17 -35 4 -35 5 40 6 c57 8 61
7 86 -24z m954 -16 c3 -5 1 -10 -4 -10 -6 0 -11 5 -11 10 0 6 2 10 4 10 3 0 8
-4 11 -10z m-2378 -57 c-3 -10 -5 -2 -5 17 0 19 2 27 5 18 2 -10 2 -26 0 -35z
m978 -57 c31 -41 61 -76 67 -78 8 -3 8 -25 0 -84 -18 -126 -23 -351 -9 -361 7
-6 59 -20 117 -32 58 -13 110 -27 116 -32 20 -16 26 -78 13 -135 -10 -43 -10
-59 0 -78 13 -24 7 -66 -10 -66 -5 0 -14 -20 -20 -45 l-11 -45 -89 0 -88 0 -6
48 c-10 71 -11 71 -30 10 -18 -57 -38 -75 -43 -40 -2 9 -5 47 -8 85 -3 37 -10
65 -15 61 -5 -3 -9 -12 -9 -21 0 -26 -42 -133 -50 -128 -4 2 -5 16 -2 30 2 14
0 31 -6 38 -5 6 -13 45 -17 85 -4 39 -11 72 -16 72 -5 0 -9 -7 -9 -15 0 -9 -9
-33 -20 -55 -14 -27 -20 -59 -20 -105 0 -37 -4 -65 -10 -65 -5 0 -9 3 -9 8 1
4 1 21 0 37 l-2 30 -13 -30 c-7 -16 -11 -33 -9 -37 2 -5 -1 -8 -6 -8 -11 0
-16 20 -13 50 1 8 3 137 4 287 l3 271 29 6 c15 3 32 4 36 1 7 -4 4 -311 -4
-365 -4 -23 -3 -24 10 -5 8 10 14 25 14 32 0 7 6 12 13 11 9 -2 13 55 17 247
l5 250 32 74 c36 84 33 102 -19 120 l-33 12 30 19 c17 11 31 20 32 20 1 0 27
-33 58 -74z m945 34 c-19 -12 -30 -12 -30 -1 0 10 31 20 40 14 2 -2 -2 -8 -10
-13z m-1740 -40 c0 -22 -3 -40 -8 -40 -4 0 -6 18 -4 40 2 22 6 40 8 40 2 0 4
-18 4 -40z m140 -40 c5 0 12 5 15 10 10 16 25 12 25 -6 0 -10 -6 -14 -15 -10
-8 3 -15 1 -15 -4 0 -6 -9 -10 -20 -10 -12 0 -17 5 -14 13 3 8 -5 19 -18 25
l-23 12 23 -6 c19 -4 22 -1 24 23 1 21 2 19 5 -9 2 -21 8 -38 13 -38z m1157
38 c7 -6 13 -17 13 -25 0 -13 -3 -13 -15 -3 -10 9 -15 9 -15 1 0 -6 -6 -11
-14 -11 -8 0 -18 -4 -21 -10 -4 -6 10 -9 36 -8 31 1 45 -4 55 -17 20 -27 17
-38 -8 -31 -87 25 -135 36 -154 36 -16 0 -21 5 -19 18 1 9 7 16 12 15 4 -1 21
-5 37 -9 22 -5 28 -4 24 7 -3 8 -13 15 -24 15 -10 1 -27 2 -36 3 -27 2 -22 16
10 27 32 12 101 7 119 -8z m-1077 -31 c0 -5 -7 -2 -15 7 -8 8 -15 20 -15 27 0
14 29 -20 30 -34z m400 33 c0 -5 -9 -10 -20 -10 -11 0 -20 5 -20 10 0 6 9 10
20 10 11 0 20 -4 20 -10z m724 -40 c5 -17 4 -20 -2 -10 -5 8 -13 26 -16 40 -5
17 -4 20 2 10 5 -8 13 -26 16 -40z m-812 14 c-4 -22 -6 -24 -14 -10 -9 16 -3
36 11 36 5 0 6 -12 3 -26z m1193 -4 c-3 -5 -11 -10 -16 -10 -6 0 -7 5 -4 10 3
6 11 10 16 10 6 0 7 -4 4 -10z m-1046 -53 c12 -15 12 -17 -3 -11 -9 3 -16 13
-16 22 0 8 1 13 3 11 1 -2 9 -12 16 -22z m41 9 c0 -8 -4 -17 -9 -20 -10 -7
-23 19 -14 28 11 11 23 6 23 -8z m-610 -16 c0 -5 -4 -10 -10 -10 -5 0 -10 5
-10 10 0 6 5 10 10 10 6 0 10 -4 10 -10z m535 0 c3 -5 1 -10 -4 -10 -6 0 -11
5 -11 10 0 6 2 10 4 10 3 0 8 -4 11 -10z m-520 -137 l5 -88 -15 85 c-8 47 -14
94 -14 105 0 18 0 19 10 3 5 -10 12 -57 14 -105z m-133 45 c3 -26 2 -45 -3
-42 -5 3 -9 26 -9 51 0 58 6 53 12 -9z m685 -35 c-2 -16 -4 -5 -4 22 0 28 2
40 4 28 2 -13 2 -35 0 -50z m-717 -25 c0 -19 -16 -5 -17 14 -2 18 0 20 7 8 5
-8 10 -18 10 -22z m200 5 c0 -19 -3 -24 -10 -17 -6 6 -8 18 -4 27 9 24 14 21
14 -10z m-168 -78 c-3 -39 -8 -62 -11 -52 -6 16 -11 15 -46 -13 -22 -18 -53
-39 -70 -47 -50 -26 -194 -153 -269 -238 -39 -44 -74 -80 -78 -79 -4 1 -12 2
-17 3 -5 0 -11 11 -14 22 -4 17 6 35 42 73 27 28 61 65 75 82 62 75 312 264
349 264 8 0 17 -6 19 -12 3 -7 8 7 12 31 10 63 14 47 8 -34z m658 24 c0 -17
-4 -28 -10 -24 -5 3 -10 17 -10 31 0 13 5 24 10 24 6 0 10 -14 10 -31z m27
-41 c-3 -8 -6 -5 -6 6 -1 11 2 17 5 13 3 -3 4 -12 1 -19z m2239 -36 c-4 -3
-14 2 -24 12 -16 18 -16 18 6 6 13 -6 21 -14 18 -18z m-2739 -24 c-3 -7 -5 -2
-5 12 0 14 2 19 5 13 2 -7 2 -19 0 -25z m2080 -10 c-3 -7 -5 -2 -5 12 0 14 2
19 5 13 2 -7 2 -19 0 -25z m-1700 -20 c-3 -7 -5 -2 -5 12 0 14 2 19 5 13 2 -7
2 -19 0 -25z m-559 -19 c-3 -8 -7 -3 -11 10 -4 17 -3 21 5 13 5 -5 8 -16 6
-23z m163 -34 c8 -28 8 -29 -6 -11 -8 11 -15 31 -14 45 1 26 3 23 20 -34z
m167 -15 c1 -27 -1 -40 -6 -32 -6 9 -18 1 -43 -30 -49 -62 -89 -121 -89 -135
0 -7 -6 -16 -14 -20 -7 -4 -21 -23 -30 -40 -9 -18 -21 -33 -26 -33 -6 0 -9 -3
-9 -7 3 -19 -2 -34 -10 -29 -5 3 -8 -6 -8 -20 0 -43 -18 -46 -21 -4 -3 45 41
142 112 243 23 34 55 84 71 110 21 37 33 47 49 45 17 -2 21 -11 24 -48z m229
-12 c-2 -13 -4 -3 -4 22 0 25 2 35 4 23 2 -13 2 -33 0 -45z m2008 3 c98 -119
210 -290 203 -311 -1 -5 -21 20 -44 58 -22 37 -46 66 -53 64 -7 -1 -10 2 -6 8
8 13 -43 83 -54 76 -4 -3 -18 9 -31 27 l-23 32 29 -25 29 -25 -24 28 c-14 15
-30 27 -37 27 -7 0 -16 5 -20 12 -4 7 -3 8 4 4 8 -4 10 -2 6 8 -3 8 -11 13
-17 11 -7 -3 -20 2 -30 9 -15 12 -17 18 -7 36 11 21 12 21 33 3 12 -10 31 -29
42 -42z m-298 -33 c-2 -13 -4 -3 -4 22 0 25 2 35 4 23 2 -13 2 -33 0 -45z
m-2088 -30 c1 -5 -3 -8 -9 -8 -5 0 -10 12 -9 28 0 24 1 25 9 7 5 -11 9 -23 9
-27z m378 -30 c-2 -13 -4 -5 -4 17 -1 22 1 32 4 23 2 -10 2 -28 0 -40z m-31
-2 c3 -8 -6 -32 -20 -53 -14 -21 -26 -44 -26 -51 0 -13 -26 -58 -47 -80 -7 -7
-13 -18 -13 -23 0 -6 -11 -26 -24 -46 l-25 -36 -6 36 c-6 28 -3 40 14 58 12
13 21 29 21 37 0 8 17 42 37 75 58 97 77 114 89 83z m1762 -8 c25 -27 56 -70
117 -160 36 -54 43 -71 36 -89 -8 -23 -8 -23 -24 7 -9 17 -33 53 -53 80 -20
26 -40 59 -44 73 -3 14 -12 26 -18 26 -20 0 -62 53 -56 69 8 21 17 20 42 -6z
m-2307 -180 c-3 -127 -11 -125 -11 2 0 57 3 100 6 97 4 -3 6 -48 5 -99z m579
82 c0 -5 -4 -10 -10 -10 -5 0 -10 5 -10 10 0 6 5 10 10 10 6 0 10 -4 10 -10z
m951 -75 c36 -9 51 -54 38 -116 l-11 -49 -51 0 c-29 -1 -85 -2 -125 -3 -39 -1
-72 1 -72 5 0 6 60 196 75 236 3 9 22 2 62 -27 32 -22 69 -43 84 -46z m-248
-172 c-7 -2 -19 -2 -25 0 -7 3 -2 5 12 5 14 0 19 -2 13 -5z m-153 -73 c0 -6
-24 -10 -57 -10 -66 0 -56 15 12 19 26 1 45 -2 45 -9z m50 0 c0 -5 -9 -10 -20
-10 -11 0 -20 5 -20 10 0 6 9 10 20 10 11 0 20 -4 20 -10z m156 -2 c-75 -6
-112 -6 -119 1 -8 8 24 11 109 10 l119 -2 -109 -9z m382 5 c-16 -2 -40 -2 -55
0 -16 2 -3 4 27 4 30 0 43 -2 28 -4z m59 1 c-3 -3 -12 -4 -19 -1 -8 3 -5 6 6
6 11 1 17 -2 13 -5z m160 -1 c-20 -2 -52 -2 -70 0 -17 2 0 4 38 4 39 0 53 -2
32 -4z m131 0 c-16 -2 -40 -2 -55 0 -16 2 -3 4 27 4 30 0 43 -2 28 -4z m109 1
c-3 -3 -12 -4 -19 -1 -8 3 -5 6 6 6 11 1 17 -2 13 -5z m-1749 -11 c-10 -2 -26
-2 -35 0 -10 3 -2 5 17 5 19 0 27 -2 18 -5z m67 -3 c13 -5 14 -9 5 -9 -8 0
-24 4 -35 9 -13 5 -14 9 -5 9 8 0 24 -4 35 -9z m65 6 c0 -2 -7 -7 -16 -10 -8
-3 -12 -2 -9 4 6 10 25 14 25 6z m233 -3 c-40 -2 -106 -2 -145 0 -40 1 -8 3
72 3 80 0 112 -2 73 -3z m560 -131 l117 -2 0 -30 c0 -20 5 -30 15 -30 10 0 15
10 15 30 0 20 5 30 15 30 12 0 15 -15 15 -75 0 -60 -3 -75 -15 -75 -10 0 -15
10 -15 30 0 20 -5 30 -15 30 -10 0 -15 -10 -15 -30 0 -20 -5 -30 -15 -30 -12
0 -15 14 -15 70 0 41 -4 70 -10 70 -6 0 -8 -11 -4 -25 7 -29 -10 -55 -37 -55
-14 0 -19 -7 -19 -30 0 -20 -5 -30 -15 -30 -12 0 -15 14 -15 70 l0 70 -30 0
-30 0 0 -70 c0 -61 -2 -70 -18 -70 -13 0 -23 13 -33 43 l-14 42 -3 -42 c-2
-24 -7 -43 -12 -43 -8 0 -12 21 -23 115 -2 17 -5 -3 -6 -42 -1 -58 -4 -73 -16
-73 -12 0 -15 14 -15 70 0 90 -18 92 -22 3 l-3 -68 -34 -3 c-20 -2 -37 2 -42
10 -13 20 -11 136 2 140 12 4 100 4 312 0z m-935 -9 c-10 -2 -26 -2 -35 0 -10
3 -2 5 17 5 19 0 27 -2 18 -5z m115 0 c-7 -2 -19 -2 -25 0 -7 3 -2 5 12 5 14
0 19 -2 13 -5z m80 0 c-13 -2 -33 -2 -45 0 -13 2 -3 4 22 4 25 0 35 -2 23 -4z
m183 -5 c20 -13 26 -74 10 -111 -12 -30 -18 -34 -40 -30 -34 7 -40 17 -47 83
l-6 55 -2 -55 c-1 -30 -5 -61 -10 -68 -13 -22 -56 -11 -59 16 -2 12 1 22 7 22
6 0 11 -7 11 -15 0 -8 5 -15 10 -15 6 0 10 25 10 55 0 50 -2 55 -22 56 -22 1
-22 1 2 8 32 9 122 8 136 -1z m108 -57 c19 -85 19 -81 2 -81 -8 0 -17 9 -21
19 -7 22 -35 18 -35 -5 0 -8 -7 -14 -15 -14 -18 0 -18 0 0 74 8 33 12 63 9 68
-3 4 6 8 20 8 22 0 26 -6 40 -69z m100 50 c12 -14 16 -34 14 -79 l-2 -60 -36
5 c-48 8 -55 17 -55 72 0 73 40 105 79 62z m630 -3 c10 -38 7 -103 -6 -116 -7
-7 -24 -12 -39 -12 -34 0 -41 18 -38 95 l2 55 38 0 c30 0 38 -4 43 -22z m96 7
c0 -9 -9 -15 -25 -15 -16 0 -25 -6 -25 -15 0 -9 10 -15 26 -15 31 0 28 -23 -4
-28 -31 -5 -28 -32 3 -32 16 0 25 -6 25 -15 0 -10 -11 -15 -35 -15 -34 0 -35
1 -36 38 0 20 -1 54 -3 75 -3 37 -3 37 36 37 27 0 38 -4 38 -15z m36 7 c6 -4
17 -24 23 -44 7 -21 15 -38 18 -38 7 0 0 63 -8 75 -5 7 1 11 14 13 21 1 22 -2
19 -73 -4 -87 -22 -100 -45 -32 l-15 42 -1 -42 c-1 -31 -5 -43 -16 -43 -12 0
-15 15 -15 75 0 73 3 82 26 67z m114 -67 c0 -60 -3 -75 -15 -75 -12 0 -15 15
-15 75 0 60 3 75 15 75 12 0 15 -15 15 -75z m49 68 c-3 -19 2 -33 11 -33 6 0
10 6 10 14 0 13 29 31 37 23 2 -2 -3 -17 -12 -33 -19 -36 -19 -48 0 -84 14
-26 14 -30 1 -30 -9 0 -21 10 -27 22 l-12 22 -8 -22 c-5 -12 -15 -22 -24 -22
-19 0 -19 2 1 44 15 31 15 36 0 66 -20 41 -20 40 4 40 11 0 19 -3 19 -7z
m-889 -173 c0 -6 -53 -9 -142 -8 l-143 2 140 6 c77 3 141 7 143 8 1 1 2 -2 2
-8z m64 1 c3 -5 -5 -8 -19 -7 -14 0 -25 4 -25 9 0 10 38 9 44 -2z m41 -1 c-3
-5 -12 -10 -18 -10 -7 0 -6 4 3 10 19 12 23 12 15 0z m198 3 c-13 -2 -33 -2
-45 0 -13 2 -3 4 22 4 25 0 35 -2 23 -4z m70 0 c-7 -2 -21 -2 -30 0 -10 3 -4
5 12 5 17 0 24 -2 18 -5z m150 0 c-23 -2 -64 -2 -90 0 -26 2 -7 3 42 3 50 0
71 -1 48 -3z m140 0 c-7 -2 -19 -2 -25 0 -7 3 -2 5 12 5 14 0 19 -2 13 -5z
m-985 -10 c-15 -2 -42 -2 -60 0 -18 2 -6 4 27 4 33 0 48 -2 33 -4z m525 0
c-13 -2 -33 -2 -45 0 -13 2 -3 4 22 4 25 0 35 -2 23 -4z m-730 -190 c-7 -2
-21 -2 -30 0 -10 3 -4 5 12 5 17 0 24 -2 18 -5z m185 0 c-10 -2 -28 -2 -40 0
-13 2 -5 4 17 4 22 1 32 -1 23 -4z m49 1 c-3 -3 -12 -4 -19 -1 -8 3 -5 6 6 6
11 1 17 -2 13 -5z m376 -1 c-13 -2 -35 -2 -50 0 -16 2 -5 4 22 4 28 0 40 -2
28 -4z m200 0 c-29 -2 -77 -2 -105 0 -29 2 -6 3 52 3 58 0 81 -1 53 -3z m260
0 c-13 -2 -33 -2 -45 0 -13 2 -3 4 22 4 25 0 35 -2 23 -4z m84 1 c-3 -3 -12
-4 -19 -1 -8 3 -5 6 6 6 11 1 17 -2 13 -5z m-780 -309 c-5 -245 -8 -279 -24
-308 -23 -39 -56 -57 -104 -57 -71 0 -125 85 -117 184 2 24 9 41 16 40 7 -1
26 -2 42 -2 29 -2 30 -4 30 -51 0 -27 3 -56 6 -65 9 -24 41 -19 48 7 3 12 6
136 6 275 l0 252 52 0 51 0 -6 -275z m203 259 c33 -20 60 -72 60 -115 0 -18 4
-28 10 -24 6 3 10 40 10 81 l0 74 51 0 50 0 -3 -95 c-2 -52 0 -95 3 -95 4 0
15 42 26 92 l19 93 159 3 c138 3 160 1 168 -13 7 -13 12 -14 23 -4 23 19 160
16 182 -4 10 -10 23 -17 29 -17 19 0 33 -54 35 -132 2 -66 -1 -82 -20 -108
l-23 -30 23 -31 c19 -25 23 -45 24 -107 1 -42 3 -102 5 -132 l4 -55 -38 -3
c-61 -5 -67 6 -67 130 0 116 -9 148 -40 148 -19 0 -20 -7 -20 -135 l0 -135
-50 0 -50 0 -1 283 c0 155 -3 276 -6 270 -3 -9 -27 -13 -69 -13 l-64 0 0 -90
0 -90 40 0 40 0 0 -45 0 -45 -40 0 -40 0 0 -95 0 -95 65 0 65 0 0 -45 0 -45
-115 0 -115 0 -2 313 -3 312 -29 -145 -29 -145 23 -150 c12 -83 23 -154 23
-159 2 -9 -72 -30 -79 -23 -2 2 -6 21 -10 43 -3 21 -12 75 -20 119 -7 44 -15
87 -16 95 -1 8 -5 -46 -8 -120 l-5 -135 -47 -3 -48 -3 0 230 c0 147 -4 231
-10 231 -6 0 -10 -64 -10 -172 0 -150 -3 -179 -20 -216 -19 -42 -63 -72 -106
-72 -34 0 -82 32 -102 69 -21 36 -22 52 -22 250 0 226 5 257 51 300 28 26 98
29 139 5z m-14 -719 c14 -55 -19 -102 -51 -75 -15 13 -20 56 -9 84 10 26 53
20 60 -9z m72 6 c3 -9 -2 -11 -17 -6 -19 6 -21 2 -21 -29 0 -20 5 -36 10 -36
6 0 10 5 10 10 0 6 5 10 10 10 13 0 13 -27 0 -35 -6 -3 -19 -3 -30 0 -16 5
-20 15 -20 49 0 23 3 46 7 50 11 11 46 2 51 -13z m72 9 c0 -5 -4 -10 -10 -10
-5 0 -10 -20 -10 -45 0 -25 -4 -45 -10 -45 -5 0 -10 20 -10 45 0 25 -4 45 -10
45 -5 0 -10 5 -10 10 0 6 14 10 30 10 17 0 30 -4 30 -10z m71 -14 c14 -29 4
-75 -16 -83 -34 -12 -57 43 -39 91 9 24 43 19 55 -8z m70 17 c11 -84 5 -103
-33 -103 -15 0 -18 9 -18 55 0 52 1 55 25 55 14 0 25 -3 26 -7z m74 -3 c3 -5
-3 -10 -14 -10 -12 0 -21 -4 -21 -10 0 -5 7 -10 15 -10 8 0 15 -4 15 -10 0 -5
-7 -10 -15 -10 -8 0 -15 -7 -15 -15 0 -8 9 -15 21 -15 11 0 17 -4 14 -10 -3
-5 -17 -10 -31 -10 -23 0 -24 3 -24 55 0 52 1 55 24 55 14 0 28 -4 31 -10z
m72 -47 c2 -30 -2 -53 -7 -53 -6 0 -10 11 -10 25 0 14 -4 25 -10 25 -5 0 -10
-9 -10 -19 0 -11 -4 -23 -10 -26 -6 -4 -10 15 -10 50 0 56 0 56 28 53 25 -3
27 -6 29 -55z m104 20 c2 -61 -8 -95 -18 -65 -3 6 -11 12 -19 12 -18 0 -18 24
1 60 21 41 35 38 36 -7z"/>
<path d="M864 4670 c3 -53 1 -74 -4 -55 -8 30 -8 30 -9 -8 -1 -27 3 -37 11
-35 14 5 31 96 21 111 -3 6 -10 24 -14 41 -6 21 -7 2 -5 -54z"/>
<path d="M862 4540 c0 -14 2 -19 5 -12 2 6 2 18 0 25 -3 6 -5 1 -5 -13z"/>
<path d="M1850 3041 c0 -5 -12 -13 -27 -19 l-28 -9 33 -5 c37 -5 57 11 36 30
-8 7 -14 8 -14 3z"/>
<path d="M1886 3015 c-3 -8 -1 -15 4 -15 13 0 22 18 11 24 -5 3 -11 -1 -15 -9z"/>
<path d="M1855 2980 c4 -6 11 -8 16 -5 14 9 11 15 -7 15 -8 0 -12 -5 -9 -10z"/>
<path d="M1967 2829 c7 -7 15 -10 18 -7 3 3 -2 9 -12 12 -14 6 -15 5 -6 -5z"/>
<path d="M241 2263 c-39 -43 -71 -82 -71 -88 0 -5 17 8 37 30 78 86 99 110
107 123 17 28 -6 7 -73 -65z"/>
<path d="M1702 1683 c4 -81 28 -85 28 -4 0 48 -3 61 -15 61 -13 0 -15 -11 -13
-57z"/>
<path d="M1860 1736 c0 -2 7 -19 15 -37 l14 -34 1 38 c0 26 -4 37 -15 37 -8 0
-15 -2 -15 -4z"/>
<path d="M2010 1699 c0 -24 23 -21 28 4 2 10 -3 17 -12 17 -10 0 -16 -9 -16
-21z"/>
<path d="M1392 1673 c3 -49 22 -68 33 -33 9 30 -4 80 -21 80 -12 0 -14 -11
-12 -47z"/>
<path d="M1500 1676 c0 -9 5 -16 10 -16 6 0 10 4 10 9 0 6 -4 13 -10 16 -5 3
-10 -1 -10 -9z"/>
<path d="M1596 1687 c-4 -19 -4 -42 0 -50 10 -28 36 7 32 45 -4 43 -24 46 -32
5z"/>
<path d="M2220 1669 c0 -66 24 -62 28 4 2 37 0 47 -12 47 -12 0 -16 -12 -16
-51z"/>
<path d="M2400 1165 c0 -88 1 -95 20 -95 28 0 40 30 40 102 0 66 -10 88 -42
88 -16 0 -18 -10 -18 -95z"/>
<path d="M1646 1241 c-10 -15 -18 -338 -10 -394 6 -47 26 -70 44 -51 13 13 23
317 13 389 -6 43 -13 61 -25 63 -9 2 -19 -1 -22 -7z"/>
<path d="M1870 1182 c0 -5 -12 -14 -26 -20 -14 -7 -22 -17 -19 -22 4 -6 18 -2
36 10 29 21 38 40 19 40 -5 0 -10 -4 -10 -8z"/>
<path d="M1670 574 c0 -45 24 -42 28 4 2 24 -1 32 -12 32 -12 0 -16 -10 -16
-36z"/>
<path d="M1890 575 c0 -25 4 -35 13 -32 6 2 12 16 12 32 0 16 -6 30 -12 33 -9
2 -13 -8 -13 -33z"/>
<path d="M1970 600 c0 -5 5 -10 10 -10 6 0 10 5 10 10 0 6 -4 10 -10 10 -5 0
-10 -4 -10 -10z"/>
<path d="M1970 555 c0 -8 5 -15 10 -15 6 0 10 7 10 15 0 8 -4 15 -10 15 -5 0
-10 -7 -10 -15z"/>
<path d="M2110 594 c0 -8 5 -12 10 -9 6 3 10 10 10 16 0 5 -4 9 -10 9 -5 0
-10 -7 -10 -16z"/>
<path d="M2221 574 c0 -11 3 -14 6 -6 3 7 2 16 -1 19 -3 4 -6 -2 -5 -13z"/>
<path d="M1260 4521 c0 -5 7 -11 15 -15 9 -3 15 0 15 9 0 8 -7 15 -15 15 -8 0
-15 -4 -15 -9z"/>
<path d="M1283 4433 c-18 -7 -16 -30 2 -30 8 0 15 9 15 19 0 10 -1 18 -2 17
-2 0 -9 -3 -15 -6z"/>
<path d="M1273 4253 c-24 -9 -13 -23 18 -23 19 0 29 4 27 12 -4 12 -26 18 -45
11z"/>
<path d="M2751 4084 c0 -11 3 -14 6 -6 3 7 2 16 -1 19 -3 4 -6 -2 -5 -13z"/>
<path d="M2752 4010 c0 -14 2 -19 5 -12 2 6 2 18 0 25 -3 6 -5 1 -5 -13z"/>
<path d="M2757 3960 c3 -11 7 -20 9 -20 2 0 4 9 4 20 0 11 -4 20 -9 20 -5 0
-7 -9 -4 -20z"/>
<path d="M1500 3476 c0 -24 18 -28 30 -6 9 17 8 20 -10 20 -11 0 -20 -6 -20
-14z"/>
<path d="M1380 3469 c0 -5 5 -7 10 -4 6 3 10 8 10 11 0 2 -4 4 -10 4 -5 0 -10
-5 -10 -11z"/>
<path d="M1410 3449 c0 -17 4 -28 10 -24 6 3 10 13 10 21 0 8 5 14 11 14 5 0
7 -4 4 -10 -3 -5 1 -10 9 -10 9 0 16 4 16 8 0 14 -23 32 -42 32 -13 0 -18 -8
-18 -31z"/>
<path d="M1530 3440 c-6 -12 -21 -25 -33 -30 -20 -8 -20 -9 6 -9 16 -1 42 7
58 16 28 17 38 33 20 33 -5 0 -16 3 -24 6 -10 3 -20 -3 -27 -16z"/>
<path d="M1580 3394 c-19 -19 -48 -38 -63 -41 -15 -3 -26 -11 -24 -17 6 -17
47 -19 65 -3 37 31 57 34 26 3 -8 -9 -11 -16 -5 -16 5 0 13 5 17 11 4 8 9 7
15 -2 5 -9 9 8 9 44 0 31 -1 57 -2 56 -2 0 -19 -16 -38 -35z"/>
<path d="M20 2080 c0 -5 5 -10 10 -10 6 0 10 5 10 10 0 6 -4 10 -10 10 -5 0
-10 -4 -10 -10z"/>
<path d="M20 2020 c0 -5 5 -10 11 -10 5 0 7 5 4 10 -3 6 -8 10 -11 10 -2 0 -4
-4 -4 -10z"/>
</g>
</svg>
