<?xml version="1.0" standalone="no"?>
<!DOCTYPE svg PUBLIC "-//W3C//DTD SVG 20010904//EN"
 "http://www.w3.org/TR/2001/REC-SVG-20010904/DTD/svg10.dtd">
<svg version="1.0" xmlns="http://www.w3.org/2000/svg"
 width="295.000000pt" height="400.000000pt" viewBox="0 0 295.000000 400.000000"
 preserveAspectRatio="xMidYMid meet">
<metadata>
Created by potrace 1.16, written by Peter Selinger 2001-2019
</metadata>
<g transform="translate(0.000000,400.000000) scale(0.100000,-0.100000)"
fill="#000000" stroke="none">
<path d="M0 3190 l0 -810 27 12 c16 7 32 15 37 20 6 4 20 8 33 8 13 0 23 3 23
8 0 11 98 32 150 32 55 0 100 -35 100 -78 0 -30 -32 -106 -49 -116 -24 -15 -5
-146 20 -146 5 0 17 -17 27 -38 18 -37 19 -82 1 -82 -5 0 -9 -7 -9 -15 0 -15
-33 -38 -44 -30 -3 3 -4 2 -1 -2 7 -10 -28 -32 -52 -33 -17 0 -23 7 -29 35 -3
19 -3 47 1 62 15 54 13 82 -4 87 -39 10 -159 35 -193 40 l-38 5 0 -73 c0 -60
3 -76 20 -91 11 -10 20 -28 20 -41 0 -16 7 -24 23 -27 16 -3 10 -6 -20 -12
l-43 -8 0 -948 0 -949 419 0 418 0 7 48 c3 26 8 115 11 197 6 153 16 243 41
375 8 41 19 102 25 135 17 96 41 199 49 210 13 18 54 307 60 420 0 6 15 -13
33 -41 53 -83 79 -113 132 -153 70 -53 157 -100 174 -94 8 3 11 1 8 -5 -4 -5
-1 -15 7 -21 11 -9 14 -8 12 5 0 9 6 19 14 21 12 4 12 3 2 -5 -10 -7 -5 -12
18 -22 29 -12 58 -14 115 -6 75 9 440 296 548 430 24 31 27 36 10 28 -19 -11
-20 -9 -16 11 3 12 2 19 -2 15 -5 -4 -14 -3 -20 2 -17 14 -1 80 45 195 16 41
19 55 11 55 -5 0 -11 -6 -14 -12 -2 -7 -3 10 -1 37 3 43 2 46 -5 17 -11 -43
-24 -56 -17 -17 l6 30 -11 -27 c-11 -29 -29 -38 -29 -15 0 8 -4 7 -10 -3 -6
-10 -10 -11 -10 -2 0 6 -4 12 -10 12 -5 0 -10 -15 -10 -32 0 -20 -3 -28 -8
-21 -6 9 -11 8 -21 -6 -11 -15 -20 -17 -43 -10 -27 7 -28 6 -22 -14 6 -22 6
-22 -10 -2 l-15 20 -1 -20 c-1 -22 -22 -55 -36 -55 -4 0 -3 5 4 12 7 7 12 23
12 36 l0 23 -29 -28 c-22 -22 -26 -31 -17 -45 8 -13 7 -21 -2 -30 -6 -6 -12
-20 -12 -31 0 -12 -4 -16 -12 -11 -10 6 -10 4 0 -7 16 -17 15 -29 -2 -29 -8 0
-18 -9 -21 -20 -8 -24 -21 -26 -33 -3 -9 15 -10 14 -16 -4 -7 -21 -44 -43 -74
-43 -9 0 -28 -9 -41 -19 -13 -10 -32 -16 -42 -14 -11 3 -19 0 -19 -6 0 -15
-27 -14 -34 2 -4 8 -5 7 -5 -3 2 -31 -2 -35 -36 -36 -24 0 -34 3 -31 11 4 12
-19 17 -44 8 -8 -3 -42 -6 -76 -8 -60 -2 -102 13 -90 33 3 4 -5 8 -16 8 -15
-1 -24 7 -29 24 -4 14 -7 22 -8 18 -1 -5 -10 1 -21 12 -12 12 -18 25 -15 30 4
6 -3 7 -19 1 -35 -14 -66 -9 -77 11 -6 10 -14 16 -20 13 -5 -4 -9 0 -9 8 0 7
-23 33 -51 58 -51 44 -102 110 -113 147 -4 11 -13 26 -21 32 -8 7 -15 23 -15
36 0 12 -4 25 -9 29 -12 7 -26 93 -17 103 4 3 12 0 17 -8 8 -12 12 -12 16 -2
4 10 8 9 18 -5 10 -13 10 -20 2 -25 -7 -5 0 -8 16 -8 15 0 27 2 27 5 0 14 -57
54 -78 55 -25 0 -29 8 -36 60 -3 19 -14 69 -26 110 -11 41 -18 80 -16 87 3 7
-1 30 -8 50 -7 21 -13 56 -13 79 0 22 -3 46 -6 52 -4 5 -4 18 0 28 4 12 3 15
-5 10 -7 -4 -12 -3 -12 3 0 5 5 11 11 13 8 3 7 23 -4 73 -11 45 -13 72 -6 76
6 3 9 10 7 15 -1 5 3 19 10 31 6 12 9 29 5 39 -4 12 -3 15 5 10 8 -5 12 1 12
16 0 16 -3 19 -8 10 -7 -9 -13 -7 -28 9 -10 13 -13 19 -6 15 7 -4 12 -1 12 8
0 9 -4 16 -9 16 -18 0 -29 110 -16 164 17 70 89 216 107 216 4 0 5 -7 2 -15
-5 -11 -2 -13 10 -9 19 7 20 16 6 30 -7 7 -3 17 12 30 19 16 20 16 9 1 -8 -9
-11 -20 -8 -24 9 -8 38 17 31 28 -3 5 1 9 9 9 8 0 25 9 37 20 32 28 62 22 79
-15 8 -16 16 -24 18 -18 3 7 -1 22 -8 35 -6 13 9 2 34 -24 29 -30 52 -46 61
-42 9 3 27 -4 42 -15 15 -12 34 -21 43 -21 9 0 25 -7 35 -15 10 -8 23 -12 27
-9 5 3 9 1 9 -4 0 -5 12 -8 28 -7 24 1 28 6 33 40 5 37 6 38 10 11 5 -35 34
-43 50 -14 6 11 13 17 16 14 4 -3 15 2 26 11 10 10 21 17 23 15 8 -5 64 29 64
38 0 6 6 10 14 10 8 0 16 7 20 15 3 8 12 15 19 15 8 0 20 14 27 31 10 22 15
27 21 17 6 -9 9 -7 9 9 0 23 20 43 21 21 0 -7 5 -3 11 10 6 13 17 21 24 18 7
-3 15 0 18 7 5 9 7 9 11 1 3 -7 15 -10 25 -7 12 3 32 -5 51 -21 18 -15 54 -38
81 -52 27 -14 46 -29 43 -35 -4 -5 -3 -8 2 -7 4 2 19 -5 33 -15 13 -9 20 -17
15 -17 -5 0 1 -9 13 -20 12 -12 22 -27 22 -35 0 -8 5 -15 11 -15 5 0 8 -4 5
-9 -3 -5 3 -20 14 -34 11 -14 20 -29 20 -33 0 -4 8 -16 18 -27 16 -19 16 -20
0 -14 -15 5 -16 3 -6 -21 7 -15 15 -31 19 -37 3 -5 7 -26 7 -45 0 -19 6 -36
11 -38 6 -2 2 -11 -9 -20 -20 -17 -20 -17 15 -86 19 -38 32 -73 29 -78 -3 -5
-1 -15 5 -22 6 -7 20 -44 32 -82 19 -60 59 -134 59 -107 0 5 -5 14 -12 21 -9
9 -9 12 1 12 8 0 11 6 7 16 -3 9 -2 12 5 9 6 -4 8 -13 5 -21 -3 -8 -1 -14 4
-14 6 0 10 -12 10 -26 0 -14 -4 -23 -8 -20 -5 3 -6 -8 -4 -25 2 -16 8 -29 13
-29 6 0 14 -10 19 -22 6 -17 9 -18 9 -6 1 9 -4 20 -10 24 -8 4 -2 12 15 21 14
8 31 11 36 8 5 -3 15 4 23 15 7 11 17 17 22 12 4 -4 0 5 -9 19 -9 14 -27 32
-41 39 -14 7 -27 22 -31 32 -3 11 -10 15 -17 11 -7 -4 -6 0 2 10 7 9 18 14 23
11 6 -4 7 2 3 17 l-7 24 23 -22 c21 -21 23 -21 35 -5 12 15 13 12 14 -24 0
-23 7 -61 15 -84 19 -54 19 -95 -1 -167 -9 -32 -18 -71 -21 -88 -2 -16 -6 -45
-9 -63 -6 -38 -49 -82 -81 -82 -25 0 -29 -11 -36 -105 -3 -33 -13 -92 -22
-132 l-18 -71 33 -84 c51 -126 126 -266 160 -297 63 -57 52 -116 -208 -1106
-40 -148 -76 -285 -81 -302 l-10 -33 455 0 454 0 0 1641 0 1640 -27 -3 c-25
-3 -29 -8 -34 -48 -4 -25 -7 -114 -8 -197 0 -146 0 -153 19 -153 18 0 20 -7
20 -81 0 -44 -4 -88 -10 -98 -5 -10 -12 -91 -16 -180 -7 -151 -8 -161 -27
-161 -16 0 -18 -4 -12 -27 4 -16 6 -43 6 -60 -1 -18 4 -33 9 -33 6 0 10 -4 10
-10 0 -5 -9 -10 -20 -10 -11 0 -20 -4 -20 -10 0 -17 -53 -11 -76 8 -18 16 -23
36 -33 145 -6 70 -11 173 -11 230 0 56 -5 131 -10 167 -12 77 -31 385 -34 560
-1 69 -8 222 -16 340 -8 118 -14 243 -14 278 l1 62 -1324 0 -1323 0 0 -810z
m1430 524 c0 -2 -13 -4 -30 -4 -16 0 -30 4 -30 8 0 5 14 7 30 4 17 -2 30 -6
30 -8z m72 -3 c17 -11 35 -18 40 -15 4 3 8 0 8 -7 0 -8 4 -8 16 1 12 11 18 10
32 -5 16 -18 16 -18 -1 -6 -9 8 -21 10 -25 6 -4 -4 -1 -10 6 -12 6 -3 9 -9 6
-15 -4 -6 3 -5 16 2 14 7 20 17 16 28 -4 9 2 6 13 -8 14 -18 17 -28 9 -37 -7
-9 -7 -13 1 -13 6 0 11 -9 11 -21 0 -11 -4 -17 -10 -14 -5 3 -10 -1 -10 -11 0
-14 -2 -15 -17 -3 -15 12 -16 12 -10 -3 3 -10 3 -18 -1 -18 -16 1 -50 37 -62
68 -7 17 -16 32 -20 32 -5 0 5 -27 21 -60 32 -67 39 -105 9 -50 l-19 35 -1
-38 c0 -24 -4 -36 -10 -32 -7 4 -9 -3 -5 -22 5 -20 1 -16 -14 15 -11 23 -26
41 -33 40 -6 -2 -13 4 -14 12 0 8 -2 20 -2 27 -1 7 -14 23 -28 36 -38 36 -14
41 28 7 31 -26 37 -28 48 -15 12 14 7 19 -13 16 -5 -1 -5 4 -1 11 16 25 12 39
-17 54 -16 8 -27 19 -24 24 9 14 21 12 57 -9z m172 -86 c6 -40 6 -40 -9 -13
-8 15 -12 34 -9 43 8 21 10 18 18 -30z m-290 -1 c3 -8 2 -12 -4 -9 -6 3 -10
10 -10 16 0 14 7 11 14 -7z m39 -61 c-6 -14 -8 -14 -14 3 -12 30 -10 37 5 24
8 -6 12 -19 9 -27z m457 16 c0 -12 -49 -16 -54 -4 -2 7 7 12 25 12 16 0 29 -4
29 -8z m127 5 c-3 -3 -12 -4 -19 -1 -8 3 -5 6 6 6 11 1 17 -2 13 -5z m100 -36
c37 -41 94 -166 92 -202 -1 -16 -3 -14 -11 9 -5 17 -24 41 -41 53 -29 22 -30
23 -7 17 22 -5 20 -2 -14 28 -28 25 -35 36 -26 42 8 5 11 4 7 -2 -4 -6 4 -18
17 -26 22 -15 24 -15 19 3 -3 10 -21 37 -40 59 -36 42 -32 59 4 19z m-619 -49
c-3 -8 -7 -3 -11 10 -4 17 -3 21 5 13 5 -5 8 -16 6 -23z m705 -21 c19 -25 24
-39 15 -44 -6 -4 -8 -3 -4 4 3 6 -2 13 -11 16 -19 6 -45 51 -35 61 3 3 6 4 7
3 0 -2 13 -20 28 -40z m91 -434 c3 -8 2 -12 -4 -9 -6 3 -10 10 -10 16 0 14 7
11 14 -7z m23 -83 c18 -34 21 -47 12 -63 -8 -15 -8 -23 2 -32 9 -8 10 -7 5 9
-5 16 -2 15 14 -5 23 -30 26 -70 5 -70 -17 0 -65 67 -65 92 0 10 -6 36 -12 58
-9 29 -17 39 -28 35 -9 -3 -7 2 5 10 26 21 36 15 62 -34z m-37 -96 c0 -5 -5
-3 -10 5 -5 8 -10 20 -10 25 0 6 5 3 10 -5 5 -8 10 -19 10 -25z m29 -47 c8
-18 19 -36 25 -40 7 -5 3 -8 -9 -8 -12 0 -16 -3 -9 -8 6 -4 11 -15 11 -25 0
-12 -4 -14 -10 -8 -6 6 -10 25 -9 43 1 36 -17 66 -28 48 -5 -8 -9 -6 -13 5 -4
9 -3 13 3 10 6 -3 10 -1 10 4 0 22 15 10 29 -21z m-66 -268 c13 -28 21 -52 18
-54 -4 -3 -16 20 -28 50 -27 68 -21 70 10 4z m-1626 -173 c1 -11 6 -23 11 -26
4 -3 16 -32 26 -64 10 -32 26 -66 36 -75 10 -10 20 -40 24 -72 3 -30 9 -72 12
-94 7 -37 6 -38 -15 -25 -26 16 -60 68 -66 101 -5 26 -12 44 -43 108 -17 34
-22 63 -22 118 0 67 1 71 18 61 10 -6 19 -20 19 -32z m2193 -227 c0 -5 7 -10
16 -10 32 0 97 -89 107 -147 5 -24 1 -37 -18 -58 -14 -14 -25 -30 -25 -36 0
-5 -4 -9 -9 -9 -22 0 -153 60 -209 96 -57 36 -62 42 -62 77 0 20 4 37 10 37 5
0 31 14 57 30 33 21 59 30 90 30 24 0 43 -4 43 -10z m-2627 -231 c12 -6 32
-20 44 -31 20 -19 21 -19 32 -1 8 14 10 10 8 -22 -2 -37 -4 -40 -33 -43 -18
-2 -48 4 -68 12 -32 13 -36 19 -36 50 0 19 -6 37 -12 39 -7 3 0 6 15 6 16 1
38 -4 50 -10z m591 -135 c21 -21 30 -58 22 -96 -7 -35 -65 -152 -102 -206
-105 -154 -112 -162 -150 -162 -17 0 -33 16 -61 57 -46 70 -51 100 -20 133 12
14 53 61 90 105 152 179 158 185 182 185 13 0 31 -7 39 -16z m2159 -67 c3 -46
2 -75 -4 -72 -5 4 -9 1 -9 -4 0 -6 -6 -11 -14 -11 -19 0 -30 62 -13 75 11 8
11 13 -4 29 -22 23 -17 36 11 29 16 -4 20 0 20 18 0 48 8 11 13 -64z m-855 56
c-2 -9 -8 -18 -15 -20 -7 -3 -9 3 -6 16 6 25 26 28 21 4z m-331 -255 c-3 -8
-6 -5 -6 6 -1 11 2 17 5 13 3 -3 4 -12 1 -19z m-328 -250 c12 -9 29 -25 37
-36 12 -17 12 -21 -1 -25 -9 -4 -12 -1 -9 7 3 7 -7 18 -22 25 -22 10 -26 9
-21 -3 4 -10 0 -12 -15 -8 -14 3 -19 11 -16 27 4 17 1 21 -13 18 -9 -3 -25 -1
-34 5 -13 7 -6 9 27 8 24 -1 54 -9 67 -18z m-215 4 c3 -5 -1 -9 -9 -9 -8 0
-12 4 -9 9 3 4 7 8 9 8 2 0 6 -4 9 -8z m55 -29 c2 -2 -5 -3 -17 -3 -14 0 -22
6 -22 16 0 14 3 15 18 3 9 -7 19 -15 21 -16z m51 -21 c0 -14 -11 -21 -26 -15
-8 3 -11 9 -8 14 7 11 34 12 34 1z m25 -32 c3 -6 -1 -7 -9 -4 -18 7 -21 14 -7
14 6 0 13 -4 16 -10z m-917 -12 c21 -21 14 -69 -14 -94 -46 -44 -74 -28 -74
41 0 52 9 65 44 65 18 0 37 -5 44 -12z m1128 -82 c0 -14 -3 -23 -7 -20 -6 3
-6 22 0 42 3 10 7 -2 7 -22z"/>
<path d="M1504 3596 c-9 -9 -8 -17 4 -32 14 -19 15 -19 8 0 -4 11 -2 23 5 26
6 4 7 10 3 13 -5 3 -14 -1 -20 -7z"/>
<path d="M2290 2948 c0 -9 7 -22 17 -29 15 -13 15 -12 3 11 -17 34 -20 36 -20
18z"/>
<path d="M2330 2838 c0 -9 5 -20 10 -23 13 -8 13 5 0 25 -8 13 -10 13 -10 -2z"/>
<path d="M2920 3980 c0 -11 7 -20 15 -20 8 0 15 9 15 20 0 11 -7 20 -15 20 -8
0 -15 -9 -15 -20z"/>
<path d="M2920 3891 c0 -16 -2 -41 -4 -57 -2 -16 -1 -21 1 -11 2 9 11 17 19
17 10 0 14 12 14 40 0 29 -4 40 -15 40 -10 0 -15 -10 -15 -29z"/>
<path d="M2920 3740 c0 -11 7 -20 15 -20 8 0 15 9 15 20 0 11 -7 20 -15 20 -8
0 -15 -9 -15 -20z"/>
<path d="M714 2672 c4 -11 2 -23 -4 -27 -14 -9 -13 -22 3 -22 15 0 20 54 6 63
-7 4 -9 -1 -5 -14z"/>
<path d="M902 2659 c-13 -5 -21 -13 -18 -18 3 -5 -15 -8 -40 -7 -25 1 -51 -2
-57 -6 -8 -5 -5 -8 8 -8 12 -1 1 -10 -30 -25 -42 -20 -45 -24 -20 -21 17 2 25
1 18 -1 -15 -6 -25 -33 -12 -33 7 0 9 -10 6 -22 -7 -28 11 -53 40 -55 14 -1
20 4 18 15 -6 44 83 97 165 97 57 -1 152 -32 147 -49 -2 -6 -30 -11 -63 -12
-81 -4 -113 -9 -154 -27 -19 -9 -43 -18 -53 -21 -15 -5 -16 -8 -5 -19 7 -7 22
-18 33 -25 18 -11 18 -11 -10 -12 -16 -1 -24 -4 -17 -7 6 -2 10 -8 8 -11 -2
-4 20 -7 50 -8 40 -1 54 2 50 11 -5 14 20 55 34 55 5 0 10 -12 12 -27 3 -27 5
-28 56 -28 52 1 78 16 65 39 -7 11 15 -1 39 -21 9 -8 29 -13 44 -11 26 3 24 6
-33 36 -76 40 -134 49 -190 28 -23 -8 -45 -11 -48 -6 -8 13 63 34 116 34 30 0
59 -8 85 -23 46 -28 90 -42 99 -33 4 4 17 7 28 7 19 0 22 5 19 33 -3 39 -24
64 -46 56 -19 -7 -21 7 -3 25 10 10 9 11 -5 6 -14 -6 -18 -2 -19 16 -1 21 -2
20 -9 -6 -4 -16 -8 -24 -9 -17 0 6 -7 12 -14 12 -7 0 -19 17 -27 38 -7 20 -15
31 -17 25 -4 -10 -11 -9 -34 2 -16 9 -48 18 -72 20 -23 3 -58 7 -77 9 -19 3
-45 0 -58 -5z m288 -169 c0 -5 -2 -10 -4 -10 -3 0 -8 5 -11 10 -3 6 -1 10 4
10 6 0 11 -4 11 -10z m25 -10 c3 -5 1 -10 -4 -10 -6 0 -11 5 -11 10 0 6 2 10
4 10 3 0 8 -4 11 -10z"/>
<path d="M1576 2645 c-21 -13 -45 -21 -52 -18 -8 3 -17 -3 -21 -14 -8 -20 -52
-26 -65 -9 -3 5 -9 -8 -13 -30 -4 -21 -10 -50 -14 -64 -6 -19 -3 -27 13 -35
14 -7 21 -22 24 -50 2 -22 8 -41 13 -43 5 -2 9 -11 9 -19 0 -13 3 -13 15 -3
13 11 18 10 30 -6 13 -18 14 -18 15 -1 0 10 -7 29 -16 42 -16 24 -15 27 16 29
31 3 90 31 90 43 0 7 5 13 10 13 6 0 10 -7 10 -16 0 -14 8 -16 48 -11 26 2 56
8 67 12 14 5 16 4 6 -3 -8 -6 -9 -12 -3 -16 6 -3 18 1 27 11 14 14 18 14 27 2
7 -11 11 -11 15 -1 7 18 26 15 19 -3 -4 -13 -2 -13 14 -5 10 5 27 10 37 10 10
0 36 12 58 26 36 23 37 25 13 21 -31 -5 -39 8 -10 15 20 6 27 48 7 48 -7 0
-15 10 -19 23 -7 29 -58 57 -104 58 -30 0 -33 2 -17 9 16 7 14 9 -15 9 -26 1
-31 -2 -20 -9 14 -9 -48 -7 -145 4 -20 3 -45 -4 -69 -19z m-109 -73 c-9 -2
-15 -8 -12 -13 3 -5 -1 -6 -10 -3 -14 6 -14 8 2 19 10 7 22 10 28 7 5 -4 2 -8
-8 -10z m316 9 c9 -1 17 -7 17 -15 0 -10 -17 -17 -53 -21 -63 -8 -104 -4 -98
10 6 14 60 31 91 28 14 -1 33 -2 43 -2z"/>
<path d="M2273 2413 c4 -3 -5 -17 -19 -30 l-25 -23 30 0 c21 0 32 6 36 20 7
22 -1 40 -17 40 -6 0 -8 -3 -5 -7z"/>
<path d="M1572 2398 c2 -6 11 -12 19 -14 7 -1 22 -5 32 -9 9 -4 17 -3 17 3 0
6 -14 15 -31 21 -40 14 -42 14 -37 -1z"/>
<path d="M1820 2400 c-21 -7 -21 -8 -5 -9 11 0 27 4 35 9 18 11 5 11 -30 0z"/>
<path d="M1160 2354 l-25 -15 25 7 c14 3 29 10 35 15 15 14 -7 10 -35 -7z"/>
<path d="M1600 2176 c0 -3 4 -16 10 -30 9 -24 7 -26 -45 -40 -29 -9 -65 -16
-79 -16 -16 0 -30 -8 -37 -21 -8 -17 -8 -20 1 -14 8 5 11 3 8 -5 -2 -7 -11
-14 -19 -16 -7 -1 -28 -7 -46 -12 -26 -8 -36 -6 -65 13 -34 25 -128 45 -128
28 0 -12 117 -73 141 -73 10 0 21 -5 25 -12 5 -7 2 -8 -7 -3 -8 4 0 -6 16 -22
17 -17 32 -27 35 -23 3 4 24 6 47 5 64 -4 88 4 126 40 32 30 35 37 30 74 -4
27 -2 41 6 41 12 0 15 48 5 74 -5 14 -24 23 -24 12z"/>
<path d="M790 2066 c0 -8 4 -17 9 -20 5 -4 7 3 4 14 -6 23 -13 26 -13 6z"/>
<path d="M2011 2064 c0 -11 3 -14 6 -6 3 7 2 16 -1 19 -3 4 -6 -2 -5 -13z"/>
<path d="M1961 2054 c-10 -12 -10 -19 -2 -27 6 -6 11 -31 11 -56 0 -64 7 -47
13 32 5 69 2 77 -22 51z"/>
<path d="M1317 1979 c7 -7 15 -10 18 -7 3 3 -2 9 -12 12 -14 6 -15 5 -6 -5z"/>
<path d="M1681 1938 c-1 -25 -5 -27 -73 -38 -40 -6 -95 -18 -123 -25 -53 -15
-320 -15 -343 -1 -7 4 -19 2 -28 -4 -19 -17 0 -40 27 -33 13 4 29 -5 50 -27
21 -22 34 -29 39 -21 4 7 13 11 21 9 8 -2 13 2 12 8 -1 7 25 12 75 13 109 3
156 7 245 20 42 7 82 9 88 5 20 -12 -64 -57 -141 -76 -129 -31 -140 -32 -156
-11 -8 11 -13 13 -14 5 0 -9 -5 -10 -19 -2 -24 12 -71 13 -71 1 0 -5 15 -15
33 -22 17 -7 37 -19 42 -27 7 -9 33 -13 80 -13 103 0 145 3 145 11 0 4 18 13
40 20 22 7 40 17 40 23 0 5 6 7 14 4 18 -7 42 20 51 55 4 15 16 30 26 33 10 4
22 17 25 30 6 25 -4 70 -13 61 -4 -3 -12 2 -18 11 -11 14 -16 15 -28 5 -12
-10 -16 -10 -20 0 -3 7 -6 1 -6 -14z m-294 -224 c-3 -3 -12 -4 -19 -1 -8 3 -5
6 6 6 11 1 17 -2 13 -5z"/>
<path d="M1931 1774 c0 -11 3 -14 6 -6 3 7 2 16 -1 19 -3 4 -6 -2 -5 -13z"/>
<path d="M1951 1774 c0 -11 3 -14 6 -6 3 7 2 16 -1 19 -3 4 -6 -2 -5 -13z"/>
<path d="M1488 1663 c6 -2 18 -2 25 0 6 3 1 5 -13 5 -14 0 -19 -2 -12 -5z"/>
<path d="M1140 1635 c7 -9 15 -13 17 -11 7 7 -7 26 -19 26 -6 0 -6 -6 2 -15z"/>
<path d="M1100 1596 c0 -2 6 -9 13 -15 10 -8 14 -7 14 4 0 8 -6 15 -14 15 -7
0 -13 -2 -13 -4z"/>
<path d="M1160 1550 c0 -6 7 -10 15 -10 8 0 15 2 15 4 0 2 -7 6 -15 10 -8 3
-15 1 -15 -4z"/>
<path d="M1646 1531 c-3 -5 1 -11 9 -14 9 -4 12 -1 8 9 -6 16 -10 17 -17 5z"/>
<path d="M1468 1033 c6 -2 18 -2 25 0 6 3 1 5 -13 5 -14 0 -19 -2 -12 -5z"/>
<path d="M1342 933 c-57 -51 -70 -68 -59 -74 10 -6 17 -36 21 -101 8 -102 -8
-197 -44 -267 -29 -55 -47 -166 -55 -338 l-8 -153 252 0 252 0 -6 38 c-16 92
-59 250 -101 364 -25 67 -46 141 -47 164 -2 44 18 73 156 220 l58 63 -84 50
c-125 73 -141 80 -157 71 -8 -4 -36 -11 -61 -15 -52 -8 -69 4 -43 29 8 9 12
16 7 16 -4 0 -41 -30 -81 -67z"/>
<path d="M1790 820 c35 -24 54 -31 30 -11 -14 11 -29 21 -35 21 -5 0 -3 -5 5
-10z"/>
</g>
</svg>
