<?xml version="1.0" standalone="no"?>
<!DOCTYPE svg PUBLIC "-//W3C//DTD SVG 20010904//EN"
 "http://www.w3.org/TR/2001/REC-SVG-20010904/DTD/svg10.dtd">
<svg version="1.0" xmlns="http://www.w3.org/2000/svg"
 width="184.000000pt" height="273.000000pt" viewBox="0 0 184.000000 273.000000"
 preserveAspectRatio="xMidYMid meet">
<metadata>
Created by potrace 1.16, written by Peter Selinger 2001-2019
</metadata>
<g transform="translate(0.000000,273.000000) scale(0.100000,-0.100000)"
fill="#000000" stroke="none">
<path d="M0 2460 c1 -171 4 -269 10 -265 6 4 10 14 10 23 1 32 50 74 50 43 0
-5 9 -12 19 -16 10 -3 36 -33 56 -66 21 -33 52 -69 68 -81 27 -19 30 -20 39
-5 5 10 14 17 21 17 7 0 17 16 23 35 10 33 9 39 -17 75 -16 22 -29 45 -29 52
0 6 -7 19 -16 29 -8 9 -11 19 -7 22 12 7 27 -3 41 -28 9 -15 11 -16 12 -4 0 8
-8 24 -18 35 -18 19 -18 54 -1 54 6 0 7 9 4 20 -7 22 9 27 35 10 9 -6 19 -5
29 3 12 10 9 13 -14 17 -32 6 -36 25 -5 25 11 0 26 9 33 20 12 17 12 25 1 50
-7 17 -13 23 -14 15 0 -13 -1 -13 -10 0 -5 8 -21 16 -35 17 -29 2 -30 0 -13
-27 10 -15 10 -22 0 -32 -9 -9 -12 -8 -12 5 0 24 -62 78 -76 66 -17 -14 -84 1
-83 20 0 10 2 11 6 4 3 -10 9 -9 21 3 14 15 17 15 28 0 8 -11 14 -13 19 -6 11
18 39 6 54 -23 8 -15 16 -25 19 -23 3 3 -1 12 -8 20 -6 9 -10 21 -8 28 3 7 -2
18 -11 25 -13 10 -14 14 -3 25 11 11 12 10 7 -2 -4 -11 1 -16 15 -17 17 -2 18
1 10 18 -6 10 -15 19 -21 19 -11 0 -8 38 4 58 6 9 -18 12 -112 12 l-121 0 0
-270z m160 250 c8 -5 11 -10 5 -10 -5 0 -17 5 -25 10 -8 5 -10 10 -5 10 6 0
17 -5 25 -10z m150 -201 c0 -11 -4 -17 -10 -14 -5 3 -10 13 -10 21 0 8 5 14
10 14 6 0 10 -9 10 -21z m-256 -161 c-6 -20 -5 -21 9 -10 9 8 21 10 28 6 8 -4
2 -11 -17 -19 -39 -17 -62 0 -37 26 24 24 26 23 17 -3z"/>
<path d="M320 2724 c0 -16 35 -32 47 -22 21 17 15 28 -17 28 -16 0 -30 -3 -30
-6z"/>
<path d="M547 2724 c-10 -11 3 -24 23 -24 10 0 22 5 26 12 4 7 3 8 -5 4 -6 -4
-18 -3 -25 3 -7 6 -16 8 -19 5z"/>
<path d="M964 2708 c-10 -32 -12 -58 -3 -52 9 5 49 -44 48 -60 0 -7 -3 -6 -6
2 -7 17 -21 15 -26 -5 -4 -17 -5 -17 -6 0 -1 21 -19 23 -27 2 -7 -19 -24 -20
-24 -2 0 10 -16 13 -55 13 -43 0 -55 -4 -55 -16 0 -12 16 -16 82 -18 45 -2 86
-6 90 -8 4 -3 8 1 8 8 0 9 3 9 10 -2 7 -11 5 -19 -7 -27 -23 -17 -10 -27 17
-13 23 12 43 4 22 -9 -6 -4 -15 -21 -18 -39 -5 -25 -3 -32 9 -32 8 0 23 -12
33 -27 17 -27 17 -33 -6 -187 -12 -87 -22 -194 -22 -237 1 -63 -1 -79 -13 -79
-9 0 -15 -10 -15 -24 0 -34 -10 -56 -25 -56 -39 0 -62 -100 -34 -152 8 -15 8
-22 -1 -28 -10 -6 -9 -9 0 -12 10 -3 11 -9 2 -24 -10 -18 -11 -18 -17 -1 -4 9
-4 28 -1 41 6 23 5 23 -37 12 -49 -12 -57 -21 -57 -60 0 -16 -10 -60 -22 -98
-25 -79 -20 -77 -146 -33 -63 22 -120 24 -90 3 9 -7 8 -8 -5 -4 -11 3 -30 9
-43 12 -13 3 -24 13 -24 22 0 11 -3 13 -10 6 -12 -12 -80 4 -80 18 0 4 6 5 14
2 8 -3 17 -1 21 5 3 7 -2 11 -14 11 -28 0 -37 -3 -34 -12 5 -13 -14 -9 -26 6
-7 8 -19 13 -29 11 -9 -1 -11 0 -4 2 19 7 14 17 -16 31 -35 17 -300 112 -313
112 -6 0 -9 -44 -7 -112 l3 -111 40 0 c22 0 45 -3 50 -7 6 -4 39 -8 75 -9 151
-3 585 -37 601 -47 6 -4 -5 -69 -18 -104 -9 -23 -10 -130 -2 -130 4 0 11 10
15 23 3 12 14 29 23 38 15 14 16 9 15 -65 0 -46 -8 -103 -17 -131 -9 -27 -18
-84 -20 -125 -2 -53 -9 -84 -22 -104 -14 -21 -16 -31 -7 -34 6 -2 12 -10 12
-18 0 -8 6 -14 14 -14 8 0 21 -3 29 -6 18 -7 32 27 28 72 -1 20 3 33 13 37 9
4 17 26 21 61 7 50 10 55 34 58 32 4 54 45 57 107 2 45 14 61 50 61 19 0 25
11 42 78 11 42 23 89 26 103 l6 27 122 -43 c68 -23 139 -45 158 -48 32 -6 34
-6 16 8 -20 15 -10 20 18 9 8 -3 13 -11 10 -19 -3 -7 5 -16 18 -20 13 -4 30
-9 38 -12 8 -2 23 -4 33 -4 9 0 16 -3 13 -7 -2 -4 7 -8 20 -8 31 -2 30 2 -3
20 -16 8 -23 15 -18 15 16 -1 81 -27 69 -28 -6 -1 -11 -7 -11 -15 0 -8 6 -12
15 -8 8 3 20 -2 27 -11 9 -13 219 -97 241 -97 2 0 4 51 4 114 l0 113 -62 7
c-35 4 -92 9 -128 11 -36 3 -94 7 -130 10 -36 3 -135 10 -220 15 -85 5 -170
12 -188 16 -31 6 -33 9 -27 38 13 63 11 61 71 59 30 0 69 3 86 7 26 8 29 7 24
-8 -5 -15 -5 -15 8 1 12 15 56 26 116 29 8 0 20 5 26 10 17 13 126 39 140 34
7 -3 14 0 16 5 4 13 98 22 98 9 0 -6 9 -6 26 0 32 12 37 12 29 1 -3 -5 -1 -12
5 -16 5 -3 10 1 10 11 0 11 6 15 20 11 22 -6 28 8 8 16 -8 3 -6 6 5 6 11 1 17
-6 17 -20 0 -11 4 -18 9 -15 10 7 21 -16 22 -47 1 -20 2 -20 9 3 4 14 8 152 9
308 1 276 1 282 -19 282 -11 0 -20 -5 -20 -11 0 -5 -5 -7 -12 -3 -8 5 -9 2 -4
-12 4 -10 4 -16 1 -12 -4 3 -15 -2 -25 -12 -14 -14 -33 -19 -64 -18 -24 0 -49
-2 -54 -6 -6 -4 -15 1 -20 10 -6 10 -14 14 -22 9 -10 -6 -9 -11 6 -23 18 -13
17 -14 -8 -8 -44 10 -175 16 -153 7 11 -5 26 -6 33 -3 7 2 22 -4 34 -14 12
-11 18 -13 14 -6 -9 15 40 17 49 2 3 -5 -1 -10 -10 -10 -9 0 -13 -4 -10 -10 3
-5 1 -10 -5 -10 -12 0 -34 -19 -41 -35 -2 -5 -31 -9 -64 -8 -57 2 -54 1 40
-18 55 -11 110 -20 123 -19 18 0 20 -3 10 -14 -7 -7 -20 -11 -29 -9 -9 3 -19
0 -23 -5 -3 -6 11 -10 35 -10 57 -1 59 -8 4 -16 -57 -9 -60 -32 -5 -41 50 -8
43 -25 -11 -25 -21 0 -39 -4 -39 -10 0 -5 -8 -10 -17 -11 -15 0 -15 -2 2 -9
18 -8 17 -9 -8 -9 -19 -1 -26 -5 -21 -13 5 -8 2 -9 -10 -5 -10 4 -15 3 -11 -3
8 -13 -1 -13 -26 0 -13 7 -19 7 -19 1 0 -6 12 -13 28 -16 72 -15 105 -27 93
-34 -7 -5 -28 -7 -47 -5 -19 1 -34 -1 -34 -5 0 -5 -30 -7 -67 -5 -44 2 -56 0
-34 -4 22 -5 37 -15 42 -29 7 -18 5 -22 -9 -21 -28 2 -82 -14 -82 -24 0 -6
-12 -8 -26 -5 -16 3 -28 0 -31 -9 -3 -8 -16 -14 -29 -14 -13 0 -24 -4 -24 -10
0 -5 -7 -6 -17 -3 -10 4 -14 2 -10 -4 4 -7 -7 -13 -29 -17 -19 -4 -43 -10 -51
-13 -13 -5 -15 -2 -10 17 7 26 -7 60 -25 60 -6 0 -5 -6 3 -17 10 -11 10 -14 2
-9 -8 4 -13 2 -13 -8 0 -8 -4 -17 -9 -20 -4 -3 -6 6 -3 19 2 15 0 25 -7 25
-14 0 -15 128 -1 165 5 14 13 65 17 113 3 48 12 96 19 107 7 11 15 38 19 60 3
22 16 76 29 120 24 80 24 80 60 83 27 2 36 -1 36 -12 0 -9 -6 -16 -14 -16 -8
0 -17 -7 -20 -16 -5 -14 -4 -15 9 -4 14 11 14 10 6 -14 -15 -38 -6 -32 20 13
l21 39 62 -5 c33 -2 84 -9 111 -14 28 -6 58 -10 68 -10 14 0 15 -4 7 -19 -15
-28 -29 -33 -22 -8 5 21 4 22 -11 9 -9 -7 -17 -10 -17 -5 0 11 -20 -18 -20
-30 0 -4 6 -6 13 -3 6 2 18 -2 25 -9 9 -9 9 -14 2 -14 -18 0 -6 -23 13 -26 9
-1 15 1 12 6 -9 15 24 31 70 34 37 3 43 1 34 -10 -16 -19 -1 -35 27 -28 14 4
24 2 24 -4 0 -15 61 7 76 26 7 9 18 13 28 9 14 -6 16 -3 11 13 -7 21 10 28 18
8 4 -10 6 -10 6 0 1 14 31 17 31 2 0 -5 4 -10 10 -10 11 0 1 32 -14 42 -6 4
-30 8 -54 8 -27 0 -41 4 -37 10 4 6 9 9 13 6 4 -2 16 0 27 5 17 6 15 8 -12 8
-17 1 -34 7 -37 14 -3 6 -4 3 -3 -8 2 -21 -17 -27 -46 -12 -10 4 -33 9 -50 9
-18 0 -36 3 -42 6 -13 8 -46 10 -39 3 3 -3 24 -11 47 -18 38 -10 39 -11 12
-12 -16 0 -84 9 -150 20 -66 12 -140 22 -165 24 -25 1 -59 3 -77 3 l-32 2 21
47 c32 73 39 77 121 70 45 -4 64 -3 52 3 -16 7 -14 9 15 9 19 0 42 -4 50 -10
12 -8 9 -10 -12 -6 -16 2 -28 1 -28 -3 0 -4 24 -10 53 -14 230 -29 300 -47
247 -64 -9 -3 -10 0 -4 9 6 11 5 12 -8 2 -8 -7 -19 -9 -23 -5 -5 4 -5 2 -2 -4
4 -7 30 -10 67 -8 49 3 60 1 60 -12 0 -11 5 -14 16 -10 9 3 23 6 32 7 10 1 7
4 -8 9 -24 8 -24 8 -2 9 l22 1 0 240 0 240 -434 0 -435 0 -7 -22z m-79 -118
c3 -5 1 -10 -4 -10 -6 0 -11 5 -11 10 0 6 2 10 4 10 3 0 8 -4 11 -10z m580
-70 c3 -6 -4 -10 -17 -10 -18 0 -20 2 -8 10 19 12 18 12 25 0z m73 -17 c-10
-2 -28 -2 -40 0 -13 2 -5 4 17 4 22 1 32 -1 23 -4z m59 -9 c-3 -3 -12 -4 -19
-1 -8 3 -5 6 6 6 11 1 17 -2 13 -5z m96 -11 c-7 -2 -19 -2 -25 0 -7 3 -2 5 12
5 14 0 19 -2 13 -5z m-183 -7 c0 -3 -4 -8 -10 -11 -5 -3 -10 -1 -10 4 0 6 5
11 10 11 6 0 10 -2 10 -4z m-20 -136 c-8 -5 -19 -10 -25 -10 -5 0 -3 5 5 10 8
5 20 10 25 10 6 0 3 -5 -5 -10z m107 -16 c-3 -3 -12 -4 -19 -1 -8 3 -5 6 6 6
11 1 17 -2 13 -5z m-47 -168 c0 -2 -7 -7 -16 -10 -8 -3 -12 -2 -9 4 6 10 25
14 25 6z m50 -6 c0 -5 -4 -10 -9 -10 -6 0 -13 5 -16 10 -3 6 1 10 9 10 9 0 16
-4 16 -10z m53 -7 c-7 -2 -21 -2 -30 0 -10 3 -4 5 12 5 17 0 24 -2 18 -5z
m-63 -13 c8 -5 11 -10 5 -10 -5 0 -17 5 -25 10 -8 5 -10 10 -5 10 6 0 17 -5
25 -10z m114 -35 c-4 -10 -20 -15 -47 -15 -22 0 -37 3 -34 7 4 3 20 6 37 5 17
0 28 4 25 9 -4 5 1 9 9 9 10 0 13 -6 10 -15z m120 -96 c-3 -5 -25 -8 -49 -7
-24 0 -42 5 -39 10 3 5 11 7 18 5 6 -2 20 -1 31 3 24 9 47 2 39 -11z m-83 -22
c10 0 15 -7 12 -14 -3 -8 -13 -12 -22 -9 -9 2 -38 6 -66 9 -27 2 -41 2 -30 0
23 -5 45 -23 28 -23 -7 0 -24 -5 -40 -12 -30 -13 -103 -17 -103 -6 0 3 15 18
33 32 17 14 36 30 42 34 5 5 36 4 70 0 33 -5 67 -10 76 -11z m-97 -167 c18 0
41 -7 52 -16 18 -15 18 -15 -3 -5 -12 6 -37 11 -55 11 -18 0 -40 5 -48 11 -12
9 -12 10 3 5 10 -3 33 -6 51 -6z m-674 -19 c0 -6 -4 -13 -10 -16 -5 -3 -10 1
-10 9 0 9 5 16 10 16 6 0 10 -4 10 -9z m-725 -191 c3 -5 1 -10 -4 -10 -6 0
-11 5 -11 10 0 6 2 10 4 10 3 0 8 -4 11 -10z m50 -10 c-3 -5 -1 -10 6 -10 7 0
10 -2 8 -5 -3 -2 -16 -1 -29 2 -22 6 -23 7 -4 14 26 10 26 10 19 -1z m665 -95
c9 -11 11 -33 6 -78 l-7 -62 35 34 c20 19 39 32 43 28 6 -7 -95 -106 -109
-107 -10 0 -9 47 1 117 l7 51 -45 -38 c-25 -22 -47 -37 -50 -34 -5 5 89 104
100 104 4 0 12 -7 19 -15z m374 -194 c3 -5 -5 -8 -19 -7 -14 0 -25 4 -25 9 0
10 38 9 44 -2z m126 -41 c12 -8 9 -10 -12 -10 -16 0 -28 5 -28 10 0 13 20 13
40 0z m180 -62 c10 -6 7 -7 -10 -2 -14 3 -32 11 -40 16 -10 6 -7 7 10 2 14 -3
32 -11 40 -16z"/>
<path d="M1590 1940 c0 -5 4 -10 9 -10 6 0 13 5 16 10 3 6 -1 10 -9 10 -9 0
-16 -4 -16 -10z"/>
<path d="M376 2603 c-3 -3 -6 -12 -6 -20 0 -10 17 -13 68 -11 37 2 70 7 74 13
5 6 8 5 8 -2 0 -7 7 -13 15 -13 8 0 15 9 15 19 0 17 -7 19 -52 18 -29 -1 -56
-6 -60 -12 -5 -7 -8 -7 -8 0 0 12 -44 18 -54 8z m44 -19 c0 -2 -9 -4 -21 -4
-11 0 -18 4 -14 10 5 8 35 3 35 -6z"/>
<path d="M568 2588 c5 -21 6 -21 13 -2 7 18 8 18 8 1 1 -16 7 -18 41 -13 26 3
40 1 40 -6 0 -7 4 -7 13 1 8 6 17 8 20 4 4 -3 7 0 7 9 0 8 -6 15 -12 16 -7 0
-23 4 -35 7 -15 5 -23 3 -23 -5 0 -8 -4 -9 -12 -3 -7 5 -25 10 -40 11 -22 1
-25 -2 -20 -20z m52 2 c0 -5 -4 -10 -10 -10 -5 0 -10 5 -10 10 0 6 5 10 10 10
6 0 10 -4 10 -10z"/>
<path d="M720 2590 c0 -17 6 -20 35 -18 26 1 35 7 35 20 0 10 -7 18 -15 18 -8
0 -15 -7 -15 -15 0 -17 -16 -20 -24 -6 -4 5 0 12 6 14 8 3 6 6 -4 6 -12 1 -18
-6 -18 -19z"/>
<path d="M696 2461 c-4 -7 -5 -15 -2 -18 9 -9 19 4 14 18 -4 11 -6 11 -12 0z"/>
<path d="M461 2444 c0 -11 3 -14 6 -6 3 7 2 16 -1 19 -3 4 -6 -2 -5 -13z"/>
<path d="M725 2450 c-3 -5 -1 -10 4 -10 6 0 11 5 11 10 0 6 -2 10 -4 10 -3 0
-8 -4 -11 -10z"/>
<path d="M431 2411 c-9 -6 -10 -11 -2 -15 13 -8 31 1 31 15 0 11 -11 11 -29 0z"/>
<path d="M1450 2210 c0 -5 9 -10 21 -10 11 0 17 5 14 10 -3 6 -13 10 -21 10
-8 0 -14 -4 -14 -10z"/>
<path d="M1825 2170 c3 -5 8 -10 11 -10 2 0 4 5 4 10 0 6 -5 10 -11 10 -5 0
-7 -4 -4 -10z"/>
<path d="M7 2133 c-17 -16 -5 -33 23 -33 17 0 30 5 30 11 0 5 -5 7 -10 4 -6
-3 -10 1 -10 9 0 16 -21 22 -33 9z"/>
<path d="M1315 2130 c4 -6 11 -8 16 -5 14 9 11 15 -7 15 -8 0 -12 -5 -9 -10z"/>
<path d="M1355 2122 c-10 -11 -5 -20 13 -18 9 0 16 -5 15 -11 -2 -7 2 -13 7
-13 6 0 10 9 10 21 0 13 4 18 12 13 6 -4 8 -3 5 3 -7 11 -52 15 -62 5z"/>
<path d="M1718 2043 c7 -3 16 -2 19 1 4 3 -2 6 -13 5 -11 0 -14 -3 -6 -6z"/>
<path d="M458 2018 l23 -23 -52 -45 c-41 -37 -48 -48 -37 -57 10 -9 24 -1 62
33 l50 44 25 -23 c22 -19 23 -19 11 -2 -25 36 -84 95 -94 95 -6 0 0 -10 12
-22z"/>
<path d="M0 1946 c0 -69 23 -135 33 -96 4 16 11 20 31 16 14 -3 28 -1 31 3 2
5 15 6 29 4 18 -4 25 0 28 14 3 17 -28 44 -124 106 l-28 17 0 -64z"/>
<path d="M1348 1933 c7 -3 16 -2 19 1 4 3 -2 6 -13 5 -11 0 -14 -3 -6 -6z"/>
<path d="M1459 1883 c-13 -17 -13 -17 6 -3 11 8 22 16 24 17 2 2 0 3 -6 3 -6
0 -17 -8 -24 -17z"/>
<path d="M1308 1863 c7 -3 16 -2 19 1 4 3 -2 6 -13 5 -11 0 -14 -3 -6 -6z"/>
<path d="M1526 1794 c-8 -21 -8 -24 5 -24 5 0 7 5 4 10 -3 6 -1 10 4 10 6 0
11 5 11 10 0 16 -17 12 -24 -6z"/>
<path d="M645 1720 l-48 -49 39 -45 c21 -24 43 -45 48 -45 6 -1 -5 15 -24 34
l-34 35 22 22 22 22 27 -25 27 -24 -22 31 c-21 30 -21 32 -4 48 17 15 20 14
47 -14 16 -16 31 -28 34 -25 5 6 -69 85 -79 85 -3 0 -28 -22 -55 -50z"/>
<path d="M1485 1750 c-3 -6 1 -7 9 -4 18 7 21 14 7 14 -6 0 -13 -4 -16 -10z"/>
<path d="M1398 1713 c7 -3 16 -2 19 1 4 3 -2 6 -13 5 -11 0 -14 -3 -6 -6z"/>
<path d="M365 1570 c3 -5 10 -10 16 -10 5 0 9 5 9 10 0 6 -7 10 -16 10 -8 0
-12 -4 -9 -10z"/>
<path d="M1812 1460 c0 -14 2 -19 5 -12 2 6 2 18 0 25 -3 6 -5 1 -5 -13z"/>
<path d="M43 1433 c26 -2 67 -2 90 0 23 2 2 3 -48 3 -50 0 -68 -1 -42 -3z"/>
<path d="M193 1433 c9 -2 25 -2 35 0 9 3 1 5 -18 5 -19 0 -27 -2 -17 -5z"/>
<path d="M1801 1403 c-1 -21 -6 -23 -68 -25 l-68 -2 65 -3 c35 -2 71 -9 79
-16 12 -10 13 -9 6 2 -6 11 -4 13 8 8 10 -3 17 -2 17 3 0 6 -6 10 -14 10 -8 0
-17 10 -19 23 l-4 22 -2 -22z"/>
<path d="M22 1390 c0 -14 2 -19 5 -12 2 6 2 18 0 25 -3 6 -5 1 -5 -13z"/>
<path d="M1608 1373 c12 -2 30 -2 40 0 9 3 -1 5 -23 4 -22 0 -30 -2 -17 -4z"/>
<path d="M6 1304 c-3 -26 -6 -181 -6 -346 l0 -298 27 -11 c15 -5 38 -8 50 -4
13 3 23 1 23 -5 0 -6 -4 -9 -8 -6 -5 3 -21 -2 -37 -10 -16 -8 -34 -13 -41 -10
-10 4 -13 -60 -14 -305 l0 -309 499 0 499 0 31 26 c26 21 42 54 27 54 -19 0
-76 -34 -76 -45 0 -8 -4 -15 -9 -15 -7 0 -7 48 -1 99 0 2 8 -3 17 -10 15 -12
16 -12 8 1 -8 13 -7 13 8 1 15 -12 17 -11 17 2 0 9 -8 18 -17 21 -10 2 -4 4
12 3 17 -1 33 -6 37 -12 5 -6 8 -2 8 8 0 9 -3 17 -7 18 -5 0 -21 2 -37 4 -54
7 -49 26 8 28 53 1 44 22 -12 25 -26 1 -48 6 -50 11 -1 4 -26 4 -55 0 -29 -5
-61 -6 -71 -3 -19 6 -19 7 3 25 28 23 18 43 -16 34 -22 -5 -24 -3 -18 12 17
39 18 73 2 73 -19 0 -30 32 -23 68 10 51 17 237 9 249 -19 28 -74 13 -66 -18
3 -10 1 -19 -5 -19 -5 0 -13 -11 -16 -25 -6 -23 -9 -24 -54 -18 -59 7 -62 10
-33 32 15 11 19 20 12 22 -7 3 -9 12 -6 22 4 9 11 14 16 11 5 -3 6 3 2 12 -5
13 -11 7 -28 -25 -11 -23 -25 -38 -30 -34 -4 4 -5 0 -2 -9 6 -16 0 -17 -66
-12 -77 5 -216 31 -182 33 17 1 18 3 5 11 -13 8 -12 10 3 10 9 0 17 -5 17 -10
0 -6 13 -4 31 5 17 9 44 15 61 13 19 -2 33 2 35 10 3 6 -1 12 -8 12 -6 0 -18
8 -25 18 -13 16 -15 16 -31 -5 -14 -16 -23 -19 -40 -12 -31 11 -29 27 2 21 15
-2 25 0 25 7 0 7 -5 9 -10 6 -6 -4 -21 0 -34 9 -22 14 -24 13 -35 -11 -8 -18
-17 -24 -31 -20 -10 3 -21 0 -23 -6 -2 -7 -9 -7 -23 1 -17 11 -18 11 -1 12 10
0 15 5 12 10 -4 6 -10 8 -15 5 -14 -8 -23 16 -11 28 7 7 5 14 -7 23 -15 11
-11 12 23 8 22 -3 51 -9 65 -13 14 -4 41 -4 60 -1 30 5 25 7 -34 13 -73 8
-110 22 -101 37 3 5 -12 13 -34 16 -53 8 -43 23 12 18 23 -2 34 -1 25 2 -31
10 -19 23 20 22 29 0 38 -4 38 -18 0 -15 -4 -17 -21 -8 -11 6 -17 7 -12 3 4
-5 -1 -17 -10 -28 -17 -19 -17 -20 0 -14 12 5 16 3 12 -6 -4 -6 1 -3 9 7 9 11
16 16 16 11 0 -5 6 0 14 10 8 11 12 23 10 26 -9 14 28 18 82 8 30 -6 61 -8 67
-6 7 2 -26 10 -73 17 -64 10 -79 15 -62 21 12 5 22 11 22 13 0 3 -12 1 -26 -4
-30 -12 -75 -13 -101 -3 -13 6 -5 10 32 19 34 8 41 12 23 13 -43 2 -44 21 -1
22 29 2 32 3 11 6 -19 3 -25 9 -21 19 4 10 9 11 18 4 8 -7 12 -5 12 5 0 16
-32 21 -41 7 -3 -5 -29 -9 -58 -9 -29 -1 -44 1 -34 4 11 3 26 12 35 20 11 11
28 14 65 10 28 -3 42 -3 31 0 -44 11 -40 26 4 19 l45 -7 -26 24 -26 24 46 -1
c30 -2 46 -7 44 -14 -1 -7 4 -12 12 -12 18 0 40 26 27 34 -5 3 -12 0 -14 -6
-4 -10 -8 -10 -15 1 -6 8 -18 11 -31 6 -13 -4 -21 -2 -21 5 0 7 -7 10 -15 7
-8 -4 -17 -2 -20 3 -4 6 -17 10 -31 10 -47 0 -15 17 43 24 67 7 116 8 158 1
24 -4 26 -3 10 4 -11 5 -34 10 -51 10 -21 1 -31 6 -31 17 0 16 22 28 70 39 16
3 25 10 21 16 -4 8 3 9 25 4 24 -5 31 -3 31 8 0 9 15 17 40 21 22 3 40 11 40
16 0 6 9 10 19 10 11 0 32 5 48 11 22 8 24 12 13 19 -21 13 -151 1 -204 -19
-13 -6 -39 -8 -57 -6 -18 3 -36 0 -39 -5 -9 -14 -116 -41 -134 -34 -8 3 -26
-2 -41 -12 -14 -9 -28 -14 -32 -10 -3 3 -12 1 -20 -5 -10 -9 -13 -8 -13 4 0
15 -23 18 -36 4 -4 -4 -22 -7 -41 -7 -25 0 -33 -4 -34 -17 0 -14 -3 -12 -10 5
-5 13 -13 20 -19 17 -6 -3 -10 4 -11 17 0 22 -1 22 -9 3 -6 -13 -7 -2 -3 33 7
64 -2 70 -11 6z m188 -474 c8 -8 -4 -9 -44 -4 -30 3 -59 11 -65 17 -7 6 8 8
44 4 30 -4 59 -11 65 -17z m-114 -21 c0 -6 -6 -9 -12 -6 -7 2 -21 0 -30 -5
-13 -6 -18 -5 -18 4 0 7 13 14 30 15 17 1 30 -2 30 -8z m55 -39 c4 -6 12 -7
22 -1 9 4 24 6 34 4 23 -6 25 -33 3 -33 -8 0 -12 5 -9 10 11 19 -22 10 -59
-15 -38 -26 -50 -17 -16 12 14 13 16 19 7 25 -9 6 -9 8 0 8 6 0 15 -5 18 -10z
m-55 -35 c-14 -17 -40 -20 -40 -6 0 5 9 13 20 16 11 3 20 12 21 18 0 8 2 8 6
-1 3 -7 -1 -19 -7 -27z m73 -25 c-3 -11 -9 -20 -13 -20 -5 0 -6 9 -3 20 3 11
9 20 13 20 5 0 6 -9 3 -20z m37 10 c0 -5 -5 -10 -11 -10 -5 0 -7 5 -4 10 3 6
8 10 11 10 2 0 4 -4 4 -10z m-126 -25 c-7 -17 -7 -17 -29 -9 -13 5 -14 8 -3
15 21 14 38 10 32 -6z m191 -35 c3 -5 -1 -10 -10 -10 -9 0 -13 5 -10 10 3 6 8
10 10 10 2 0 7 -4 10 -10z m95 -35 c134 -25 142 -26 193 -32 35 -4 45 -9 37
-18 -5 -6 -7 -14 -5 -17 12 -12 -15 -58 -35 -58 -11 0 -20 -7 -20 -16 0 -10
-6 -14 -17 -10 -10 3 -45 8 -78 12 -33 5 -62 8 -65 9 -3 1 -30 5 -60 9 -30 5
-59 11 -65 14 -5 4 -22 5 -36 4 -14 -2 -36 6 -50 17 -13 11 -18 20 -11 21 6 0
12 -4 12 -10 0 -5 7 -7 15 -4 30 12 14 24 -24 19 -31 -4 -42 -1 -50 12 -10 17
-10 16 -11 -2 -1 -18 -1 -19 -11 -2 -5 9 -17 17 -26 17 -24 0 -4 17 30 25 17
5 27 3 27 -4 0 -6 10 -11 23 -11 16 0 18 3 9 9 -10 6 -8 10 9 14 16 4 26 1 32
-9 6 -11 12 -12 21 -5 9 8 26 7 57 -2 37 -12 47 -12 57 0 10 11 9 13 -10 14
-28 1 -71 17 -48 18 8 1 53 -6 100 -14z m318 -41 c21 -6 32 -34 13 -34 -5 0
-14 -13 -21 -30 -7 -16 -16 -30 -20 -30 -14 0 -29 26 -25 45 2 11 4 28 4 38 1
18 12 21 49 11z m-179 -120 c10 -9 -66 -3 -79 6 -10 7 -1 8 30 4 25 -4 47 -8
49 -10z m-85 -168 c11 -1 22 -8 24 -15 3 -10 0 -10 -16 -2 -10 6 -22 8 -24 5
-3 -2 -20 3 -39 11 l-34 15 35 -5 c19 -4 44 -7 54 -9z"/>
<path d="M336 605 c-6 -17 54 -29 68 -14 8 9 8 10 -1 5 -7 -4 -13 -3 -13 2 0
15 -48 21 -54 7z"/>
<path d="M428 583 c6 -2 18 -2 25 0 6 3 1 5 -13 5 -14 0 -19 -2 -12 -5z"/>
<path d="M218 573 c7 -3 16 -2 19 1 4 3 -2 6 -13 5 -11 0 -14 -3 -6 -6z"/>
<path d="M336 565 c4 -8 18 -15 33 -14 15 0 20 3 11 6 -8 3 -23 10 -32 15 -14
6 -16 5 -12 -7z"/>
<path d="M90 1260 c0 -5 7 -10 16 -10 8 0 12 5 9 10 -3 6 -10 10 -16 10 -5 0
-9 -4 -9 -10z"/>
<path d="M1133 1197 l-52 -52 45 -47 c52 -56 71 -65 25 -13 -36 41 -36 43 -14
67 16 18 17 18 46 -9 30 -28 29 -15 -1 20 -14 16 -14 19 1 34 16 16 19 15 52
-17 19 -19 35 -29 35 -24 0 5 -19 29 -43 52 l-43 42 -51 -53z"/>
<path d="M390 1150 c0 -6 7 -10 15 -10 8 0 15 2 15 4 0 2 -7 6 -15 10 -8 3
-15 1 -15 -4z"/>
<path d="M528 1053 c7 -3 16 -2 19 1 4 3 -2 6 -13 5 -11 0 -14 -3 -6 -6z"/>
<path d="M1438 958 l22 -22 -47 -48 c-37 -38 -45 -50 -35 -60 10 -10 22 -2 60
35 l48 47 24 -23 c20 -18 22 -19 10 -2 -25 35 -84 95 -94 95 -6 0 0 -10 12
-22z"/>
<path d="M1743 937 c-3 -5 -18 -5 -34 -2 -25 6 -29 4 -29 -14 0 -14 22 -36 75
-71 41 -27 77 -50 80 -50 3 0 5 32 5 70 0 49 -4 70 -12 71 -47 5 -81 3 -85 -4z"/>
<path d="M348 843 c7 -3 16 -2 19 1 4 3 -2 6 -13 5 -11 0 -14 -3 -6 -6z"/>
<path d="M435 790 c3 -5 8 -10 11 -10 2 0 4 5 4 10 0 6 -5 10 -11 10 -5 0 -7
-4 -4 -10z"/>
<path d="M745 731 c11 -5 28 -12 38 -15 9 -3 22 -16 27 -28 8 -21 9 -20 9 9 1
24 -3 31 -16 31 -10 -1 -31 1 -48 5 -22 5 -25 4 -10 -2z"/>
<path d="M1585 718 c-4 -10 -13 -18 -21 -18 -8 0 -14 -7 -14 -15 0 -8 -5 -24
-12 -35 -10 -15 -9 -22 6 -39 10 -11 16 -27 13 -35 -4 -10 -1 -13 9 -9 8 3 14
-1 14 -8 0 -8 7 -26 14 -41 13 -24 13 -32 0 -58 -9 -16 -19 -32 -24 -35 -5 -3
-7 -12 -3 -20 3 -8 0 -15 -6 -15 -6 0 -11 -9 -11 -19 0 -10 -7 -21 -15 -25 -8
-3 -15 -1 -15 4 0 19 -28 -2 -34 -25 -6 -25 11 -75 26 -75 5 0 6 6 3 13 -4 6
3 1 16 -13 14 -16 23 -21 26 -13 9 24 40 -8 36 -36 -4 -22 -2 -24 9 -11 19 22
118 26 118 4 0 -12 -11 -15 -51 -13 -32 2 -53 -2 -58 -10 -5 -7 -17 -12 -27
-11 -47 5 -54 -3 -30 -35 12 -16 16 -17 30 -6 21 17 21 7 0 -13 -9 -9 -11 -16
-4 -16 6 0 8 -4 5 -10 -3 -5 -19 -10 -35 -10 -24 0 -31 5 -36 27 -5 17 -3 28
4 31 24 8 11 19 -21 19 -18 -1 -40 2 -50 6 -9 3 -17 2 -17 -3 0 -6 -9 -10 -21
-10 -11 0 -18 -4 -15 -9 3 -4 21 -7 41 -5 39 3 42 -2 20 -26 -8 -9 -16 -25
-18 -36 -2 -10 -9 -29 -15 -41 l-13 -23 216 0 215 0 0 312 c0 324 -2 336 -39
253 l-16 -35 -31 22 c-27 19 -42 37 -80 100 -19 31 -47 58 -60 58 -7 0 -14 6
-17 13 -3 8 -7 6 -12 -5z m172 -204 c-3 -3 -12 -4 -19 -1 -8 3 -5 6 6 6 11 1
17 -2 13 -5z m45 -55 c-15 -17 -17 -18 -20 -4 -2 9 -1 23 2 32 5 12 9 13 20 3
13 -10 12 -14 -2 -31z m-37 12 c-3 -6 -14 -11 -23 -11 -15 1 -15 2 2 15 21 16
32 13 21 -4z m-190 -170 c-3 -10 1 -24 10 -31 8 -7 15 -16 15 -21 0 -5 -9 -1
-20 8 -20 17 -26 44 -13 56 11 12 15 8 8 -12z m-35 -12 c0 -11 -4 -17 -10 -14
-5 3 -10 13 -10 21 0 8 5 14 10 14 6 0 10 -9 10 -21z m145 -67 c-8 -8 -25 10
-19 20 4 6 9 5 15 -3 4 -7 6 -15 4 -17z"/>
<path d="M1798 712 c-19 -4 -25 -22 -8 -22 6 0 10 -6 10 -14 0 -9 7 -12 20 -9
22 6 27 38 8 45 -7 2 -21 3 -30 0z m27 -22 c3 -5 1 -10 -4 -10 -6 0 -11 5 -11
10 0 6 2 10 4 10 3 0 8 -4 11 -10z"/>
<path d="M505 680 c-16 -17 -16 -20 -3 -15 9 4 19 13 22 21 7 19 2 18 -19 -6z"/>
<path d="M557 673 c-10 -10 -8 -23 4 -23 5 0 8 4 5 9 -4 5 0 12 6 14 7 3 8 6
2 6 -6 1 -14 -2 -17 -6z"/>
<path d="M0 640 c0 -6 7 -10 15 -10 8 0 15 2 15 4 0 2 -7 6 -15 10 -8 3 -15 1
-15 -4z"/>
<path d="M1550 517 c0 -8 6 -20 14 -26 12 -10 13 -8 9 9 -7 25 -23 37 -23 17z"/>
<path d="M1095 430 c-3 -5 -1 -10 4 -10 6 0 11 5 11 10 0 6 -2 10 -4 10 -3 0
-8 -4 -11 -10z"/>
<path d="M1380 400 c-8 -5 -10 -10 -5 -10 6 0 17 5 25 10 8 5 11 10 5 10 -5 0
-17 -5 -25 -10z"/>
<path d="M1495 390 c-4 -6 5 -10 19 -10 14 0 26 5 26 10 0 6 -9 10 -19 10 -11
0 -23 -4 -26 -10z"/>
<path d="M1095 360 c-3 -5 -1 -10 4 -10 6 0 11 5 11 10 0 6 -2 10 -4 10 -3 0
-8 -4 -11 -10z"/>
<path d="M1130 360 c0 -5 7 -10 16 -10 8 0 12 5 9 10 -3 6 -10 10 -16 10 -5 0
-9 -4 -9 -10z"/>
<path d="M1360 359 c0 -5 5 -7 10 -4 6 3 10 8 10 11 0 2 -4 4 -10 4 -5 0 -10
-5 -10 -11z"/>
<path d="M1304 207 c-8 -5 -12 -12 -9 -18 10 -15 23 -11 28 9 4 16 5 16 6 0 1
-20 31 -25 31 -5 0 9 3 8 9 -2 7 -11 9 -11 14 0 4 10 6 10 6 2 1 -7 8 -13 16
-13 8 0 12 6 9 14 -6 16 -87 26 -110 13z"/>
<path d="M1070 200 c0 -5 5 -10 10 -10 6 0 10 5 10 10 0 6 -4 10 -10 10 -5 0
-10 -4 -10 -10z"/>
<path d="M1109 202 c9 -7 10 -11 2 -15 -7 -4 -8 -5 0 -3 15 2 13 20 -3 24 -10
3 -10 2 1 -6z"/>
<path d="M1150 194 c0 -9 11 -14 30 -14 21 0 28 4 24 14 -3 7 -16 14 -30 14
-14 0 -24 -6 -24 -14z"/>
<path d="M1230 195 c0 -8 5 -15 10 -15 6 0 10 7 10 15 0 8 -4 15 -10 15 -5 0
-10 -7 -10 -15z"/>
<path d="M1260 195 c0 -8 5 -15 10 -15 6 0 10 7 10 15 0 8 -4 15 -10 15 -5 0
-10 -7 -10 -15z"/>
<path d="M1183 135 c0 -12 17 -14 89 -14 68 1 88 4 88 15 0 8 -4 14 -10 14 -5
0 -10 -6 -10 -12 0 -8 -3 -9 -8 -3 -9 13 -82 17 -82 4 0 -5 -7 -9 -16 -9 -8 0
-12 5 -9 10 3 6 -4 10 -18 10 -14 0 -24 -6 -24 -15z"/>
</g>
</svg>
